<?xml version="1.0" standalone="no"?>
<svg width="800" height="800" xmlns="http://www.w3.org/2000/svg" id="stage-svg" xmlns:xlink="http://www.w3.org/1999/xlink" preserveAspectRatio="none" viewBox="0 0 385 385"><g transform=""><g transform=""><defs><path fill="#FEBE81" d="M191.5 95.8q0-39.7-28.05-67.75-16.2-16.2-36.3-23.05-14.7-5-31.4-5t-31.4 5q-20.1 6.85-36.3 23.05Q0 56.1 0 95.8q0 32.25 18.5 56.85l.05.05q.6.75 1.2 1.55l1 1.2L28 163.5q0 .05.05.05l.7.7q3.5 3.4 7.15 6.4v.05l-.05-.05q-5.81 7.718-10.6 17.75-.078.183-.2.35l-.3.7q-.06.17-.15.35-.117.253-.25.5l-2.6 6.15q-5.345 13.608-8.3 30.1-.05.2-.05.4-.15 2.45.15 4.85Q15.7 245.9 31 249.35q.2.05.45.1l.05-.05q.15.05.25.05.2.6.4 1.15.4.95 1.1 1.75 0 .05.05.1v19.45q-3.9.7-7.8 2.5-.6.267-1.2.55-.94.67 0 .8h143.25q1 0 0-.6-.775-.405-1.55-.75-3.9-1.8-7.8-2.5v-19.45q.05-.05.05-.1.7-.8 1.1-1.75.2-.55.4-1.15.1 0 .25-.05l.05.05q.25-.05.45-.1 15.3-3.45 17.45-17.55.3-2.4.15-4.85 0-.2-.05-.4-3.7-20.65-11.15-36.75-4.8-10.45-11.15-18.95h-.05q0-.1-.1-.2 3.65-3 7.15-6.4l.7-.7q.05 0 .05-.05l7.25-8.05 1-1.2q.6-.8 1.2-1.55l.05-.05q18.5-24.6 18.5-56.85z" id="SkiSki002__Symbol_10_0_Layer0_0_FILL"/><path fill="#FF9D43" d="M-61.65 211.65v1.5q9.05 9.6 22.45 1.35-15.85 6.1-22.4-2.8 0-.05-.05-.05m24.5 16.1h-.2l-3.9.15-1.3.1q-8.5.6-13.15 1.65-4.7 1-5.35 1.3-.15.05-.25.1 8-1.3 16.1-1.8.3-.05.65-.05l2-.1q.2-.05.35-.05h.3q15.4-.65 30.05 2l4.15.7q1.15.2 2.3.45 1.75.35 3.45.75l.3.1q.1 0 .2.05.15 0 .3.05-.4-.15-.8-.25-1.7-.6-3.45-1.05-.55-.15-1.05-.3-.15-.05-.25-.05-10.8-3-22-3.6-.4-.05-.8-.05-.55-.05-1.15-.05l-6.5-.05m2.95-56.05q-.5.7-.6 1.4-.2 1.1.8 2.25.1.1.25.2 3.05 1.2 6.25 0 1.6-1.65.35-3.6-.1-.15-.15-.25-3.05-1-6.9 0m-24.5 15.15q-.05.05-.05.1v.2l.05-.3m9.35-62.5q-.56.742 0 .9 1.643.25 2.6-.9 11.85-18.1-4.35-32.1 15.327 15.032 1.75 32.1m51.3 79.95l.1-.6q-1.25-1.15-2.25 0-.05.25 0 .55.25 1.6.15 3.25l.1.05q.7.3 1.05-.35l.1-.2q.15-.45.3-.85.25-.8.4-1.55.05-.15.05-.3M44 229.05q.15 0 .35.05l2 .1q.35 0 .65.05 8.1.5 16.1 1.8-.1-.05-.25-.1-.65-.3-5.35-1.3-4.65-1.05-13.15-1.65l-1.3-.1-3.9-.15h-.2l-6.5.05q-.6 0-1.15.05-.4 0-.8.05-11.2.6-22 3.6-.1 0-.25.05-.5.15-1.05.3-1.75.45-3.45 1.05-.4.1-.8.25.15-.05.3-.05.1-.05.2-.05l.3-.1q1.7-.4 3.45-.75 1.15-.25 2.3-.45l4.15-.7q14.65-2.65 30.05-2h.3m19.35-15.8v-1.45q-6.55 8.7-22.3 2.65 13.3 8.15 22.3-1.2m-61.3-66.6q20.85-.35 41.45-13.3Q22.65 144.5 2.05 145q-22.1.45-43.95-11.4 22.1 13.45 43.95 13.05m58.3 40.55v-.1l-.05-.05.05.15m-21.85-3.5Q5.65 179.95.85 161.55q-4.8 18.4-37.65 22.15 32.35-1.5 37.65-19 5.3 17.5 37.65 19m-2.55-12q-3.05-1-6.9 0-.5.7-.6 1.4-.2 1.1.8 2.25.1.1.25.2 3.05 1.2 6.25 0 1.6-1.65.35-3.6-.1-.15-.15-.25m14.85-46.35q.793.018 0-1.4-13.106-16.836 2.05-31.7-16.2 14-4.35 32.1 1.15 1.088 2.3 1z" id="SkiSki002__Kopie_von_hll_9_0_Layer0_0_FILL"/><path fill="#E26D00" d="M-58.75 186.95v.2l.05-.3q-.05.05-.05.1m4.05-20.2q2.7 1.4 8.05 1.4-13.2-1.9-7.5-11.5-2 1.25-3.3 3.95l-.1.6q-.4 3.25 1.95 5l-2.75 14q-6.55-2.3-7.95-11.15-.45 8.4 7.4 12.5-2.5 2.6-9.55-3 6 6.4 9.35 5.35l-.7 3.5q-.45 2.1-.85 4.05-.25 1.1-.45 2.2-1.5 7.35-2.3 12.15-.75 4.4.45-.6.4-2.5 1.45-6.25.1-.6.25-1.25 1.55-7 2.45-10.75h.05l-.05-.05v-.05q.2-.9.35-1.55.2-.95.4-1.55v-.05q0-.15.05-.25.15-.75.2-.85l3.1-15.85m90.2 50.05q-.75.05-1.5.15-13.1 1.2-26.3 1.45-4.5.1-9 .1-17-.1-34.1-1.8-.65-.1-1.2-.15 5.8 1.2 11.9 2 11.25 1.55 23.4 1.85h.55v.1l.5 4.65v.2H-.3q-.225-.01-.45-.05-.05.023-.1 0-.276.016-.55 0-6.719-.258-12.75-1.55 6.351 2.352 12.75 2.8.275.058.55.05.05.022.1 0 .225.032.45.05.112-.005.2 0v.1h.05l.7 5.95v-.4l.05.4.7-6h.65q.25-.05.55-.05 6.4-.5 12.75-2.85-6.05 1.3-12.75 1.55-.25 0-.55.05v-.05H2q-.23.027-.45 0l.55-4.85v-.1h.05q.15 0 .35.05l5.2-.2q9.75-.45 18.75-1.7 5.8-.8 11.25-1.95-.15 0-.3.05-.95.05-1.9.15M1.95 184.45q20.95.15 41.7 7.95-20.95-9.55-41.7-9.9-22.25-.35-44.2 9.9 22.25-8.15 44.2-7.95m57.8 2.65l-.05-.05.05.15v-.1M48.2 168.15q5 0 7.7-1.2l3.05 15.8q.05.1.3 1l.75 3.3v.05q.8 3.65 2.3 10.35l.1.4q.25 1.2.5 2.25 1 3.35 1.35 5.75 1.05 4.3.3.1-1.15-6.65-3.55-18.4l-.95-4.9q.15.1.4.2 3.35 1.55 9.65-5.2-6.65 5.4-9.5 3 3.75-1.95 5.6-4.9 2-3.2 1.75-7.6-.75 4.75-2.95 7.6-2.05 2.65-5.6 3.65l-2.6-12.95q2.75-1.75 2.3-5.25l-.1-.6q-1.25-2.35-3.3-3.95 5.7 9.6-7.5 11.5m10.45-36.9q-1.35 1.05-2.8 2.1l-1.55 1.15q-20.35 14.1-45.8 16l-1.1.05q-3.35.2-6.8.2H.4q-3.45 0-6.8-.2l-1.1-.05q-25.45-1.9-45.8-16l-1.55-1.15q-1.45-1.05-2.8-2.1l-1.15-.85q10 8.75 21.45 14.05Q-19.4 152.3.4 152.3h.2q19.8 0 37.75-7.85 11.45-5.3 21.45-14.05l-1.15.85z" id="SkiSki002__Kopie_von_hll_0_Layer0_0_FILL"/><filter id="SkiSki002__Filter_1" x="-20%" y="-20%" width="140%" height="140%" color-interpolation-filters="sRGB"><feColorMatrix in="SourceGraphic" values="1 0 0 0 0 0 1 0 0 0 0 0 1 0 0 0 0 0 0.75 0" result="result1"/></filter></defs><use xmlns:xlink="http://www.w3.org/1999/xlink" xlink:href="#SkiSki002__Symbol_10_0_Layer0_0_FILL" transform="translate(96.75 58)" id="SkiSki002__col1n"/><use xmlns:xlink="http://www.w3.org/1999/xlink" xlink:href="#SkiSki002__Kopie_von_hll_9_0_Layer0_0_FILL" transform="matrix(1.00052 0 0 1 191.65 98.75)" id="SkiSki002__col1d"/><use filter="url(#SkiSki002__Filter_1)" xmlns:xlink="http://www.w3.org/1999/xlink" xlink:href="#SkiSki002__Kopie_von_hll_0_Layer0_0_FILL" transform="matrix(1.00052 0 0 1 191.85 98.75)" id="SkiSki002__col1s"/></g></g><g transform=""><g transform=""><defs><path fill="#00006D" d="M125.7.05l.05-.05q-4 .8-8 1.45-.7.15-1.45.25-4.8.8-9.55 1.45l-.7.1q-44.1 6-87.2 0-.15-.05-.25-.05-2.7-.4-5.35-.8l-3.8-.6q-.55-.15-1.1-.2l-.4-.1Q3.95.8 0 0q0 .05.05.1v19.5q3.95-.7 7.9-1.1.2-.05.4-.05.55-.1 1.1-.15 1.9-.2 3.8-.35 2.7-.2 5.35-.35h.25q22.75-1.05 44 4.75 20.9-5.7 43.2-4.8.35 0 .7.05 4.75.2 9.55.7.7.1 1.45.15 3.95.45 7.95 1.15V.05z" id="LegPan011__Symbol_16_0_Layer0_0_FILL"/><path fill="#FFFFFF" d="M10.9 1.8q-.15-.05-.25-.05-2.7-.4-5.35-.8L1.5.35Q.95.2.4.15L0 .05v17Q.2 17 .4 17q.55-.1 1.1-.15 1.9-.2 3.8-.35 2.7-.2 5.35-.35h.25V1.8m87.9 14.35q4.75.2 9.55.7.7.1 1.45.15V0q-.7.15-1.45.25-4.8.8-9.55 1.45v14.45z" id="LegPan011__Symbol_17_0_Layer0_0_FILL"/></defs><use xmlns:xlink="http://www.w3.org/1999/xlink" xlink:href="#LegPan011__Symbol_16_0_Layer0_0_FILL" transform="translate(129.65 310.25)" id="LegPan011__col1n"/><use xmlns:xlink="http://www.w3.org/1999/xlink" xlink:href="#LegPan011__Symbol_17_0_Layer0_0_FILL" transform="translate(137.6 311.7)" id="LegPan011__col2n"/></g></g><g transform=""><g transform=""><defs><path fill="#000000" d="M146.9 7.7q-9-5.25-23.3-6.95-13.1-1.45-27.4 0-7 .8-14.2 2.45l-8.3 2.05-8.3-2.05Q58.2 1.55 51.2.75 36.9-.7 23.8.75 9.1 2.5 0 8h147.4l-.5-.3z" id="LegSho001__Symbol_2_0_Layer0_0_FILL"/></defs><use xmlns:xlink="http://www.w3.org/1999/xlink" xlink:href="#LegSho001__Symbol_2_0_Layer0_0_FILL" transform="translate(118.8 326)" id="LegSho001__col1n"/></g></g><g transform=""><g transform=""><defs><path fill="#FF5D5D" d="M10.55 72.05q-.15.2-.2.4-1.75 2.4-.1 5.2 1.1 1.65 2.65 2.7 3.8 2.65 9.65.3 1.6-.6 2.45-1.35-5.35 1.95-10.1-1.35-2.1-1.4-3.25-3.1-.9-1.25-1.1-2.8M34.4 60.8q-1.65-.6-2.8-.6 5.4 2 6.9 7.6.7 2.4.45 4.45-.1 1.55-.9 2.85.2-.05.4-.15 2.85-.75 3.4-4 .2-1.95-.3-3.75-1.2-4.45-7.15-6.4M13.15 40.75l-.1-.7q-.4-1.9-1.45-3.5-2.5-3.85-8.75-3.9-1.75-.05-2.85.3 5.75.25 8.9 5.15.9 1.3 1.4 2.65h2.85M18.4 47l-.2.4q-1.45 2.55.45 5.25 1.25 1.5 2.85 2.45 4 2.3 9.6-.55 1.6-.75 2.4-1.55-5.2 2.4-10.2-.5-2.2-1.2-3.5-2.8-1-1.15-1.4-2.7m-2.45-28.55q-.2 1.95.3 3.75 1.2 4.45 7.15 6.4 1.65.6 2.8.6-5.4-2-6.9-7.6-.7-2.4-.45-4.45.1-1.55.9-2.85-.2.05-.4.15-2.85.75-3.4 4M13.15 6q.05-.2.15-.4 1.2-2.75-.95-5.2-.25-.2-.45-.4-.65 1-1.7 2.4.7.5 1.3 1.1 1.15 1.05 1.65 2.5M43.2 19q1.2-1.1 1.95-2.4l-3-.95q-.9 1.45-1.95 2.35-1.15 1.1-2.65 1.5.2.15.4.2 2.6 1.35 5.25-.7m3.05 15.3q-2.5-.35-4.25-1.4-1.35-.75-2.25-2v.45q-.5 2.9 2.25 4.75 1.7.95 3.55 1.25 2.25.35 4.4-.6v-2.4q-1.75.25-3.7-.05m3.7 12.35h-.05q-4.6.7-7.2 6.45-.75 1.55-.85 2.7 2.5-5.05 8.1-6v-3.15m69.35 34.1q-1.6.75-2.4 1.55 5.15-2.4 10.15.45l3.95-.85.05.05v-.05q-1-1-2.15-1.7-4-2.3-9.6.55m-11.35-15.6q-.3-1.75-.85-2.75.95 5.7-3.15 9.8-1.7 1.8-3.65 2.65-1.4.65-2.9.6l.3.3q2.1 2.05 5.2.95 1.75-.85 3.1-2.15 3.25-3.25 1.95-9.4M103 29.35q.75 2.85 4 3.4 1.95.2 3.75-.3 4.45-1.2 6.4-7.15.6-1.65.6-2.8-2 5.4-7.6 6.9-2.4.7-4.45.45-1.55-.1-2.85-.9.05.2.15.4M99.2 44.3q-.15.1-.3.25-2.55 1.45-2.25 4.7.3 1.95 1.25 3.55 2.3 4 8.55 4.35 1.75.1 2.85-.15-5.75-.5-8.65-5.55-1.25-2.15-1.55-4.15-.3-1.6.1-3m51.55-12.25q-3.4-2.15-8.75-.45-1.7.35-2.7 1.1 5.65-1.55 10.1 2.15.75.6 1.95 2.15l-.6-4.95m-24.2 15.3q1.6-1.6 3.2-1.95v-2.9q-.95 0-2.05.4-1.85.8-3.15 2.1-3.25 3.3-2 9.45.4 1.65.9 2.7-1-5.7 3.1-9.8m-2.1-32.55q-1.4-1.05-2.55-1.35 4.75 3.35 4.75 9.15 0 2.5-.75 4.4-.5 1.5-1.6 2.55.2 0 .45-.05 2.9.05 4.25-3 .7-1.8.75-3.7-.05-4.6-5.3-8z" id="ShiSho055__Symbol_153_0_Layer0_0_FILL"/><path fill="#770707" d="M.35 28.3l-.35.9 19.35 6.6-4.2 21.3v.2q0 .1.1.15v.05q.1.15.3.2.2.05.4-.05.15-.15.2-.35l4.05-20.6q.1-.3.15-.55.15-1-.9-1.4L.35 28.3m52.05-9.95q-.7-.15-1.35-.3-6.25 2.9-11.45 8.2-.05-.1-.15-.15l-1.3-1.3-.05-.05L18.95 2.7l-1.7-1.3L15.4 0l-.1.1 22.1 25.35v.05q.9.8 1.75 1.7.05.1.2.15h.1q.15 0 .3-.05 5.55-5.85 12.65-8.95m78.2 17.15q-.1.1-.05.3-.05.15.05.35l4.15 21.15q.05.2.2.35.2.1.4.05t.3-.2v-.05q.1-.05.1-.15v-.2l-4.15-21.3 19.3-6.6-.35-.9-19.1 6.45q-.65.25-.85.75m3.05-34.1l-1.7 1.3-19.15 22.05-.05.05q-.75.7-1.45 1.45-1-1-2-1.9-.75-.7-1.5-1.3-3.75-3.05-7.9-5-.7.15-1.35.3 2.45 1.1 4.75 2.55 1.45.85 2.8 1.9 2.65 2 5.05 4.5.15.05.3.05.2 0 .3-.15.85-.9 1.75-1.7v-.05L135.6.1l-.1-.1-1.85 1.4z" id="ShiSho055__Symbol_154_0_Layer0_0_FILL"/><path fill="#FFFF00" d="M48 79.95q0-.6-.45-1.05-.45-.45-1.05-.45-.6 0-1.05.45l-2.75 2.75q1.85.25 3.75.5l1.1-1.15q.45-.45.45-1.05M54.45 69q0 .6.45 1.05.45.4 1.1.4.45 0 .8-.25V66l-1.9 1.9q-.45.45-.45 1.1m2.35-4v-3h-3.15q-.6 0-1.05.45-.45.45-.45 1.05 0 .6.45 1.05.45.45 1.05.45h3.15m-1.95-8.05q-.45.45-.45 1.05 0 .6.45 1.05L56.8 61v-4.15q-.4-.35-.9-.35-.6 0-1.05.45m-20.8 23.4q2.35.35 4.7.75l-2.2-2.2q-.45-.45-1.05-.45-.6 0-1.05.45-.45.45-.45 1.05 0 .2.05.4m5.9-3.7q-.45.45-.45 1.05v3.5q1.5.2 3 .45V77.7q0-.6-.45-1.05-.45-.45-1.05-.45-.6 0-1.05.45m-9.45-15.5l1.05-4q.2-.65-.1-1.15-.3-.5-.95-.65-.6-.2-1.1.1-.55.3-.75.95l-1.05 4-2.1-3.6q-.3-.5-.9-.65-.6-.2-1.15.1-.5.3-.65.95-.2.6.1 1.1l2.1 3.6-4.05-1.05q-.6-.2-1.1.1-.5.3-.7.95-.15.6.15 1.1.3.5.9.7l4.05 1.05-3.6 2.1q-.5.3-.7.9-.15.65.15 1.15.3.55.9.65.65.2 1.15-.1l3.6-2.1-1.05 3.95q-.2.65.15 1.25.3.5.9.65.55.15 1.15-.2.5-.3.7-.9l1-3.9 2.05 3.55q.3.5.95.7.6.1 1.1-.2.55-.3.7-.85.15-.65-.15-1.15l-2.05-3.6 4 1.05q.6.15 1.15-.15.5-.3.7-.9.15-.65-.15-1.15-.3-.55-.9-.7l-3.95-1.05 3.55-2.05q.5-.3.65-.95.15-.55-.15-1.1-.3-.5-.9-.7-.6-.15-1.1.15l-3.6 2.05M6.45 30.55q-.1-.6-.65-.9-.5-.3-1.15-.15-.6.2-.9.7l-2.1 3.6-.9-3.9L0 36.65h9.8q.1-.1.2-.25.3-.5.15-1.15-.2-.6-.7-.9-.55-.3-1.15-.15l-4.05 1.1 2.1-3.6q.3-.5.1-1.15m3.3-8.8q-.25.55-.05 1.15l1 2.75 9.65 3.25 1.25-.45q.6-.25.85-.8t0-1.1q-.25-.6-.75-.85-.55-.25-1.15-.05l-3.9 1.45 1.75-3.8q.25-.5.05-1.15-.25-.6-.8-.85t-1.1-.05q-.6.3-.85.8l-1.75 3.8-1.5-3.95q-.2-.6-.75-.85T10.55 21q-.55.2-.8.75m10.9-10.65q.55-.3.7-.9.15-.6-.2-1.1-.3-.55-.85-.75L16.25 7.3l3.6-2.1q.55-.3.7-.85.2-.6-.15-1.2-.3-.5-.9-.65-.55-.15-1.1.1l-3.6 2.1 1.05-4q.1-.35 0-.7-1.25 1.85-2.45 3.85-.85 1.45-1.65 2.9-1.25 2.25-2.4 4.6l.65-.4-1.05 4q-.15.55.15 1.1t.9.7q.55.15 1.1-.15.6-.35.75-.9l1.05-4.05 2.1 3.6q.35.55.9.7.6.15 1.1-.15.6-.3.75-.9.15-.55-.2-1.15L15.5 10.2l4 1.05q.55.2 1.15-.15M34.3 9.4q.55.15 1.1-.1l3.3-1.9q-1.65-.8-3.25-1.6l-1.6.9q-.5.3-.7.9-.15.6.15 1.15.35.5 1 .65m9.8 18.4q0-.6-.45-1.05-.45-.45-1.05-.45-.6 0-1.05.45L38.6 29.7v-4.15q0-.6-.45-1.05-.45-.45-1.05-.45-.6 0-1.05.45-.45.45-.45 1.05v4.15l-2.95-2.95q-.45-.45-1.05-.45-.6 0-1.05.45-.45.45-.45 1.05 0 .6.45 1.05l2.95 2.95h-4.15q-.6 0-1.05.45-.15.15-.25.3-.2.35-.2.75 0 .6.45 1.05.45.45 1.05.45h4.15l-2.9 2.9q-.45.45-.45 1.1 0 .6.45 1.05.45.4 1.1.4.6 0 1.05-.45l2.85-2.85v4.1q0 .6.45 1.05.45.45 1.05.45.6 0 1.05-.45.45-.45.45-1.05V36.9l2.95 2.9q.45.45 1.05.45.6 0 1.05-.45.45-.45.45-1.05 0-.6-.45-1.05l-2.9-2.9h4.1q.6 0 1.05-.45.45-.45.45-1.05 0-.4-.2-.75-.1-.15-.25-.3-.45-.45-1.05-.45H40.7l2.95-2.95q.45-.45.45-1.05m11.05-14.15h-.45l1.15.65-4 1.1q-.55.15-.85.7-.35.55-.2 1.15.15.6.7.85.6.35 1.15.2l4-1.1-2.05 3.55q-.3.6-.1 1.2.15.6.65.85.55.3 1.2.15.25-.05.45-.2v-9.1q-.85-.2-1.65-.4v.4M42.45 9l1.45 2.55q.35.55.9.7.6.15 1.1-.15.6-.3.75-.9.05-.25.05-.55Q44.5 9.9 42.45 9m-1.7 3l.9-3.3q-1.45-.6-2.8-1.25l-1 3.8q-.15.55.15 1.1t.9.7q.55.15 1.1-.15.6-.35.75-.9m79.35 51.4q.3.5.9.7l4.05 1.05-3.6 2.1q-.5.3-.7.9-.15.65.15 1.15.3.55.9.65.65.2 1.15-.1l3.6-2.1-1.05 3.95q-.2.65.15 1.25.3.5.9.65.55.15 1.15-.2.5-.3.7-.9l1-3.9 2.05 3.55q.3.5.95.7.6.1 1.1-.2.55-.3.7-.85.15-.65-.15-1.15l-2.05-3.6 4 1.05q.6.15 1.15-.15.5-.3.7-.9.15-.65-.15-1.15-.3-.55-.9-.7l-3.95-1.05 3.55-2.05q.5-.3.65-.95.15-.55-.15-1.1-.3-.5-.9-.7-.6-.15-1.1.15l-3.6 2.05 1.05-4q.2-.65-.1-1.15-.3-.5-.95-.65-.6-.2-1.1.1-.55.3-.75.95l-1.05 4-2.1-3.6q-.3-.5-.9-.65-.6-.2-1.15.1-.5.3-.65.95-.2.6.1 1.1l2.1 3.6-4.05-1.05q-.6-.2-1.1.1-.5.3-.7.95-.15.6.15 1.1m-6.3 10.25q-.6 0-1.05.45-.45.45-.45 1.05v4.15l-2.95-2.95q-.45-.45-1.05-.45-.6 0-1.05.45-.45.45-.45 1.05 0 .6.45 1.05l2.95 2.95h-4.15q-.6 0-1.05.45-.45.45-.45 1.05v.1q6.65-.65 13.25-1.6h-.4l2.95-2.95q.45-.45.45-1.05 0-.6-.45-1.05-.45-.45-1.05-.45-.6 0-1.05.45l-2.95 2.95v-4.15q0-.6-.45-1.05-.45-.45-1.05-.45m-8.15-20.15q-.2-.6-.75-.9-.5-.3-1.1-.15-.55.15-.9.7l-1.1 1.9v14.5q.4.15.9.05.55-.15.9-.75.3-.55.15-1.1l-1.05-4.05 3.6 2.1q.55.25 1.1.1.6-.15.9-.65.3-.6.15-1.2-.15-.55-.7-.85l-3.55-2.05 4-1.05q.55-.2.85-.75.35-.5.2-1.1-.15-.6-.7-.9-.6-.35-1.15-.15l-4.05 1.05 2.1-3.6q.35-.6.2-1.15m-2.6-24.5l-1.25-2.15v4.4q.35 0 .7-.2.6-.3.75-.9.15-.55-.2-1.15m2.75-5.4l-4-1v3.05l3.2.85q.55.2 1.15-.15.55-.3.7-.9.15-.6-.2-1.1-.3-.55-.85-.75m.1-5.2q-.3-.5-.9-.65-.55-.15-1.1.1l-2.1 1.25v3.45l3.55-2.1q.55-.3.7-.85.2-.6-.15-1.2m2.9-6.7q.1.35.4.65.45.4 1.1.4.6 0 1.05-.45l2.3-2.25q-2.4.9-4.85 1.65M122.2 35l1.05-4q.15-.55-.2-1.1-.3-.6-.85-.75-.6-.15-1.15.2-.55.35-.7.9l-1.05 4-2.1-3.65q-.35-.5-.9-.65-.6-.15-1.15.1-.5.35-.7.95-.15.55.15 1.1l2.1 3.65-4-1.1q-.55-.15-1.15.2-.55.25-.7.85-.15.6.2 1.15.3.55.85.7l4 1.1-3.55 2.05q-.5.3-.7.9-.15.6.15 1.15.35.5 1 .65.55.15 1.1-.1l3.5-2.05-1.05 4q-.15.55.15 1.1t.9.7q.55.15 1.1-.15.6-.35.75-.9l1.05-4.05 2.1 3.6q.35.55.9.7.6.15 1.1-.15.6-.3.75-.9.15-.55-.2-1.15l-2.05-3.55 4 1.05q.55.2 1.15-.15.55-.3.7-.9.15-.6-.2-1.1-.3-.55-.85-.75l-4.05-1.05 3.6-2.1q.55-.3.7-.85.2-.6-.15-1.2-.3-.5-.9-.65-.55-.15-1.1.1l-3.6 2.1m17.6.45q.15.6.65.9l.5.3h16q-.05-.05-.05-.1-.2-.6-.7-.9-.55-.3-1.15-.15L151 36.6l2.1-3.6q.3-.5.1-1.15-.1-.6-.65-.9-.5-.3-1.15-.15-.6.2-.9.7l-2.1 3.6-1.05-4.05q-.2-.6-.7-.9-.5-.3-1.1-.15-.65.2-.95.7-.3.5-.1 1.1l1.05 4.05-3.6-2.1q-.5-.3-1.1-.1-.65.15-.95.65-.3.55-.1 1.15m.2-9.95q-.35.5-.25 1.15 0 .55.45.95l.45.4 3.4-1.05-1.95-1.65q-.4-.4-1-.3-.7.05-1.1.5M123.45 7.3q.6 0 1.05-.45.45-.45.45-1.05 0-.45-.25-.85-2.3 1.25-4.65 2.35h3.4m-.75 3.95q0-.6-.45-1.05l-2.65-2.65q-2.7 1.2-5.4 2.25v3.75q0 .6.45 1.05.45.45 1.05.45.6 0 1.05-.45.45-.45.45-1.05V9.4l2.95 2.9q.45.45 1.05.45.6 0 1.05-.45.45-.45.45-1.05m23.6 10.95q-.65.1-1 .55-.4.45-.3 1.1l.2 2.75 2.9-.95-.2-2.1q-.1-.6-.55-1-.35-.3-.8-.35h-.25M143.2.65v3.8l-2.95-2.95q-.45-.45-1.05-.45-.6 0-1.05.45-.45.45-.45 1.05 0 .6.45 1.05l2.95 2.95h-4.15q-.6 0-1.05.45-.45.45-.45 1.05 0 .6.45 1.05.45.45 1.05.45h4.15l-2.9 2.9q-.45.45-.45 1.1 0 .6.45 1.05.45.4 1.1.4.6 0 1.05-.45l2.85-2.85v4.1q0 .6.45 1.05.45.45 1.05.45.6 0 1.05-.45.45-.45.45-1.05v-4.15l2.95 2.9q.45.45 1.05.45.4 0 .7-.15-.1-.3-.25-.6-1.1-2.4-2.3-4.7-.75-1.45-1.55-2.9-1-1.85-2.1-3.6-.6-.95-1.15-1.9-.2-.25-.35-.5z" id="ShiSho055__Symbol_155_0_Layer0_0_FILL"/><path fill="#FFF" d="M166.2 302.85q-.63-.6-1.5-.6-.15 0-.25.05-.45 0-.85.25-.3.1-.55.35-.65.75-.65 1.65 0 .95.65 1.6.25.25.6.45.15.1.35.15.3.1.7.1.9 0 1.55-.7.3-.26.45-.6.3-.429.3-1 0-.9-.75-1.65l-.05-.05m.05-15.35l-.1-.1q-.598-.55-1.45-.55-.6 0-1.1.3-.3.1-.55.35-.65.75-.65 1.65 0 .95.65 1.6.4.4.95.6.3.1.7.1.866 0 1.5-.65.025-.023.05-.05.75-.65.75-1.6 0-.9-.75-1.65m-1.3-15.45q-.1-.05-.25-.05-.95 0-1.65.65-.65.75-.65 1.65 0 .95.65 1.6.1.1.2.15.6.55 1.45.55.552 0 1-.3.298-.129.55-.4.75-.65.75-1.6 0-.9-.75-1.65-.545-.545-1.3-.6m-2.55-14.25q0 .95.65 1.6.7.7 1.65.7.9 0 1.55-.7.75-.65.75-1.6 0-.9-.75-1.65-.65-.65-1.55-.65-.95 0-1.65.65-.6.7-.65 1.55v.1z" id="ShiSho055__Layer3_0_FILL"/><g id="ShiSho055__Symbol_152_0_Layer0_0_FILL" fill="#FF0000"><path d="M56.8 18.45l-.5-.1q-.15-.05-.3-.05-16.45-3.9-30.55-13.65L23.9 3.5q-1.45-1.05-2.8-2.1L19.25 0q-.1.05-.15.15-3.05 4.1-5.7 8.55-.85 1.45-1.65 2.9-1.5 2.7-2.85 5.55-.5.95-.95 1.95-1.65 3.55-3.1 7.35l-.7 1.9q-.05.05-.05.1-.15.35-.3.75l-2.3-.85L0 41.45h22.05L19 57.1l-3.15 12.1q-.55 2.1-1.05 4.2l-.9 3.6-.95 3.6v.25l-.05.05h.2q.25.1.5.15H13.75q2.05.5 4.15.95 18.8 4.25 37.55 5.95.4 0 1.35.05V18.45M15.05 34.3l-.05-.05.15.05h-.1m1.35.45l-.7-.25.75.25h-.05M146.8 11.5q-1-1.85-2.1-3.6-.6-.95-1.15-1.9-2-3.1-4.2-6l-1.85 1.4q-1.35 1.05-2.8 2.1l-1.55 1.15q-14.4 9.95-31.35 13.85v69.35l-.15.1h.15q20.1-1.65 38.8-5.95 2.1-.45 4.15-.95H144.9q.25-.05.5-.15h.2l-.05-.2v-.05l.05.05v-.1h-.05l-9.65-39.15h22.7v-.1l-1.5-13-2.3.85q-.15-.4-.3-.75 0-.05-.05-.1l-.7-1.9v.05q-.05-.1-.05-.2-.25-.7-1.1-2.8-.9-2.2-1.95-4.4-1.8-3.95-3.85-7.6m-16.1-2.9v-.05l.1-.1-.1.15m10.95 25.7h-.1l.15-.05-.05.05m-1.4.45l.75-.25-.7.25h-.05z"/><path d="M130.7 8.55v.05l.1-.15-.1.1z"/></g></defs><use xmlns:xlink="http://www.w3.org/1999/xlink" xlink:href="#ShiSho055__Symbol_152_0_Layer0_0_FILL" transform="translate(113.2 228.6)" id="ShiSho055__col1n"/><use xmlns:xlink="http://www.w3.org/1999/xlink" xlink:href="#ShiSho055__Symbol_153_0_Layer0_0_FILL" transform="translate(120.05 229.3)" id="ShiSho055__col1l"/><use xmlns:xlink="http://www.w3.org/1999/xlink" xlink:href="#ShiSho055__Symbol_154_0_Layer0_0_FILL" transform="translate(117.05 228.6)" id="ShiSho055__col1s"/><use xmlns:xlink="http://www.w3.org/1999/xlink" xlink:href="#ShiSho055__Symbol_155_0_Layer0_0_FILL" transform="translate(113.2 233.45)" id="ShiSho055__col2n"/><use xmlns:xlink="http://www.w3.org/1999/xlink" xlink:href="#ShiSho055__Layer3_0_FILL"/></g></g><g transform=""><g transform=""><defs><path fill="#8FAFCD" d="M1.8 1.55q.2-.3.2-.6Q2-.15 1 0 0 .1 0 .95q0 1 1 1 .5 0 .8-.4z" id="BodHan006__Symbol_45_0_Layer0_0_FILL"/><path fill="#6486A6" d="M1 1.95q.5 0 .8-.4.2-.3.2-.6Q2-.15 1 0 0 .1 0 .95q0 1 1 1z" id="BodHan006__Symbol_46_0_Layer0_0_FILL"/><path fill="#C40000" d="M46.7 23.45q-1.25-1.6-2.9-3-1.85-1.6-5.05-3.5.05 0-1.15-.75-.1-3-2.25-5.15-1.4-1.4-3.15-1.9.2-.25.35-.5h-.05q1-1.55 0-3.1-.05-.1-.1-.15-.25-.3-.5-.55-2.5-1.95-5.3-3.1-7.4-3.2-15.4 0-.95.45-1.95 1Q7.9 3.6 7.2 4.8 5.8 8.45 5.55 9.75q-.05.3-.05.45 0 .15.1.35-.05 0-.1.05Q0 16.35 0 24.5t5.5 13.9l.6.6q1.1 1.65 2.7 3.15 6.65 5.6 13 6.85 3.45 1.15 7.5 1.15 3.5 0 6.6-.85 4.65-1.15 8.3-4.4 1.85-1.65 3.1-3.45 4.2-8.65 0-17.3-.3-.4-.6-.7M171 2.75q-1-.55-1.95-1-8.8-3.45-16.25 0-3.25 1.55-5.4 4.5-.45 1.2.35 2.4h-.05q.15.25.35.5-1.75.5-3.15 1.9-1.25 1.25-1.8 2.8-.1.3-.2.7-.15.45-.2.95-.05.3-.05.6v.05q-.1 0-.1.05-1.25.75-1.45.95-2.95 1.7-4.8 3.3-1.65 1.4-2.9 3-.3.3-.6.7-4.2 8.65 0 17.3 1.25 1.8 3.1 3.45 3.65 3.25 8.3 4.4 3.1.85 6.6.85 4.05 0 7.5-1.15 6.3-1.25 13-6.85 1.6-1.5 2.7-3.15l.6-.6q5.5-5.75 5.5-13.9t-5.5-13.9l-.15-.15q.1.05.2.15.1-.2.1-.4 0-1-1.7-5.4-.7-1.2-2.05-2.05z" id="BodHan006__Symbol_13_0_Layer0_0_FILL"/><path fill="#830000" d="M26.9 5.4q-.25-.3-.5-.55-2.5-1.95-5.3-3.1-7.4-3.2-15.4 0-.95.45-1.95 1Q2.4 3.6 1.7 4.8.3 8.45.05 9.75q-.05.3-.05.45 0 .15.1.35v.05q.65-.5 1.4-1.1 5.65-3.75 11.55-3.6 2.4.2 4.65.75 1.6.35 3.1.85 2 .65 3.4 1.3-.8 0-1.45.15-.15.05-.35.1-1.95.45-3.45 2-2.25 2.25-2.25 5.45t2.25 5.45q2.25 2.25 5.45 2.25 1.6-.05 3-.6l.3-.1q.15-.05.3-.15-.1.15-.2.35-.3.4-2.15 2.75-1.45 1.85-1.45 2 0 .05.1.5.1.2.25.35.15-.15.35-.25h.05q.3-.5.9-1.2 1.5-1.7 1.7-2 .45-.85 1.6-2.25.15-.15 1.25-2.05l-.15.1q.1-.15.55-.7.1 1.6.3 3.45.25 2.6.25 3.1 0 .05.05.75.2.7.9.7.05 0 .05-.7-.05-.75-.15-1.65-.1-.9-.05-2.6v-3.5l-.25-2.7q0-1 .2-1.6-.1-3-2.25-5.15-1.4-1.4-3.15-1.9.2-.25.35-.5H27q1-1.55 0-3.1-.05-.1-.1-.15m-3.95 4.55q.7-.15 1.45-.15.45 0 .95.1 2.15.25 3.8 1.85 1.2 1.2 1.7 2.8.15.5.2 1.05.05.45.05.9v.4q0 .05-.05.4-.05.35-.25 1.4-.2 1.05-1.65 2.5-.85.9-1.85 1.4-1.35.6-2.9.6-2.8-.05-4.75-2-2-1.95-1.95-4.7-.05-2.8 1.95-4.75 1.45-1.45 3.3-1.8m142.55-7.2q-1-.55-1.95-1-8.8-3.45-16.25 0-3.25 1.55-5.4 4.5-.45 1.2.35 2.4h-.05q.15.25.35.5-1.75.5-3.15 1.9-1.25 1.25-1.8 2.8-.1.3-.2.7-.15.45-.2.95-.05.3-.05.6v.05q-.05.25-.05.6-.05.4-.1 1-.35 5.55-.35 7.45-.05 1.85.2 3.75h.1q.7 0 .9-.7.05-.7.05-.75v-1.8q0-1.3.2-3.45l.1-1.65q-.1.55-.05-.2v-.05q.1.2.05.2l.85 1.4q.85 1.4 1.05 1.65 1.15 1.4 1.6 2.25.2.3 1.7 2 .6.7.9 1.2h.05q.2.1.35.25.15-.15.25-.35.1-.45.1-.5 0-.15-1.45-2-1.85-2.35-2.15-2.75-.1-.2-.2-.35.15.1.3.15l.3.1q1.4.55 3 .6 3.2 0 5.45-2.25t2.25-5.45q0-3.2-2.25-5.45-1.5-1.55-3.45-2-.2-.05-.35-.1-.65-.15-1.45-.15 1.4-.65 3.4-1.3 1.2-.4 2.5-.7 10.6-1.95 18 3.65.1.05.2.15.1-.2.1-.4 0-1-1.7-5.4-.7-1.2-2.05-2.05M144.85 9.8q.75 0 1.45.15 1.85.35 3.3 1.8 2 1.95 1.95 4.75.05 2.75-1.95 4.7-1.95 1.95-4.75 2-1.55 0-2.9-.6-1-.5-1.85-1.4-1.45-1.45-1.85-3.35.05-.1.05-.15 0-.35-.15-.6v-.6q0-2.8 1.95-4.75 1.65-1.6 3.8-1.85.5-.1.95-.1z" id="BodHan006__Symbol_12_0_Layer0_0_FILL"/></defs><use xmlns:xlink="http://www.w3.org/1999/xlink" xlink:href="#BodHan006__Symbol_45_0_Layer0_0_FILL" transform="translate(130 290.65)" id="BodHan006__col1n"/><use xmlns:xlink="http://www.w3.org/1999/xlink" xlink:href="#BodHan006__Symbol_46_0_Layer0_0_FILL" transform="translate(134.8 290.65)" id="BodHan006__col1d"/><use xmlns:xlink="http://www.w3.org/1999/xlink" xlink:href="#BodHan006__Symbol_13_0_Layer0_0_FILL" transform="translate(102.45 274.1)" id="BodHan006__col2n"/><use xmlns:xlink="http://www.w3.org/1999/xlink" xlink:href="#BodHan006__Symbol_12_0_Layer0_0_FILL" transform="translate(107.95 274.1)" id="BodHan006__col2d"/></g></g><g transform=""><g transform=""><defs><path fill="#FFFFFF" d="M17.25 7.75q7.2.15 14.25-2.9.75-.25 1.55-.6 1.3-1.35 1.5-4.25H0q.2 2.9 1.5 4.25.8.35 1.55.6 7.05 3.05 14.2 2.9z" id="FacMou021__Symbol_46_0_Layer0_0_FILL"/><path d="M214.2 221.55v-.05h-43.4v.05q1.3 2.3 3.45 4.1l.3.3q4.2 3.15 11.5 4.4 3.2.65 6.45.6 3.25.05 6.45-.6 7.3-1.25 11.5-4.4l.3-.3q2.15-1.8 3.45-4.1m-5.5.95q-.2 2.35-1.4 3.45-.75.3-1.45.5-6.6 2.45-13.35 2.35-6.75.1-13.35-2.35-.7-.2-1.45-.5-1.2-1.1-1.4-3.45h32.4z" id="FacMou021__Layer5_0_FILL"/></defs><use xmlns:xlink="http://www.w3.org/1999/xlink" xlink:href="#FacMou021__Symbol_46_0_Layer0_0_FILL" transform="translate(175.25 222)" id="FacMou021__col1n"/><use xmlns:xlink="http://www.w3.org/1999/xlink" xlink:href="#FacMou021__Layer5_0_FILL"/></g></g><g transform="translate(0 0)"><g transform=""><defs><path fill="#FFFFFF" d="M47.85 14.8q2.2-2.8 2.4-5.15.1-1.55-.6-2.85-1.15-2.1-4.3-3.85L2.95.05Q2 2 1.4 4.1.35 7.65.1 11.5q-.2 2.7.05 5.15.1 1.45.4 2.85l29-2.85-.65.05 18.95-1.9m57.5-9.55q-.7-2.7-1.85-5.25L61.1 2.95Q57.95 4.7 56.85 6.8q-.75 1.3-.6 2.85.15 2.35 2.35 5.15l5.8.6-1.25-.1 42.7 4.3q.25-1.35.4-2.75.3-2.6.1-5.4-.2-3.2-1-6.2z" id="FacEye011__Symbol_14_0_Layer0_0_FILL"/><path fill="#000000" d="M3.4 6.65Q4.8 6.6 5.8 5.6q1-.95 1-2.35 0-1.35-1-2.35-1-.95-2.4-.9Q1.95-.05 1 .9q-1 1-1 2.35 0 1.4 1 2.35.95 1 2.4 1.05m32.05 0q1.4-.05 2.35-1.05 1-.95 1-2.35 0-1.35-1-2.35-.95-.95-2.35-.9Q34-.05 33 .9q-1 1-1 2.35 0 1.4 1 2.35 1 1 2.45 1.05z" id="FacEye011__Symbol_4_0_Layer0_0_FILL"/></defs><g id="FacEye011__col1n" transform="translate(139.3 155.35)"><use xmlns:xlink="http://www.w3.org/1999/xlink" xlink:href="#FacEye011__Symbol_14_0_Layer0_0_FILL" id="FacEye011__col1n_FL"/></g><g id="FacEye011__col2n" transform="translate(173 162.65)"><use xmlns:xlink="http://www.w3.org/1999/xlink" xlink:href="#FacEye011__Symbol_4_0_Layer0_0_FILL" id="FacEye011__col2n_FL"/></g></g></g><g transform="translate(0 0)"><g transform=""><defs><path fill="#BFBFBF" d="M180.5 42.55l-1.35-1.2q-10-9.05-17.65-12.55 2.75-.95 6.4-2.9-6.75-1.05-14.55-4.35l-1.4-.6q-8.65-3.9-16.2-7.95-25.35-16.15-60.5-6.3l.3-.5q2.8-4.05 4.85-6.15L80.35 0Q71.2 2.2 62.3 8.35q-6.8 4.55-13.95 11.8-1.4-3.85-.55-6.35-4.85 4.75-6.4 6.25l-.75.65q-27.4 28.45-37.7 57.25Q.55 88.6 0 100.25l3-1q-.75 10.45 2.75 19.25 6.45-8.9 8.25-16.3 1.95-8 2.5-9.45.6-1 1.25-2.05.4-.65.9-1.2 2.8-3.9 6.65-7.1-1.05-.2-5.15.8 2.9-9.25 11.95-11.65-3.4-3.25-3.4-6.95-.1-.05-.2-.05l.15-.1.05.15q3.3.1 5.8.8v-.1q-.4-.6-.75-1.8-.25-1.15-.3-2.25 0-3.95 2.05-6.05 2.1-2.1 5.9-2.15h.25q2.6-.05 7.25 2 2.8 1.25 9.5 4.55 14 6.65 25.25 6.55 3.45-.05 6.15-.5-6.6-.95-11.25-6.55-.05 0-.1-.05h.05l.05.05q3.65 1.7 6.85 2.7 6.9 2.15 16.4 2.2 6.05 0 18.05-.05 9.8.4 15.05 3.4-.4-3.1-3.8-6.4 1.2.55 2.35 1.2.95.4 3.45 1.5 1.95.85 3.25 1.3 8 2.85 13.2 4.4.95.25 1.85.5 2.15.65 7.5 1.85 2.8.7 6.2 1.6 11.4 1.85 13.05 19.5l1.65 23.95q.4 9.4 8.6 14.25.2-.65.8-2 .6-1.4 1.3-2.8.7-1.45 1.95-4.8 2-5.4 3.95-12.15v-.15q-2.1 1-4.2 1.05h-.1l.35-1.1-.25 1.1q.4-1.6.55-1.95.9-2.45 1.55-7 .25-1.65.45-3.1.85-7.8-1.4-14.65-.15-.4-.3-.85-3.1-9.85-4.45-20.7l-.1-.5q-2-9.65-11.05-18.15-.4-.35-.75-.7m-25.2-4.3h.05v.05l-.05-.05z" id="HaiSho052__Symbol_173_0_Layer0_0_FILL"/><path fill="#D9D9D9" d="M147.85 33.2q-9.7.15-22.85-2.8-1.2-.25-2.4-.55-8.75-2.15-18.15-5.5Q91.9 19 85.25 16.2q-6.7-2.75-12.5-4.25 1.35-.05 3.85-.1 12.35-.1 25.65 4.2 3.65 1.2 10.75 3.7 5.3 1.8 9.6 2.9.95.2 1.85.4l.15-.2-.05-.05q-.9-.55-1.95-1.15-6.35-3.7-18.25-9.1Q86.6 1.9 66.05 4.25q-.5.05-.95.1L43.6 6.7Q46.75 4.15 62.25.8V.6Q32.8-3.1 10.65 16.5 5.1 21.4 0 27.75q3.2-1.3 8.6-3.45 1.05-.4 2.05-.7 7.8-2.65 12.25-2.7 6.55-.05 12.65 1.55 3.65.9 11.1 3.75 4.6 1.7 11.85 2.7 4 .6 12 1.3-6.9-2.05-19-8.55 3.1-.85 4.1-.95.75-.1 5.3-.15 7.7-.05 16.8 2.2 4 1 16.4 5 15.35 4.9 28.5 6.4 6.35.7 12.2.65 5.2-.05 13.05-1.6z" id="HaiSho052__Symbol_39_0_Layer0_0_FILL"/></defs><use xmlns:xlink="http://www.w3.org/1999/xlink" xlink:href="#HaiSho052__Symbol_173_0_Layer0_0_FILL" transform="translate(92.1 50.95)" id="HaiSho052__col1n"/><use xmlns:xlink="http://www.w3.org/1999/xlink" xlink:href="#HaiSho052__Symbol_39_0_Layer0_0_FILL" transform="translate(122.85 66.4)" id="HaiSho052__col1l"/></g></g><g transform=""><g transform=""><defs><path fill="#000000" d="M14.85-.85q-.25-.2-.5-.15-.3.05-.45.3-.5.65-1.1 1.25-2.2 2-5.25 2t-5.2-2Q1.7-.05 1.3-.65 1.15-.9.85-.95q-.3-.1-.5.05-.25.15-.3.45-.1.3.05.55.5.75 1.3 1.5v-.05q2.5 2.4 6.15 2.4 3.65 0 6.2-2.4v.05q.75-.75 1.3-1.5.15-.25.1-.5-.05-.3-.3-.45z" id="FacNos001__Symbol_10_0_Layer0_0_FILL"/></defs><use xmlns:xlink="http://www.w3.org/1999/xlink" xlink:href="#FacNos001__Symbol_10_0_Layer0_0_FILL" transform="translate(184.95 203.65)" id="FacNos001__col1n"/></g></g><g transform="translate(-2 18)"><g transform=""><defs><path fill="#000000" d="M42.65 6.45q.1-1.4-1.95-2.75-.55-.35-1.15-.65-3.9-1.65-8.15-2.4Q23.25-.55 15.1.4 5.75 1.55.6 5.9-.6 7.35.6 8.05q1.3.55 4.5-.3 1.3-.45 6.15-1.45 7.25-1.55 15.5-.8 4.1.35 6.7.85 3.1.5 5.1 1.25 2.4 1 3.65 0 .15-.15.3-.4.15-.35.15-.75m43.3-.15q4.85 1 6.15 1.45 3.2.85 4.5.3 1.2-.7 0-2.15Q91.45 1.55 82.1.4q-8.15-.95-16.3.25-4.25.75-8.15 2.4-.6.3-1.15.65-2.05 1.35-1.95 2.75 0 .4.15.75.15.25.3.4 1.25 1 3.65 0 2-.75 5.1-1.25 2.6-.5 6.7-.85 8.25-.75 15.5.8z" id="FacBro022__Symbol_22_0_Layer0_0_FILL"/></defs><use xmlns:xlink="http://www.w3.org/1999/xlink" xlink:href="#FacBro022__Symbol_22_0_Layer0_0_FILL" transform="translate(143.9 121.95)" id="FacBro022__col1n"/></g></g><g transform=""><g transform=""><defs><path fill="#9A3200" d="M44.8 14.75Q48.7 2.5 63.4 2.05 63.3.3 60.35 0 43.2-.3 37.25 14.75q-.1.25-.2.55l-.2.55q-1.75 5-3.3 9v.05q-1.15 2.95-2.15 5.4-5.5 13.05-8.2 10.75-3.9-4.75-9.35-6-.65-.15-1.25-.2-3.1.9-6.95 3.3Q1.8 40.5.15 43.9 0 44.9 0 46.05q-.1 5.8 3.9 10.85 1.15 1.5 2.5 2.65.2.2.4.35.7.85 1.85 1.65.7.5 1.5.85 2.1-1.9 5-1.9 3.15 0 5.4 2.25.15.15.25.3 2.25-1 4.3-3.5 1.9-2.35 3.65-6.1Q35.5 42.3 39.95 30.3q1-2.7 1.9-5.4h-.05q.05-.001.05-.05 1.5-4.4 2.65-8.95 0-.1.05-.2.1-.5.25-.95z" id="ObjFoo039__Symbol_77_0_Layer0_0_FILL"/><path fill="#D24400" d="M3.25 12.25q4.7.85 8.55-2.35 3.25-2.25 3.1-6.95l-.1-.5Q14.4.5 12.45.15 7.6-.55 4 2.3.7 4.9 0 9.2q.15 1.7 2.35 2.7.4.15.9.35z" id="ObjFoo039__Symbol_31_0_Layer0_0_FILL"/><path d="M119.05 264.65q-1 2.05-.05 3.45.9 1.4 3.2 1.3 2.3-.1 4.65-1.65.45-.3.8-.55 1.75-1.35 2.55-3.05 1-2.1.1-3.5t-3.25-1.25q-2.3.05-4.6 1.6-2.4 1.55-3.4 3.65z" id="ObjFoo039__Layer7_0_FILL"/></defs><use xmlns:xlink="http://www.w3.org/1999/xlink" xlink:href="#ObjFoo039__Symbol_77_0_Layer0_0_FILL" transform="translate(116.8 223.45)" id="ObjFoo039__col1n"/><use xmlns:xlink="http://www.w3.org/1999/xlink" xlink:href="#ObjFoo039__Symbol_31_0_Layer0_0_FILL" transform="translate(116.95 258.15)" id="ObjFoo039__col1l"/><use xmlns:xlink="http://www.w3.org/1999/xlink" xlink:href="#ObjFoo039__Layer7_0_FILL"/></g></g><g transform=""><g transform=""><defs><path fill="#773900" d="M95.4 6.8q-1.2-2.65-2.65-6-1.1-1.6-2.25 0-2.2 2.25-3.45 4.5-.45.75-.85 1.5-.7 1.25-1.4 2.6-1.4 2.75-2.45 5.15-.8 1.6-1.4 3-.25.55-.45 1.05-1.4 3.4-2.45 9.15v.05q.05.15-.5 2.9-.25-.05-.45-.1-4.55-1.65-10.05 0v-.05q-.3.05-.6.15-.55-2.75-.5-2.9v-.05Q64.9 22 63.5 18.6q-.2-.5-.45-1.05-.6-1.4-1.4-3-1.05-2.4-2.45-5.15l-1.35-2.6-.9-1.5-2.65-3.5q-.2 4.05-.35 4.75-.05.15-.05.25-.4 1.55-1.5 1.55-.35 0-1.35-.6-.9-.6-1.3-.6 0 .2-.2.2 0 1.5-.45 2.95-.55 1.6-1.25 1.6-.25 0-1.05-.7-1.2 2.5-2.4 5.4-.45 1.05-.85 2.2-.05.05-.05.1-.05.15-.1.25-.1.2-.15.45-.95 2.45-1.75 4.75-.1.4-.25.8-.4 1.2-.75 2.35-.4 1.5-.75 2.9-1.3 5.15-1.3 8.95 0 2.65.05 3.2.05.45-2 3.05h-.05q-.8 1-1.55 2.1T33.55 50q-.8 1.6-1.45 3.35-1.25 3.45-1.7 7.55l-.1 1.5q-.15 1.65-.15 3.45v.8q.05 2.55.5 5 1.25 7.75 6.05 14.2 2.4 3.3 5.75 6.25l.2.1q.8.7 1.65 1.4-2.2 9.5-3.35 11.8-1.15 2.25-1.05 2.3.1 0-1.65 3.05-3.15 5.3-4.25 7.3-.4.65-.5.95-1.8 3.75-2.85 6.85-2.85-1.8-3.6-2.5-.5-.45-.95-.9-2-1.95-3.5-3.65-.55-.6-1-1.2-.05-.1-.1-.1-.2-.25-.35-.5-2.05-2.7-3.35-5.5-.25-.6-.5-1.15-1.65-4.2-1.65-8.55 0-3.15 1.1-5.2.7-1.3 1.75-2.15 1.65-1.35 4.1-1.7 1.1-.2 2.3-.2 2.35 0 4.05 2.85l.6 1.2q.05.1.1.3.7 1.8.7 3.7l.45.25q.55-.95.9-1.75 1-2.6 1-6.55 0-4.05-3.75-9-1.4-1.8-2.75-3.05-7.6-5.85-14.45 0-.55.35-1.05.8-5.45 4.55-3.6 8.85-1.45-.95-2.05-3.1-.15-.65-.35-1.2-7.4 9.55-3.1 25.9.65 1.5 1.45 2.85 1.15 2.05 2.4 3.15-.4-.15-.8-.25-.2-.05-.4-.15-1.2-.4-2.2-.85-.45-.15-.85-.35-.4-.2-.75-.35.75 1.7 1.6 3.25 1 1.9 2.2 3.65.4.6.9 1.2 2.05 2.65 4.5 4.7 1.75 1.45 3.65 2.6.35.2.65.4 2.7 1.5 9.55 4.15-.9 1.45-1.6 3-2.4 4.9-3.1 10.3-.3 2.25-.3 4.55 0 2.1.6 5.15.05.3.15.6.45 2.3 1.15 4.35.65 2 1.5 3.8 4.25 9 11.8 10.2-2.5.55-4.85 2.7-4 3.7-3.75 6.25.05.4.15.75.65 1.55 1.95 2.2h13.75q-.25.7-.3 1.3v.5q0 2.6 1.05 3.95.1.25.3.4h25.45q4.25-2.8.85-9.1-1.05-1.85-2.7-4-.5-.2-.95-.7 2.85 1.5 6.45 1.5 2.3 0 5.3-1.2-.3.25-.6.4-1.65 2.15-2.7 4-3.45 6.3.9 9.1h25.4q.2-.15.35-.4 1.05-1.35 1.05-3.95 0-.25-.05-.5-.05-.6-.25-1.3h13.75q1.3-.65 1.9-2.2 1.05-2.7-3.65-7-2.35-2.15-4.8-2.7 7.6-1.2 11.85-10.2l.5-1.1q1.35-3.25 2.15-7.05l.1-.6q.6-3.05.6-5.15 0-2.55-.35-5.05-.75-5.1-3-9.8-2.8-5.8-7.4-10.1-.15-.1-.25-.2-.2-.2-.45-.4-1.1-3.85-3.55-9.05-.15-.3-.5-.95-1.1-2-4.2-7.3-.4-.65-.7-1.25-.55-1.05-1-2.05-.6-1.45-1.1-2.8-2.1-5.75-1.95-10.1.85-.55 2.9-2.35l.2-.1q3.35-2.95 5.75-6.25 4.8-6.45 6.05-14.2.45-2.45.5-5v-.8q0-1.8-.15-3.45l-.1-1.5q-.45-4.1-1.7-7.55-.65-1.75-1.45-3.35-.6-1.2-1.35-2.3-.75-1.1-1.55-2.1h-.05q-2.05-2.6-2-3.05.05-.55.05-3.2 0-3.8-1.3-8.95-.35-1.4-.75-2.9-.35-1.15-.75-2.35-.15-.4-.25-.8-.8-2.3-1.75-4.75-.05-.25-.15-.45-.05-.1-.1-.25 0-.05-.05-.1-.4-1.15-.85-2.2-.8-2-4.2-9.8M21.6 131.2h.05v.05l-.05-.05z" id="PetPet001__Symbol_2_0_Layer0_0_FILL"/><path fill="#A14D00" d="M78.75 73.9q0-3.35.15-4.9.1-1.55-2.1-1.7-1.05 2.45-1.9 3.55-.75 1.1-2.4 2.25-1.65 1.1-3.85 1.6-2.25.4-2.95.8-1.75.8-1.75 4.05 0 .5.35 6.45v1.6q-.05.2-.05.35 2.25-1.15 5.65-3.55.85-.55 2.9-2.35l.2-.1q3.35-2.95 5.75-6.25v-1.8m-58.65 19q-1.9 1.95-4.15 3.5 0 .1-.1.1.6.4 2.6.4 1.8 0 3.35-.65l-.9 2.45q-.1.2-.2.45-.05.1-.05.2-.05-.05-.1-.05-.1.35-.95 1.85-.85 1.45-2.65 4-1.8 2.45-8.1 7.8l.9-.45h.1l9.55-5.05q-4.55 9.7-7.95 15.25 3.1-2.3 4.35-3.2.65-.5.8-.6v.85q0 .75-.7 4.95l-.2 1.3q.1 2.1.25 3.4.3 2.9 1.5 5.85 0-.1.05-.15 1.6-5.15 3.25-8.7H21q-1.95 6.5-.85 11.3 1.05 4.8 3.25 9.6.2-2.6.2-3.1 0-.55 1.4-4.75.05 5.25 2.2 8.55 1 1.45 2.25 3.05.55-2.25 1.6-4.55.7 4.1 1.25 6.1.5 2 1.45 3.45-.05.85-.05 1.65-.1 1.45-.15 2.65v.25q-.15 2.2-.15 3.3v.35q-.05.75-.15 1.4v.25l-.2 1.2q-.15.65-.35 1.25v.1q-.15.3-.2.65-.45 1.35-.6 2-1.65-.1-4.1-.1-3.7 0-5.3.1-6.25-9.4-7.5-22.5-.2-1.15-.35-2.55-1.2-9.6-2.3-12.05-1.15-2.2-2.05-4.05-.05-.1-.15-.25-1.4-2.35-1.55-2.35-1.5 0-2 1.4-.25.75-.35 1.95v.05q.1 1.55.3 3.2.3 2.7.55 4.9.3 2.15-1.15 1.6h-.6q-.3-.45-.85-1.3-.6-.9-1.9-6.8-.7-4.4-1-7.55-.5-4-.45-6.15-.1.35-.15.7-.15.6-.25 1.2-.05.35-.15.65-.2 1.45-.35 3.05-.05.2-.05.45-.15 1.6-.2 3.45v1.4q0 5.8 1.25 11.5.8 3.8 2.1 7.55.1.3.25.65.05.25.15.5l.05.05q1.7 5.1 4 9.25.95 1.7 1.35 2.3.1.25.25.5.05.1.15.25.45.85.95 1.75.3.45.95 1.45.25.4.6.9.55.75 1.25 1.85l.4.7q1.55 2.95 1.55 5.75 0 .05-1.4 2-.1.1-.2.25-.9 1.45-1.25 2.7v.05q-.25.7-.3 1.25v.5q0 2.6 1.05 3.95.1.25.3.4h4.7q.1-1.2.45-2.65.9-3.9 1-4.5.5.9 1 5.1.2 1.25.6 2.05h4.4q.05-.85.35-1.8.25-.8.85-2.75.55-2.15.7-2.6h.05q.1 1.1.1 5.6.05.85.2 1.55h4.9q.35-.75.5-1.6.4-1.75.8-3.3.65-2.35.8-3 .45 4.05.55 7.9h3.5q4.25-2.8.85-9.1-1.05-1.85-2.7-4-.5-.2-.95-.7-.35-.4-.75-.95 0-.05.05-.1.2-.65.4-1.4.2-.9.4-1.85 0-.2.05-.35.05-.3.05-.55.3-1.75.45-3.9 0-.3.05-.55.1-2.25.3-4.4.05-.55.1-1.05 0-.1.05-.2 0-.35.05-.7v-.05q.2-2.2.35-3.25.6.6 2.85 3.75 2.35 3.2 2.35 2.7.05-.55 1.4-2.95 1.4-2.75 1.85-3.5l.5-.45q.6 4.75.95 10.1 0 .3.05.65.1 2 .35 3.7 0 .05.05.15v.15l.2 1.2q.2 1.15.5 2.1.1.4.25.75-.55.8-1.1 1.25-.3.25-.6.4-1.65 2.15-2.7 4-3.45 6.3.9 9.1h3.45q.1-3.85.55-7.9.2.65.8 3 .4 1.55.8 3.3.2.85.5 1.6h4.9q.15-.7.2-1.55.05-4.5.1-5.6h.05q.15.45.75 2.6.55 1.95.85 2.75.25.95.3 1.8h4.4q.4-.8.6-2.05.5-4.2 1-5.1.05.25.25 1.1.25 1.15.8 3.4.3 1.45.45 2.65h4.65q.2-.15.35-.4 1.05-1.35 1.05-3.95 0-.25-.05-.5-.05-.6-.25-1.3-.4-1.25-1.3-2.7-1.6-2.2-1.6-2.25 0-3.15 1.95-6.45.15-.25.3-.45.55-.8 1-1.4.3-.5.55-.9.65-1 .95-1.45.5-.9.95-1.75.1-.15.2-.25.25-.45.75-1.55l.05-.05q.05-.15.1-.2 1.45-3.1 4.8-10.5l-.1.2-1.45 3.2q.6-1.5 1.2-3.1.15-.05.25-.1.2-.6.4-1.15 1.35-3.75 2.15-7.5 1.2-5.75 1.2-11.55 0-.7-.05-1.4 0-2.05-.15-3.9-.2-1.6-.45-3.05 0-.3-.1-.65-.1-.6-.25-1.2l-.1-.4q-.45 3.3-.75 8.35t-2.1 9.7q-1.8 4.65-2.95 4.45-.7-.5-.9-.85-.1-.15-.1-1.6.35-2.5.55-4.25.2-1.8.35-2.85.1-1.05.1-1.55v-.1-.55q-.45-.8-.75-1l-.65.05q-4.35 3.45-5.6 9.05-.25 2.95-.8 7.3v.65q.05 0 .1-.05v.35q-.2 1.4-.4 2.55-1.25 13.1-7.5 22.5-1.6-.1-5.3-.1-2.45 0-4.1.1-.05-.4-.25-1-.2-.55-.4-1.2-.05-.25-.15-.45-.25-.9-.45-1.9-.1-.55-.1-1.2-.05-.15-.05-.25-.05-.55-.05-1.2-.1-1.05-.15-2.95v-.4q-.05-1.15-.15-2.65-.05-1-.1-2.15.85-2.45 2.5-6.6.15-.45 1.4-3 .1-.3.1-.65.9 2.15 1.2 4.45 2.15-4.05 3.7-8 .25-.55.45-1.1.05.9.1 2 .15 2.85-.15 3.75 2.3-2 4.1-5.1 1.9-3.3 2.6-6.65.4.6.65 1.95.25 1.7.05 2.7.9-1.15 1.45-3.15.6-2.05 1.3-5.05.65-3 .55-6.95.65.45 2.65 4.1-.55-3.3-.55-5.15 0-1.6-.2-3.05-.25-2.05-.35-3.05-.05-.1-.05-.2.3.1.55.3.85.2 1.5.35 1.3.35 1.85.55h.6q-1.9-3.85-3.1-5.8-1.2-1.95-2.65-4.45-1.55-2.5-2.95-5.45v-.3l2.05.8q3.45.75 1.95-.5-2-2.25-3.1-3.6-2.05-2.45-3-4.5h.6q2.2.2 3.65.2h.65l.3-.1v-.2q-3.35-1.1-4.8-2.6-1.35-1.3-1.9-3.75-1.4.75-2.85 1.35-.65.25-1.25.55-2.2.85-4.55 1.45h-.25v.05q-1.1 2.45-4.1 3.35-2.65.75-8.15.7-4.95 0-7.45-.7-2.95-.9-4.05-3.25-.05-.05-.05-.1-.1-.05-.25-.05-1.95-.5-3.85-1.2-2.2-.85-4.3-1.9v.1q-.5 2-3.05 4.6m25.95 48.5q-.05 0-.1.05v-.2l.1.15M22 107.1v-.1l.05-.05v.1l-.05.05M12 70.85q-.85-1.1-1.9-3.55-2.2.15-2.1 1.7.15 1.55.15 4.9v1.8q2.4 3.3 5.75 6.25l.2.1q.8.7 1.65 1.4 3.25 2.6 7.4 4.75-.15-.7-.05-4.25.05-3.6-.05-5.6-.1-2.05-1.85-2.85-.7-.4-2.95-.8-2.2-.5-3.85-1.6-1.65-1.15-2.4-2.25M29.8 17.6q-.55-1.25-2.95-5.15 3.3 2.75 3.9 3.7.6.95 1.1 1.75.45.8.7 1.55-.4-3.45-1.35-6.35-2-6.05-7.25-13.1-2.05 4.4-5.2 12.75-4.7 12.45-3.3 15.3l.05.05q1.5-1.2 3.05-2.25 2-1.3.55-4.4 1.4.95 1.75 1.05l-.35-.05 1.85 1.7q.35-1.25.3-2.4 0-1.15-.25-1.5-.2-.45-1-.95.25.1 2.3.7 1.45.45 2.55 2.25-1.25-5.35-3.8-6.75v-.1q1.45.55 4.65 1.5 2.65.95 3.8 3.6-.55-1.65-1.1-2.9M42 33.25q0-1.65-.5-2.8-.7-1.35-1.9-1.35-.7 0-1.85.85-.45.3-.95.75-1.15 1.05-1.8 1.55-.55.5-.6.55-1.65.85-4 1h-.35q-2.25.1-3.2.15h-.65q-.15 0-.35.05-.6.1-1.15.2-3.15.45-5.05 1.05-.8.25-1.4.5-3 1.4-3.5 5.7-.1.35-.1.75 0 1.35.55 1.5.15.05.55.1.25-.3 1.15-1.1.85-.85 3.25-.65 2.35.15 7.9-2.55 5.55-2.75 9.55.25.1-.1.2-.15.6-.35 1.05-.75.2-.2.4-.35Q42 36.2 42 33.25m18.7.7h-.65q-.95-.05-3.2-.15h-.35q-2.35-.15-4-1-.05-.05-.6-.55-.65-.5-1.8-1.55-.5-.45-.95-.75-1.15-.85-1.85-.85-1.2 0-1.9 1.35-.5 1.15-.5 2.8 0 2.95 2.75 5.25.2.15.4.35.45.4 1.05.75.1.05.2.15 3.5-2.1 7.85-.35 4.3 1.7 8.15 1.95 3.8.2 5.35 1.85l.5.6q.4-.05.55-.1.55-.15.55-1.5 0-.4-.1-.75-.5-4.3-3.5-5.7-.6-.25-1.4-.5-1.9-.6-5.05-1.05-.55-.1-1.15-.2-.2-.05-.35-.05m5.35-11.45q.35-.1 1.75-1.05-1.45 3.1.55 4.4 1.55 1.05 3.05 2.25l.05-.05q1.4-2.85-3.3-15.3Q65 4.4 62.95 0 57.7 7.05 55.7 13.1q-.95 2.9-1.35 6.35.25-.75.7-1.55.5-.8 1.1-1.75.6-.95 3.9-3.7-2.4 3.9-2.95 5.15-.55 1.25-1.1 2.9 1.15-2.65 3.8-3.6 3.2-.95 4.65-1.5v.1q-2.55 1.4-3.8 6.75 1.1-1.8 2.55-2.25 2.05-.6 2.3-.7-.8.5-1 .95-.25.35-.25 1.5-.05 1.15.3 2.4l1.85-1.7-.35.05z" id="PetPet001__Symbol_1_0_Layer0_0_FILL"/><path fill="#000000" d="M23.2 126.65q-.6 1.95-.85 2.75-.3.95-.35 1.8h2.25q-.15-.7-.2-1.55 0-4.5-.1-5.6h-.05q-.15.45-.7 2.6m6.45 2.95q-.15.85-.5 1.6h2.65q-.1-3.85-.55-7.9-.15.65-.8 3-.4 1.55-.8 3.3M15 128.55q-.35 1.45-.45 2.65h3.05q-.4-.8-.6-2.05-.5-4.2-1-5.1-.1.6-1 4.5m16.05-11.6l.05-.15 1.2.45q1.95-9.2 1.75-19.05l-3 18.75M45.3 131.2h2.65q-.3-.75-.5-1.6-.4-1.75-.8-3.3-.6-2.35-.8-3-.45 4.05-.55 7.9m8.65-4.55q-.6-2.15-.75-2.6h-.05q-.05 1.1-.1 5.6-.05.85-.2 1.55h2.25q-.05-.85-.3-1.8-.3-.8-.85-2.75m6.15 2.5q-.2 1.25-.6 2.05h3.1q-.15-1.2-.45-2.65-.55-2.25-.8-3.4-.2-.85-.25-1.1-.5.9-1 5.1m-14-12.35l.05.15-3-18.75q-.2 9.85 1.75 19.05l1.2-.45m30.85-21.45l-.05.05q-1.7 5.1-4 9.25-.95 1.7-1.35 2.3-.1.25-.25.5-.05.1-.15.25-.45.85-.95 1.75-.3.45-.95 1.45-.25.4-.6.9-.55.75-1.25 1.85l-.4.7q-1.55 2.95-1.55 5.75 0 .05 1.4 2 .1.1.2.25.9 1.45 1.25 2.7v.05q.35-1-.5-3.2-.95-2.4-.95-3.1 0-1.8 1.7-4.75 2.1-3.35 2.9-4.95l2.65-5.6q.8-1.65 1.65-3.95.446-1.042 1.25-4.25l-.05.05M.2 95.4l-.05-.05q-.028-.07-.05-.15.823 3.306 1.25 4.35.85 2.3 1.65 3.95l2.65 5.6q.8 1.6 2.9 4.95 1.7 2.95 1.7 4.75 0 .7-.95 3.1-.85 2.2-.5 3.2v-.05q.35-1.25 1.25-2.7.1-.15.2-.25 1.4-1.95 1.4-2 0-2.8-1.55-5.75l-.4-.7q-.7-1.1-1.25-1.85-.35-.5-.6-.9-.65-1-.95-1.45-.5-.9-.95-1.75-.1-.15-.15-.25-.15-.25-.25-.5-.4-.6-1.35-2.3-2.3-4.15-4-9.25M43.8 9.85q-.95-1.35-1.7-2.75-1.25-2.35-1.8-4.95V2.1q-.05-.2-.1-.45-.15-.8-.25-1.65l-.1.8q-.1.65-.25 1.3v.1q-.05.2-.75 2l.05-.2q-.5 1.6-1.3 3.1-.75 1.4-1.7 2.75-.8 1.05-1.7 2.05-3.1 3.35-6.85 4.85-.55.45-1 .95-1.8 1.8-2.15 3.1-.15.45-.1.85-.35 1.5-.75 2.6-.2.95-.2 3.4 0 4.9 1.95 7.2 1.05 1.2 2.7 1.8.1 0 .2.1.7.2 1.5.35.95.1 2.05.1 4.05 0 6.7-1.15.6-.3 2.05-.4.95.3 2.1.8 1.7.75 5.75.75 1.1 0 2.05-.1.5-.1.95-.2.2-.05.45-.1.05-.05.1-.05.05-.05-.15 0 2.1-.8 3.05-1.9 1.95-2.3 1.95-7.2 0-2.45-.2-3.4-.4-1.1-.75-2.6.05-.4-.1-.85-.35-1.3-2.15-3.1-.45-.5-1-.95-3.75-1.5-6.85-4.85-.9-1-1.7-2.05z" id="PetPet001__Symbol_4_0_Layer0_0_FILL"/><path fill="#FFFFFF" d="M43.8 32.75q-.75-4.4-3.15-8.1l2 1q1.6.9 2.3 1.35-.75-1.8-1.8-4.5-2.8-7.35-2.8-8.95v-1.2l2.6.8h1q-.85-.6-1.75-1.4-2.7-2.5-3.75-3.4-1.55-1.3-2.95-4.6-1.05-2.6-2.15-3.75-1.1 2.45-4.1 3.35-2.65.75-8.15.7-4.95 0-7.45-.7Q10.7 2.45 9.6.1 7.9 5.35 4.7 10.15 2.55 13.3.15 15.6q-.1.15-.15.25v.2h.35Q2.1 15.1 4.9 13.5v.2L.35 26.75Q3.5 24.3 4.9 23.3q1.35-1.05 3.2-2.1h.2q-1.55 1.75-2.95 6.85-1.45 5.1-1.6 6Q7 29.3 8 29.65q-.2 2.2-.25 3.25-.05.4-.05 1.75 0 3 1.3 6.85 1.35 3.95 3.55 7.1-.7-1.1-.7-5.1 0-1.1.85-3.25.85-2.05.95-2.45.1 0 .15-.05h.1q2.3 5.4 4.3 8.65.05-.05 0-.55-.1-.55.7-2.2.8-1.7 1.85-2.25 1.45.8 2.5 3.45 1 2.7.7 5.05l.1.1q2.1-1.95 4.15-5.15l.5-.9q1.4-2.4 1.95-4.15.95.85 1.4 2.25.15.45.35 2.05.7-1.3 1.35-3 1.9-4.8 2.05-5.05.45-.75.6 0 0 .05.6 1.35 0 .35 1.05 3.15l1.15-3.25q.25-.7.45-1.35.7-2.45.65-5.95 1.05.85 3.5 2.75z" id="PetPet001__Symbol_5_0_Layer0_0_FILL"/><path d="M314 229.95q-.8.8-.8 1.9 0 1.1.8 1.9.8.8 1.9.8 1.1 0 1.9-.8.8-.8.8-1.9 0-1.1-.8-1.9-.8-.8-1.9-.8-1.1 0-1.9.8m23.3 4.6q1.1 0 1.9-.8.8-.8.8-1.9 0-1.1-.8-1.9-.8-.8-1.9-.8-1.1 0-1.9.8-.8.8-.8 1.9 0 1.1.8 1.9.8.8 1.9.8z" id="PetPet001__Layer4_1_FILL"/><g id="PetPet001__Layer4_0_FILL"><path fill="#FFF" fill-opacity="0.2" d="M312.8 193.7q-.55-1.25-2.95-5.15 3.3 2.75 3.9 3.7.6.95 1.1 1.75.45.8.7 1.55-.4-3.45-1.35-6.35-2-6.05-7.25-13.1-2.05 4.4-5.2 12.75-4.7 12.45-3.3 15.3l.05.05q1.5-1.2 3.05-2.25 2-1.3.55-4.4 1.4.95 1.75 1.05l-.35-.05 1.85 1.7q.35-1.25.3-2.4 0-1.15-.25-1.5-.2-.45-1-.95.25.1 2.3.7 1.45.45 2.55 2.25-1.25-5.35-3.8-6.75v-.1q1.45.55 4.65 1.5 2.65.95 3.8 3.6-.55-1.65-1.1-2.9m24.55 1.85q.25-.75.7-1.55.5-.8 1.1-1.75.6-.95 3.9-3.7-2.4 3.9-2.95 5.15-.55 1.25-1.1 2.9 1.15-2.65 3.8-3.6 3.2-.95 4.65-1.5v.1q-2.55 1.4-3.8 6.75 1.1-1.8 2.55-2.25 2.05-.6 2.3-.7-.8.5-1 .95-.25.35-.25 1.5-.05 1.15.3 2.4l1.85-1.7-.35.05q.35-.1 1.75-1.05-1.45 3.1.55 4.4 1.55 1.05 3.05 2.25l.05-.05q1.4-2.85-3.3-15.3-3.15-8.35-5.2-12.75-5.25 7.05-7.25 13.1-.95 2.9-1.35 6.35z"/><path fill="#252525" d="M326.75 247.15h-.65q-2.95-.05-5.45.45-4.6.9-4.5 3.8.05.4 1.15 1.4h.1q1.6 1.15 5.3.4.25.3 1.3 2.05 1 1.25 2.45 1.5.2 0 .35-.05 1.2-.35 2.1-1.45 1.05-1.75 1.3-2.05 3.7.75 5.3-.4h.1q1.1-1.05 1.15-1.4.1-2.9-4.5-3.8-2.5-.5-5.45-.45h-.05z"/><path fill="#FFF" d="M354.15 219.9l-.5-.6q-1.55-1.65-3.25-2.85-3.95-2.85-8.7-3.2-5.4-.4-9.4 2.6-.95.7-1.85 1.65-2.8 3-3.65 7-.15.7-.25 1.45l-.1-.7q-.1-.7-.9-2.65l-.3-.8q-1-2.35-2.8-4.3-.9-.95-1.85-1.65-4-3-9.4-2.6-4.75.35-8.7 3.2-1.7 1.2-3.25 2.85l-.5.6q-2.85 3.15-4.1 6.95-.9 2.5-1.05 5.25v.5q-.15 2.65.4 5 .35 1.45.95 2.75.95 2.05 2.6 3.8 4.5 4.8 11.25 4.25 2.7-.2 5.15-1.15 3.75-1.5 6.85-4.85.9-1 1.7-2.05.95-1.35 1.7-2.75.8-1.5 1.3-3.1l-.05.2q.7-1.8.75-2v-.1q.15-.65.25-1.3l.1-.8q.1.85.25 1.65.05.25.1.45v.05q.55 2.6 1.8 4.95.75 1.4 1.7 2.75.8 1.05 1.7 2.05 3.1 3.35 6.85 4.85 2.45.95 5.15 1.15 6.75.55 11.25-4.25 1.65-1.75 2.6-3.8.6-1.3.95-2.75.55-2.35.4-5v-.5q-.15-2.75-1.05-5.25-1.25-3.8-4.1-6.95z"/></g></defs><use xmlns:xlink="http://www.w3.org/1999/xlink" xlink:href="#PetPet001__Symbol_2_0_Layer0_0_FILL" transform="translate(254.45 165.95)" id="PetPet001__col1n"/><use xmlns:xlink="http://www.w3.org/1999/xlink" xlink:href="#PetPet001__Symbol_1_0_Layer0_0_FILL" transform="translate(283 176.1)" id="PetPet001__col1l"/><use xmlns:xlink="http://www.w3.org/1999/xlink" xlink:href="#PetPet001__Symbol_4_0_Layer0_0_FILL" transform="translate(286.6 230.5)" id="PetPet001__col1s"/><use xmlns:xlink="http://www.w3.org/1999/xlink" xlink:href="#PetPet001__Symbol_5_0_Layer0_0_FILL" transform="translate(305 267.45)" id="PetPet001__col2n"/><use xmlns:xlink="http://www.w3.org/1999/xlink" xlink:href="#PetPet001__Layer4_0_FILL"/><use xmlns:xlink="http://www.w3.org/1999/xlink" xlink:href="#PetPet001__Layer4_1_FILL"/></g></g></svg>
