<svg width="343" height="79" fill="none" xmlns="http://www.w3.org/2000/svg"><mask id="a" style="mask-type:alpha" maskUnits="userSpaceOnUse" x="7" y="2" width="328" height="66"><path d="M17.895 2.5h306.577c7.558 0 12.089 8.396 7.942 14.714l-7.604 11.581a10.503 10.503 0 0 0 0 11.525l7.604 11.582c4.147 6.317-.384 14.714-7.942 14.714H17.895c-6.996 0-11.592-7.306-8.564-13.612l6.675-13.901a10.5 10.5 0 0 0 0-9.09l-6.675-13.9C6.303 9.805 10.9 2.5 17.895 2.5z" fill="#C4A" fill-opacity=".808" stroke="#000"/></mask><g mask="url(#a)"><path fill="#F12CDD" d="M-31.081.07h426.499v84.073H-31.081z"/><path d="M327.704 15.319c-112.342-38.328-240.59 49.455-341 5.357-100.411-44.097 0-43.685 0-43.685h341s112.341 76.655 0 38.328z" fill="#FE72E1" fill-opacity=".82"/><path d="M363.605 37.161c-140.177 26.756-222.445 28.38-377.785 0l-10.936 58.522h388.721V37.16z" fill="#D51AF3"/></g><g filter="url(#b)"><path d="M327.769 2.955H15.777c-5.853 0-9.724 6.077-7.25 11.381l7.598 16.292a8 8 0 0 1 .108 6.52L7.97 56.52c-2.251 5.278 1.62 11.14 7.358 11.14h313.09c6.148 0 9.999-6.648 6.939-11.981l-10.124-17.65a7.997 7.997 0 0 1 .162-8.231l9.151-14.591c3.342-5.328-.488-12.251-6.777-12.251z" stroke="#DB25C1" stroke-width="5" shape-rendering="crispEdges"/></g><defs><filter id="b" x=".817" y=".455" width="342.116" height="77.704" filterUnits="userSpaceOnUse" color-interpolation-filters="sRGB"><feFlood flood-opacity="0" result="BackgroundImageFix"/><feColorMatrix in="SourceAlpha" values="0 0 0 0 0 0 0 0 0 0 0 0 0 0 0 0 0 0 127 0" result="hardAlpha"/><feOffset dy="4"/><feGaussianBlur stdDeviation="2"/><feComposite in2="hardAlpha" operator="out"/><feColorMatrix values="0 0 0 0 0 0 0 0 0 0 0 0 0 0 0 0 0 0 0.25 0"/><feBlend in2="BackgroundImageFix" result="effect1_dropShadow_65_3"/><feBlend in="SourceGraphic" in2="effect1_dropShadow_65_3" result="shape"/></filter></defs></svg>