<svg width="50" height="43" fill="none" xmlns="http://www.w3.org/2000/svg"><mask id="a" style="mask-type:alpha" maskUnits="userSpaceOnUse" x="13" y="6" width="29" height="31"><ellipse cx="14.034" cy="14.928" rx="14.034" ry="14.928" transform="matrix(.9938 .11114 -.1502 .98865 15.424 5.095)" fill="#D9D9D9"/></mask><g mask="url(#a)"><path fill="#F8FD00" d="M-2.895-3.105 70.85 5.142 62.763 58.37-10.98 50.12z"/><path d="m11.456 7.604 36.008 40.934-41.522-4.643 5.514-36.291z" fill="#EADC5E"/></g><path d="M36.98 22.638c-.894 5.877-6.094 9.99-11.463 9.389-5.37-.6-9.168-5.72-8.275-11.597.893-5.877 6.093-9.99 11.463-9.389 5.37.6 9.167 5.72 8.274 11.597z" stroke="#EFD168" stroke-width="3"/><g filter="url(#b)"><path d="M38.644 11.603c2.246 2.295 3.641 5.115 4.01 8.103.368 2.988-.307 6.01-1.941 8.685-1.633 2.674-4.152 4.88-7.237 6.34-3.085 1.458-6.597 2.105-10.094 1.856l.243-2.275c2.972.21 5.957-.338 8.579-1.578 2.621-1.24 4.761-3.115 6.15-5.388 1.388-2.273 1.962-4.841 1.649-7.38-.313-2.54-1.499-4.937-3.408-6.887l2.049-1.476z" fill="#A68308"/></g><defs><filter id="b" x="19.382" y="7.603" width="27.369" height="33.036" filterUnits="userSpaceOnUse" color-interpolation-filters="sRGB"><feFlood flood-opacity="0" result="BackgroundImageFix"/><feBlend in="SourceGraphic" in2="BackgroundImageFix" result="shape"/><feGaussianBlur stdDeviation="2" result="effect1_foregroundBlur_13_215"/></filter></defs></svg>