<?xml version="1.0" standalone="no"?>
<svg width="800" height="800" xmlns="http://www.w3.org/2000/svg" id="stage-svg" xmlns:xlink="http://www.w3.org/1999/xlink" preserveAspectRatio="none" viewBox="0 0 385 385"><g transform="translate(0 0)"><g transform="" class="active-stage-item"><defs><path fill="#FFD3A8" d="M191.5 95.8q0-39.7-28.05-67.75-16.2-16.2-36.3-23.05-14.7-5-31.4-5t-31.4 5q-20.1 6.85-36.3 23.05Q0 56.1 0 95.8q0 32.25 18.5 56.85l.05.05q.6.75 1.2 1.55l1 1.2L28 163.5q0 .05.05.05l.7.7q3.5 3.4 7.15 6.4v.05l-.05-.05q-5.81 7.718-10.6 17.75-.078.183-.2.35l-.3.7q-.06.17-.15.35-.117.253-.25.5l-2.6 6.15q-5.345 13.608-8.3 30.1-.05.2-.05.4-.15 2.45.15 4.85Q15.7 245.9 31 249.35q.2.05.45.1l.05-.05q.15.05.25.05.2.6.4 1.15.4.95 1.1 1.75 0 .05.05.1v19.45q-3.9.7-7.8 2.5-.6.267-1.2.55-.94.67 0 .8h143.25q1 0 0-.6-.775-.405-1.55-.75-3.9-1.8-7.8-2.5v-19.45q.05-.05.05-.1.7-.8 1.1-1.75.2-.55.4-1.15.1 0 .25-.05l.05.05q.25-.05.45-.1 15.3-3.45 17.45-17.55.3-2.4.15-4.85 0-.2-.05-.4-3.7-20.65-11.15-36.75-4.8-10.45-11.15-18.95h-.05q0-.1-.1-.2 3.65-3 7.15-6.4l.7-.7q.05 0 .05-.05l7.25-8.05 1-1.2q.6-.8 1.2-1.55l.05-.05q18.5-24.6 18.5-56.85z" id="SkiSki001__Symbol_10_0_Layer0_0_FILL"/><path fill="#F7BE86" d="M-36.05 227.75h-.2l-3.9.15-1.3.1q-8.5.6-13.15 1.65-4.7 1-5.35 1.3-.15.05-.25.1 8-1.3 16.1-1.8.3-.05.65-.05l2-.1q.2-.05.35-.05h.3q15.4-.65 30.05 2l4.15.7q1.15.2 2.3.45 1.75.35 3.45.75l.3.1q.1 0 .2.05.15 0 .3.05-.4-.15-.8-.25-1.7-.6-3.45-1.05-.55-.15-1.05-.3-.15-.05-.25-.05-10.8-3-22-3.6-.4-.05-.8-.05-.55-.05-1.15-.05l-6.5-.05m3.4-52.2q3.05 1.2 6.25 0 1.6-1.65.35-3.6-.1-.15-.15-.25-3.05-1-6.9 0-.5.7-.6 1.4-.2 1.1.8 2.25.1.1.25.2M3.2 203.7q-1.25-1.15-2.25 0-.05.25 0 .55.25 1.6.15 3.25l.1.05q.7.3 1.05-.35l.1-.2q.15-.45.3-.85.25-.8.4-1.55.05-.15.05-.3l.1-.6m55.4 25.95q-4.65-1.05-13.15-1.65l-1.3-.1-3.9-.15h-.2l-6.5.05q-.6 0-1.15.05-.4 0-.8.05-11.2.6-22 3.6-.1 0-.25.05-.5.15-1.05.3-1.75.45-3.45 1.05-.4.1-.8.25.15-.05.3-.05.1-.05.2-.05l.3-.1q1.7-.4 3.45-.75 1.15-.25 2.3-.45l4.15-.7q14.65-2.65 30.05-2h.3q.15 0 .35.05l2 .1q.35 0 .65.05 8.1.5 16.1 1.8-.1-.05-.25-.1-.65-.3-5.35-1.3M29.55 173.1q-.2 1.1.8 2.25.1.1.25.2 3.05 1.2 6.25 0 1.6-1.65.35-3.6-.1-.15-.15-.25-3.05-1-6.9 0-.5.7-.6 1.4z" id="SkiSki001__hll_0_Layer0_0_FILL"/><path fill="#DE9957" d="M-54 165.45q-.05.05-.05.1l-4.3 21.85q-.45 2.1-.85 4.05l-.1.6q-.2.8-.35 1.6-1.5 7.35-2.3 12.15-.75 4.4.45-.6.4-2.5 1.45-6.25.1-.6.25-1.25.7-3.15 1.3-5.65.65-3.05 1.15-5.1h.05l-.05-.05v-.05q.2-.9.35-1.55.2-.95.4-1.55v-.05q0-.15.05-.25.15-.75.2-.85l3.25-16.8.05-.05q0-.25-.1-.4-.1-.2-.3-.2-.2-.05-.3 0-.05 0-.05.05-.05 0-.1.05t-.1.2m81.8 53.1q5.828-.808 11.3-1.95-.15 0-.3.05-.95.05-1.9.15-.75.05-1.5.15-13.1 1.2-26.3 1.45-4.5.1-9 .1-17-.1-34.1-1.8-.65-.1-1.2-.15 5.808 1.176 11.85 2 11.28 1.525 23.45 1.85h.55v.1l1.4 12.2v-.4l.05.4 1.4-12.2v-.1h.05q.15 0 .35.05l5.2-.2q9.762-.455 18.7-1.7m30.1-53.2l-.05-.05q-.15-.05-.35 0-.2 0-.3.2-.1.15-.05.4l3.25 16.85q.1.2 1.05 4.3v.05q.45 2 1.1 4.95.55 2.4 1.2 5.4l.1.4q.25 1.2.5 2.25 1 3.35 1.35 5.75 1.05 4.3.3.1-.9-5.3-2.65-13.9-.4-2.15-.9-4.5L58.1 165.7v-.1q-.1-.2-.2-.25m2.25-34.1q-1.35 1.05-2.8 2.1l-1.55 1.15q-20.35 14.1-45.8 16l-1.1.05q-3.35.2-6.8.2h-.2q-3.45 0-6.8-.2l-1.1-.05q-25.45-1.9-45.8-16l-1.55-1.15q-1.45-1.05-2.8-2.1l-1.15-.9q10.019 8.81 21.45 14.1 17.928 7.84 37.75 7.85h.2q19.823-.01 37.75-7.85 11.45-5.3 21.45-14.05l-1.15.85z" id="SkiSki001__hdd_0_Layer0_0_FILL"/><filter id="SkiSki001__Filter_1" x="-20%" y="-20%" width="140%" height="140%" color-interpolation-filters="sRGB"><feColorMatrix in="SourceGraphic" values="1 0 0 0 0 0 1 0 0 0 0 0 1 0 0 0 0 0 0.75 0" result="result1"/></filter></defs><use xmlns:xlink="http://www.w3.org/1999/xlink" xlink:href="#SkiSki001__Symbol_10_0_Layer0_0_FILL" transform="translate(96.75 58)" id="SkiSki001__col1n"/><use xmlns:xlink="http://www.w3.org/1999/xlink" xlink:href="#SkiSki001__hll_0_Layer0_0_FILL" transform="matrix(1.00052 0 0 1 190.5 98.75)" id="SkiSki001__col1d"/><use filter="url(#SkiSki001__Filter_1)" xmlns:xlink="http://www.w3.org/1999/xlink" xlink:href="#SkiSki001__hdd_0_Layer0_0_FILL" transform="matrix(1.00052 0 0 1 190.5 98.75)" id="SkiSki001__col1s"/></g></g><g transform="translate(0 0)"><g transform=""><defs><path fill="#000000" d="M137.2 4.75l-.15-.15.05-4.6H10.3l-.05 4.9-.05-.1q-.094-.047-.2 0-1.1.1-2.15.2-6.4.95-7.75 4.5L0 11.65l.5.5h146.3l.5-.5-.1-2.45q-1.45-3.25-7.65-4.2-1.05-.1-2.15-.2-.1-.05-.2-.05z" id="LegSho012__Symbol_28_0_Layer0_0_FILL"/><path fill="#252525" d="M1.9 0H0v10.55q.1-.05.2-.05.3-.1.55-.2.05 0 .1-.05l.05.05h.05q.4.15.95.35V0z" id="LegSho012__Symbol_27_0_Layer0_0_FILL"/><path fill="#4F4F4F" d="M147.3 4.3V1.4l-64.85-.1Q77.4 1.1 74.8.4h-.05Q74.2.2 73.8.05h-.05L73.7 0q-.05.05-.1.05-.25.1-.55.2-.1 0-.2.05-2.6.8-7.9 1L0 1.4v2.9h64.25q5.95 0 8.6-1.3.4-.2.75-.45l.1-.1.1.1q.4.3.95.55 2.65 1.2 8.4 1.2h64.15z" id="LegSho012__Symbol_26_0_Layer0_0_FILL"/><path fill="#666666" d="M4.05 1.45q13.3-.55 20.7-.5h.35q7.35-.05 20.65.5L37.4.5Q30.8 0 24.75 0q-5.9 0-12.3.5l-8.4.95M53.4 4.1l-9.95-1.05q-10.25-.5-18-.7Q11.3 2.2 0 3.45l31.45-.1 21.95.75m38.7-.75l31.45.1q-11.3-1.25-25.45-1.1-7.75.2-18 .7L70.15 4.1l21.95-.75M110.3.5Q103.7 0 97.65 0q-5.9 0-12.3.5l-8.4.95q13.3-.55 20.7-.5H98q7.35-.05 20.65.5L110.3.5z" id="LegSho012__Symbol_25_0_Layer0_0_FILL"/></defs><use xmlns:xlink="http://www.w3.org/1999/xlink" xlink:href="#LegSho012__Symbol_28_0_Layer0_0_FILL" transform="translate(118.8 322.4)" id="LegSho012__col1n"/><use xmlns:xlink="http://www.w3.org/1999/xlink" xlink:href="#LegSho012__Symbol_27_0_Layer0_0_FILL" transform="translate(191.65 322.4)" id="LegSho012__col1d"/><use xmlns:xlink="http://www.w3.org/1999/xlink" xlink:href="#LegSho012__Symbol_26_0_Layer0_0_FILL" transform="translate(118.8 332.65)" id="LegSho012__col1s"/><use xmlns:xlink="http://www.w3.org/1999/xlink" xlink:href="#LegSho012__Symbol_25_0_Layer0_0_FILL" transform="translate(131.1 323.6)" id="LegSho012__col2n"/></g></g><g transform=""><g transform=""><defs><path fill="#FFFFFF" d="M152.85 18.95q.4-.05.75-.05L141.7 0q-1.45.35-3 .7-.25.05-.55.1-.5.1-1 .25l-1.3.3q-.3.05-.55.1-.55.1-1.15.25-.4.05-.8.15l.05.05h-.15q-.5.05-.95.2l-.6.1-1 .2q-.45.05-.85.15l-.4.1-3.2.6q-1.45.25-2.9.55-4.45.75-8.85 1.35l-3.5.5-5.9.7-3 .3q-1.05.05-2.1.2h-.35l-4 .3q-9.4.65-18.8.65h-.3q-9.3 0-18.6-.65-1.15-.1-2.2-.15-.85-.1-1.7-.15-.45-.05-.85-.1-2.65-.25-5.25-.5-2.95-.3-5.9-.7-1.7-.25-3.45-.45-2.9-.45-5.75-.9-2.4-.4-4.7-.8-.4-.05-.8-.15l-3.6-.7q-1.25-.25-2.4-.45-.55-.15-1.1-.25-.4-.1-.8-.15-.6-.15-1.15-.25-.9-.2-1.85-.4-.5-.15-1-.25-.3-.05-.55-.1-1.55-.35-3-.7L0 18.9q.35 0 .75.05.95.1 1.95.2l2.3.2q1.45.15 2.9.25 9.75.8 19.45 1.4 7.5.45 15.05.8 2.95.1 5.9.25 6.2.2 12.45.35l7.4.1q3.35.05 6.7.05h4.7q1.9-.05 3.8-.05 3.65-.05 7.3-.05.2-.05.4 0 3.85-.05 7.75-.15l5.6-.2q12.15-.4 24.3-1.15 2.25-.15 4.55-.3v-.1q.6-.05 1.25-.05 7-.5 14.1-1.15l1.2-.1q1.55-.15 3.05-.3z" id="LegSki019__Symbol_85_0_Layer0_0_FILL"/><path fill="#FF844A" d="M5.5 18.05q.6-.8.6-1.8v-.1q-.05-1.2-.9-2.05-.9-.9-2.15-.9t-2.15.9Q0 15 0 16.25q0 .75.3 1.35l2.3.2q1.45.15 2.9.25M7.2 5.8q1.25 0 2.15-.9.4-.4.65-.85.25-.6.25-1.3 0-1.25-.9-2.15-.4-.4-.85-.6L5.3 5.1q.8.7 1.9.7m14.85 8.5q.05-.3.05-.65 0-1.25-.9-2.15-.9-.9-2.15-.9t-2.15.9q-.9.9-.9 2.15 0 .35.1.65.15.85.8 1.5.9.9 2.15.9t2.15-.9q.65-.65.85-1.5m12.1-4.6q.65-.65.85-1.5.05-.3.05-.65 0-1.25-.9-2.15-.9-.9-2.15-.9t-2.15.9q-.9.9-.9 2.15 0 .35.1.65.15.85.8 1.5.9.9 2.15.9t2.15-.9m10.9 9.25q-.9-.9-2.15-.9t-2.15.9q-.55.55-.75 1.3 2.95.1 5.9.25-.2-.9-.85-1.55m6.6-13.65q-.45-.05-.85-.1-.85.9-.85 2.1 0 .5.15.9.2.7.75 1.25.9.9 2.15.9t2.15-.9q.55-.55.8-1.25.1-.4.1-.9 0-.95-.5-1.7-1.15-.1-2.2-.15-.85-.1-1.7-.15m11.4 11.9q0-1.1-.7-1.95l-.2-.2q-.9-.9-2.15-.9t-2.15.9q-.15.15-.25.3-.65.8-.65 1.85 0 1.25.9 2.15.9.9 2.15.9t2.15-.9q.9-.9.9-2.15m20.4-2.25q.1-.45.1-.9 0-1.25-.9-2.15-.9-.9-2.15-.9t-2.15.9q-.9.9-.9 2.15 0 .5.15 1 .2.6.75 1.15.9.9 2.15.9t2.15-.9q.55-.55.8-1.25m18.75 4.5q0-1.25-.9-2.15-.9-.9-2.15-.9t-2.15.9q-.9.9-.9 2.15 0 .7.3 1.3l5.6-.2q.2-.5.2-1.1m8.4-4.95q-.05.25-.05.5 0 1.25.9 2.15.9.9 2.15.9t2.15-.9q.9-.9.9-2.15 0-.3-.05-.6-.15-.85-.85-1.55-.9-.9-2.15-.9t-2.15.9q-.7.7-.85 1.65m-8.35-6l.3-.3q.6-.8.6-1.85 0-.3-.05-.55-.1-.55-.4-1l-3 .3q-1.05.05-2.1.2h-.35q-.1.2-.1.4-.1.3-.1.65 0 1.05.65 1.85.1.15.25.3.9.9 2.15.9t2.15-.9m24.05 10.9q2.25-.15 4.55-.3V19q.6-.05 1.25-.05-.25-.55-.7-1-.9-.9-2.15-.9t-2.15.9q-.65.65-.8 1.45m-.65-13.95q0-1.25-.9-2.15-.9-.9-2.15-.9t-2.15.9q-.9.9-.9 2.15 0 .3.05.65.2.85.85 1.5.4.4.85.6.6.3 1.3.3.7 0 1.35-.3.4-.2.8-.6.6-.6.85-1.4.05-.35.05-.75m14.9.35q-.9-.9-2.15-.9t-2.15.9q-.25.25-.45.6-.45.7-.45 1.55v.25q.1 1.1.9 1.9.9.9 2.15.9t2.15-.9q.8-.8.9-1.9v-.25q0-.8-.35-1.45-.25-.4-.55-.7m7.5 8.5q-.9.9-.9 2.15 0 .65.25 1.25 1.55-.15 3.05-.3.4-.05.75-.05l-2.3-3.65q-.2.1-.35.2-.25.15-.5.4z" id="LegSki019__Symbol_26_0_Layer0_0_FILL"/></defs><use xmlns:xlink="http://www.w3.org/1999/xlink" xlink:href="#LegSki019__Symbol_85_0_Layer0_0_FILL" transform="translate(115.65 307.25)" id="LegSki019__col1n"/><use xmlns:xlink="http://www.w3.org/1999/xlink" xlink:href="#LegSki019__Symbol_26_0_Layer0_0_FILL" transform="translate(118.05 308.8)" id="LegSki019__col2n"/></g></g><g transform=""><g transform=""><defs><path fill="#6EB800" d="M46.65 66.45l.1-.05q2.55-.6 3.35.8.4.7-.1 2.05-.5 1.35.4 2.95l.1.2q.15.2.3.35.55.35 1.2.55v-9.2q-1.15-.7-3.1-.35-2.05.45-3.25.75-.9.25-1.6.3H44q-1.2.15-2.05-.25-.35.05-.75-.2 1.55 2.55 3.9 2.4.6-.1 1.55-.3m-10.8 5.75q-.2-.9-.15-1.6v-.1q-.05-1.2.4-2 0-.3.25-.7-2.6 1.3-2.7 3.65 0 .6.15 1.55l.05.1q.35 2.65-1.1 3.3-.7.35-2.1-.3-1.25-.65-2.95.15-.05.05-.15.05-.25.15-.4.35-.6.65-.8 1.55-.1.65.05 1.85.15 1.15-.05 1.9-.05.15-.05.3-.1.35-.25.65-.05.15-.25.35h-.05q-.25.2-.7.45 1.7.3 3.35.6.35-.3.55-.6.6-.95.55-2.7 0-1.4.05-1.55l.05-.05q.45-.2 1.9.1l.1.05q1.65.5 2.9-.05 2.05-.95 1.8-3.95-.3-2.1-.45-3.35m-2.4-12.9q.6-1.05 1.4-1.5.2-.3.6-.45Q32.55 57 31.2 59q-.3.5-.7 1.35l-.05.15q-1.05 2.35-2.6 2.15-.8-.1-1.6-1.4-.75-1.15-2.6-1.4h-.2q-.25-.05-.55 0-.8.3-1.45.9-.45.5-.95 1.6-.5 1.1-1.1 1.65-.1.05-.15.15-.3.3-.55.45-.15.1-.4.15h-.05q-.5.1-1.3 0-1-.15-1.7-1.05-.3-.3-.5-.7-.05.15-.1.45-.2 1.7 1.2 2.75 1 .7 1.9.8 1.85.25 3-.25.95-.5 1.85-1.95.75-1.15.85-1.25l.05-.05q.5.05 1.65 1.2v.05q1.1 1.3 2.4 1.5 2.3.3 3.75-2.45.85-1.9 1.35-3 .4-.85.75-1.45l.05-.05M17.1 49.05l-.05-.1q-.45-1-1.1-1.6l-.9 4.8q.3 1.35 1.95 2.1l.2.1q.2.1.5.1.9-.1 1.7-.5.6-.35 1.4-1.3.8-.9 1.55-1.3.1-.05.2-.05.4-.2.65-.3.15-.05.45-.05h.05q.5.1 1.2.45.95.45 1.35 1.5.15.35.25.8.1-.15.25-.45.75-1.65-.35-3.05-.7-1-1.55-1.35-1.65-.8-2.85-.6-1.2.2-2.45 1.4-1.1.9-1.2.95l-.05.05q-.45-.2-1.2-1.6m-5.35-12.1q-.4-1.1-.3-2-.05-.3.05-.75-2 2.15-1.3 4.3.2.6.65 1.45l.1.1q.2.35.3.65h2.45q-.75-1.35-1.2-2.2-.45-.8-.65-1.45l-.1-.1M3.9 21.05q-.05-.9-.7-2h-.35q-1.5 3.2-2.8 6.65 0 .05-.05.1.75 0 1.55-.5 1.05-.6 1.5-1.4.9-1.6.85-2.85m21.75 2.4l.05.15q-.1 2.65-1.65 3.05-.8.2-2-.7-1.15-.8-2.9-.35-.1.05-.2.05-.25.1-.5.25-.65.6-1 1.4-.25.65-.25 1.85-.05 1.2-.4 1.9-.1.15-.1.25-.2.35-.35.65-.05.1-.25.2l-.05.05q-.5.25-1.25.45-1 .3-2-.25-.35-.2-.7-.45 0 .15 1.3.75t2.3 1.15q1 .5 1.8.35.75-.15 1.55-1.05.75-.8 1.05-2.55.2-1.35.3-1.45v-.1q.5-.1 1.95.45l.05.05q1.5.8 2.8.45 2.25-.6 2.5-3.65.1-2.05.15-3.35-.05-.9.1-1.55v-.15q.2-1.15.75-1.85.05-.35.4-.65-2.85.85-3.3 3.1-.1.6-.15 1.55M52 43.35q-.002.107-.05.25-.1.4-.3.8.15-.05.35-.15v-.9m-8.55-9.1q.4.7-.1 2.05-.5 1.35.4 2.95l.1.2q.15.2.3.35.75.5 1.7.65.65.1 1.8-.2 1.2-.25 1.95-.15.15.05.25.05.4.05.65.2.15 0 .4.2v.05q.35.3.75 1 .3.45.35.95v-4.4q-.45-.5-1-.75-.95-.55-2.7-.35-1.35.15-1.5.1h-.05q-.25-.45-.1-2l.05-.05q.35-1.7-.3-2.85-1.15-2-4.15-1.45-2.05.45-3.25.75-.9.25-1.6.3h-.05q-1.2.15-2.05-.25-.35.05-.75-.2 1.55 2.55 3.9 2.4.6-.1 1.55-.3l.1-.05q2.55-.6 3.35.8m-2.7-16.15q.15 0 .4.2v.05q.35.3.75 1 .55.9.3 2-.1.4-.3.8.2-.05.45-.2 1.5-.9 1.45-2.65-.05-1.2-.5-2-.9-1.6-2.05-2.15-.95-.55-2.7-.35-1.35.15-1.5.1H37q-.25-.45-.1-2h.05q-3.85-1.65-7.55-3.65-.05.05-.15.05-.9.25-1.6.3h-.05q-1.2.15-2.05-.25-.35.05-.75-.2 1.55 2.55 3.9 2.4.6-.1 1.55-.3l.1-.05q2.55-.6 3.35.8.4.7-.1 2.05-.5 1.35.4 2.95l.1.2q.15.2.3.35.75.5 1.7.65.65.1 1.8-.2 1.2-.25 1.95-.15.15.05.25.05.4.05.65.2m86.95 53.85q-.15.05-.35.25-1.3 1.2-.9 2.95.3 1.15.9 1.8 1.25 1.4 2.45 1.75 1.05.35 2.65-.25 1.35-.4 1.5-.4l.05.05q.3.35.45 1.9v.05q0 .8.2 1.5.55-.15 1.15-.3 1.3-.3 2.55-.55-.3-.2-.55-.45-.55-.6-.3-2.1.25-1.4-1-2.8l-.15-.15q-.15-.15-.4-.25-.85-.35-1.7-.3-.65.1-1.75.6-1.15.45-1.9.5-.15-.05-.25.05-.4 0-.7-.1-.1.05-.4-.1v-.05q-.45-.25-1-.85-.7-.8-.6-1.95-.05-.35.05-.8M112.6 85.5l2.3-.45q.2-.5.9-1.45l.05-.05q1.15-1.25 1.15-2.6 0-2.3-2.85-3.35-2-.6-3.2-.95-.9-.25-1.5-.55l-.1-.05q-1.1-.45-1.65-1.2-.3-.15-.5-.55.05 2.95 2.15 4 .55.25 1.45.55h.15q2.5.75 2.5 2.35 0 .8-1.15 1.75-.9.75-1.15 2.75.7-.1 1.45-.2m-11.25-15.3q1.6-1.65.35-4.4-1-1.8-1.6-2.9-.45-.85-.65-1.5l-.05-.1q-.45-1.1-.3-2-.1-.35.05-.75-2.1 2.1-1.35 4.35.25.6.65 1.45l.1.1q1.25 2.25.1 3.4-.45.45-1.65.5v3.25q.5-.2 1.6-.4h.1q1.65-.05 2.65-1m.25-16.65h.15q2.5.75 2.5 2.35 0 .8-1.15 1.75-1.1.9-1.1 2.75 0 .35.1.7.4.8 1.1 1.35.55.4 1.7.75t1.75.85q.1.1.2.15.3.25.5.5.1.1.2.35v.05q.15.5.15 1.3 0 1.05-.8 1.85-.25.3-.6.55.15.05.45.05 1.75 0 2.6-1.6.55-1.05.55-1.95 0-1.85-.65-2.9-.6-.95-2.2-1.65-1.4-.65-1.4-.7 0-.5.95-1.75l.05-.05q1.15-1.25 1.15-2.6 0-2.3-2.85-3.35-2-.6-3.2-.95-.9-.25-1.5-.55l-.1-.05q-1.1-.45-1.65-1.2-.3-.15-.5-.55.05 2.95 2.15 4 .55.25 1.45.55m3.95-29.7q-.7-.95-1.5-1.35-1.7-.8-2.9-.65Q100 22 98.7 23.1q-1.05.9-1.15.95l-.1.05q-.15-.1-.35-.3v3.9q.75-.05 1.45-.35.65-.35 1.45-1.25.8-.9 1.5-1.2.15-.05.25-.1.3-.15.65-.25.15-.05.4-.05l.05.05q.5.1 1.25.45.9.45 1.3 1.5.15.4.25.8.1-.15.25-.4.75-1.6-.35-3.05M109.7 16v.05q.15.5.15 1.3 0 1.05-.8 1.85-.25.3-.6.55.15.05.45.05 1.75 0 2.6-1.6.55-1.05.55-1.95 0-1.85-.65-2.9-.05-.05-.1-.15-1.65.7-3.3 1.3.45.2.8.5.1.1.2.15.3.25.5.5.1.1.2.35m29.1 21.4q-2.25-.6-4 1.85-.5.75-.85 1.4H142v-.35q-.4-.4-.95-1.1l-.05-.05q-.9-1.4-2.2-1.75m-12.6 6.5q-2 2.15-1.3 4.3.2.6.65 1.45l.1.1q1.2 2.3.1 3.4-.6.6-2.05.45-1.45-.15-2.75 1.15l-.15.15q-.15.15-.25.45-.1.4-.15.8 1.7 4.75 7.1 0 .55-.25.95-.65 1.65-1.65.35-4.35-1-1.85-1.6-2.95-.45-.8-.65-1.45l-.1-.1q-.4-1.1-.3-2-.05-.3.05-.75m-1.95-8.75q0-1.15.5-1.95-.05-.35.3-.65-2.75 1.2-2.85 3.5 0 .6.05 1.55l.05.15q.3 2.6-1.15 3.25-.75.3-2.05-.4-1.3-.65-3 .1-.1 0-.2.05-.2.1-.4.3-.55.65-.8 1.55-.15.65 0 1.85.1 1.2-.1 1.95-.05.1-.05.25-.1.35-.25.6-.1.15-.25.35l-.05.05q-.4.35-1.15.65-.95.4-2-.05-.4-.05-.75-.3 0 .15.15.4.7 1.65 2.45 1.8 1.25.05 2.05-.3 1.7-.7 2.4-1.75.65-.9.65-2.65 0-1.35.05-1.5l.05-.05q.45-.2 2 .2l.05.05q1.6.55 2.8 0 2.15-.9 2-3.95-.25-2.05-.45-3.3-.1-.95-.05-1.6v-.15m-2-5.2q.55-1.05.55-1.95 0-1.85-.65-2.9-.6-.95-2.2-1.65-1.25-.55-1.35-.65l-.05-.05q0-.5.95-1.75l.05-.05q1.15-1.25 1.2-2.95 0-1.15-1.05-1.85v.1q-2.9 3.7-4.6 5.45-.2.6-.2 1.4v.2q0 .25.1.5.4.8 1.1 1.35.55.4 1.7.75t1.75.85q.1.1.2.15.3.25.5.5.1.1.2.35v.05q.15.5.15 1.3 0 1.05-.8 1.85-.25.3-.6.55.15.05.45.05 1.75 0 2.6-1.6m7.35-5.9l-.45.15q-1.6.7-1.75 2.5-.1 1.2.25 2 .7 1.7 1.75 2.45.9.6 2.7.6 1.35 0 1.5.1h.05q.15.3 0 1.1l3.4-1q.5-.2-.2-1.85 0-.1-.05-.2-.1-.25-.3-.4-.75-.6-1.55-.8-.7-.2-1.9-.05-1.2.15-1.9-.1h-.3q-.35-.15-.65-.3-.1-.05-.25-.25l-.05-.05q-.35-.4-.65-1.15-.4-.95 0-2 .1-.35.35-.75m2.25-21.5q.1.1.2.15.3.25.5.5.1.1.2.35v.05q.15.5.15 1.3 0 1.05-.8 1.85-.25.3-.6.55.15.05.45.05 1.75 0 2.6-1.6.55-1.05.55-1.95 0-1.85-.65-2.9-.3-.5-.85-.9l-.25.2q-1.05 1.2-1.85 2.1.2.1.35.25m14.7 19.85q-.6-1.05-1.3-1.55-1.55-1.05-2.75-1.1-1.15-.05-2.65.9-1.15.7-1.25.75h-.1q-.4-.3-.9-1.75v-.1q-.4-1.65-1.5-2.4-1.9-1.3-4.35.45-1.65 1.35-2.65 2.15-.7.6-1.25.9l-.15.05q-.95.65-1.9.7-.3.2-.75.1 2.5 1.6 4.5.45.55-.3 1.3-.9l.05-.1q2.1-1.6 3.4-.7.65.45.8 1.95.1 1.4 1.65 2.45.05.05.15.1.2.15.45.2.9.1 1.75-.15.65-.25 1.6-1 .95-.75 1.7-.95.15-.05.2-.1.35-.1.75-.15.1 0 .35.05l.05.05q.5.15 1.2.6.85.6 1.05 1.7.1.35.1.8.1-.1.3-.35 1-1.45.15-3.05z" id="ShiSho054__Symbol_148_0_Layer0_0_FILL"/><path fill="#97FA00" d="M44.9 68.55q0-1.6-1.75-1.75-1.75-.1-1.75 1.7l.2.85q.45.9 1.55.9.85 0 1.35-.65.4-.5.4-1.05m2.5-18.45l.2.85q.45.9 1.55.9.85 0 1.35-.65.4-.55.4-1.05 0-1.6-1.75-1.75-1.75-.1-1.75 1.7M33.6 80.3l.2.85q.45.9 1.55.9.85 0 1.35-.65.4-.5.4-1.05 0-1.6-1.75-1.75-1.75-.1-1.75 1.7m-4.6-10l.2.85q.45.9 1.55.9.85 0 1.35-.65.4-.5.4-1.05 0-1.6-1.75-1.75Q29 68.5 29 70.3m-1.7-15.35q0-1.6-1.75-1.75-1.75-.1-1.75 1.7l.2.85q.45.9 1.55.9.85 0 1.35-.65.4-.55.4-1.05m9.85 6.7q.85 0 1.35-.65.4-.5.4-1.05 0-1.6-1.75-1.75-1.75-.1-1.75 1.7l.2.85q.45.9 1.55.9M22.55 37q-1.75-.1-1.75 1.7l.2.85q.45.9 1.55.9.85 0 1.35-.65.4-.55.4-1.05 0-1.6-1.75-1.75m-20.8-7.8Q0 29.1 0 30.9l.2.85q.45.9 1.55.9.85 0 1.35-.65.4-.55.4-1.05 0-1.6-1.75-1.75M9.3 26q.4-.55.4-1.05 0-1.6-1.75-1.75-1.75-.1-1.75 1.7l.2.85q.45.9 1.55.9.85 0 1.35-.65m4.9-24.3l.2.85q.45.9 1.55.9.85 0 1.35-.65.4-.5.4-1.05 0-1.6-1.75-1.75-1.75-.1-1.75 1.7m17 21.4l.2.85q.45.9 1.55.9.85 0 1.35-.65.4-.55.4-1.05 0-1.6-1.75-1.75-1.75-.1-1.75 1.7m-6.9-11.3q.4-.5.4-1.05 0-1.6-1.75-1.75-1.75-.1-1.75 1.7l.2.85q.45.9 1.55.9.85 0 1.35-.65m16.8 8.4q.4-.5.4-1.05 0-1.6-1.75-1.75Q38 17.3 38 19.1l.2.85q.45.9 1.55.9.85 0 1.35-.65m91.65 38.2q-1.75-.1-1.75 1.7l.2.85q.45.9 1.55.9.85 0 1.35-.65.4-.5.4-1.05 0-1.6-1.75-1.75M120.2 78.9l.2.85q.45.9 1.55.9.85 0 1.35-.65.4-.55.4-1.05 0-1.6-1.75-1.75-1.75-.1-1.75 1.7m-13.85-10.3q-1.75-.1-1.75 1.7l.2.85q.45.9 1.55.9.85 0 1.35-.65.4-.5.4-1.05 0-1.6-1.75-1.75M101.9 55q.4-.5.4-1.05 0-1.6-1.75-1.75-1.75-.1-1.75 1.7l.2.85q.45.9 1.55.9.85 0 1.35-.65m12.6-1.25q0-1.6-1.75-1.75-1.75-.1-1.75 1.7l.2.85q.45.9 1.55.9.85 0 1.35-.65.4-.55.4-1.05m2.3-21.45l.2.85q.45.9 1.55.9.85 0 1.35-.65.4-.5.4-1.05 0-1.6-1.75-1.75-1.75-.1-1.75 1.7m-8.3-16.15q0-1.6-1.75-1.75-1.75-.1-1.75 1.7l.2.85q.45.9 1.55.9.85 0 1.35-.65.4-.5.4-1.05m36.9 15.15l.2.85q.45.9 1.55.9.85 0 1.35-.65.4-.5.4-1.05 0-1.6-1.75-1.75-1.75-.1-1.75 1.7m-15.85 7.5q-1.75-.1-1.75 1.7l.2.85q.45.9 1.55.9.85 0 1.35-.65.4-.55.4-1.05 0-1.6-1.75-1.75m-3.75-24.9l.2.85q.45.9 1.55.9.85 0 1.35-.65.4-.5.4-1.05 0-1.6-1.75-1.75-1.75-.1-1.75 1.7m7.35 8.7q-1.75-.1-1.75 1.7l.2.85q.45.9 1.55.9.85 0 1.35-.65.4-.55.4-1.05 0-1.6-1.75-1.75z" id="ShiSho054__Symbol_149_0_Layer0_0_FILL"/><path fill="#416903" d="M.35 28.3l-.35.9 19.35 6.6-4.2 21.3v.2q0 .1.1.15v.05q.1.15.3.2.2.05.4-.05.15-.15.2-.35l4.05-20.6q.1-.3.15-.55.15-1-.9-1.4L.35 28.3m52.05-9.95q-.7-.15-1.35-.3-6.25 2.9-11.45 8.2-.05-.1-.15-.15l-1.3-1.3-.05-.05L18.95 2.7l-1.7-1.3L15.4 0l-.1.1 22.1 25.35v.05q.9.8 1.75 1.7.05.1.2.15h.1q.15 0 .3-.05 5.55-5.85 12.65-8.95m78.2 17.15q-.1.1-.05.3-.05.15.05.35l4.15 21.15q.05.2.2.35.2.1.4.05t.3-.2v-.05q.1-.05.1-.15v-.2l-4.15-21.3 19.3-6.6-.35-.9-19.1 6.45q-.65.25-.85.75m5-35.4l-.1-.1-1.85 1.4-1.7 1.3-19.15 22.05-.05.05q-.75.7-1.45 1.45-1-1-2-1.9-.75-.7-1.5-1.3-3.75-3.05-7.9-5-.7.15-1.35.3 2.45 1.1 4.75 2.55 1.45.85 2.8 1.9 2.65 2 5.05 4.5.15.05.3.05.2 0 .3-.15.85-.9 1.75-1.7v-.05L135.6.1z" id="ShiSho054__Symbol_150_0_Layer0_0_FILL"/><path fill="#4C7E00" d="M56.75 72.85q-.05 0-.1.05-3.3 2.3-5.1 5.45-.3.5-.6 1.15-.7-1.2-3.5-2.9-2.35-1.3-4.3-4.15.05 1 .1 2.7.3 4.15 2.05 7.15.15.15.15.3-.25 0-.6-.05-.65.05-1.8.5 5.15.65 8.1.95l.4.05q1.95.2 3.85.4.4 0 1.35.05v-1.6q-.1-.05-.2-.05t-.3.05l.5-.7v-9.35m-2.5 5.05q.6-.3.95-.05t.3.8q0 .75-.4 1.45-.5.8-1.05 1.1-.55.4-1 .2-.25-.2-.25-.9.05-.65.45-1.45.45-.7 1-1.15m-6.5 1.25q.6.4.95 1.2.45.7.55 1.35-.05.75-.4.85-.35.2-.95-.15-.55-.25-1-1-.4-.8-.4-1.45-.05-.7.35-.95.3-.15.9.15m-20.4-27.6q-.8.55-2.4 1.35-3.3 2.3-5.1 5.45-.3.5-.6 1.15-.4-.65-1.45-1.5l-.65 2.6q.3.55.4 1.1-.05.75-.4.85-.2.15-.55.05l-.8 3.1q-.55 2.1-1.05 4.2l-.9 3.6-.95 3.6v.25l-.05.05h.2q.25.1.5.15H13.7q.3.05.6.15 3.3-2.25 5-5.3.05.05.15.2.15.35.35.65 1.8 3.1 5.2 5.35 1.55.9 2.35 1.55-1.45-3.15-1.5-5.9.05-3.45-.65-4.6-.15-.3-.3-.5.15 0 .25.05 3.5 0 7.25-1.8 1.45-.8 2.4-1.35-3.4-.2-5.75-1.6-2.65-1.35-3.95-1.55-.15-.05-.25-.05t-.3.05q.35-.45.65-1 .6-1.1.65-4.6.1-2.85 1.5-5.75m-3.55 7.1q0 .75-.4 1.45-.5.8-1.05 1.1-.55.4-1 .2-.25-.2-.25-.9.05-.65.45-1.45.45-.7 1-1.15.6-.3.95-.05t.3.8m2.75 6.85q.65.35.65.75 0 .45-.65.75-.55.35-1.4.3-.95.05-1.45-.3-.65-.3-.7-.75 0-.4.65-.7.6-.35 1.45-.3.95-.05 1.45.25m-5.65 5.3q-.05-.7.35-.9.35-.2.9.1.55.35 1 1.2.45.7.45 1.4t-.4.9q-.35.15-.8-.15-.65-.45-1.1-1.15-.35-.8-.4-1.4m-3.15-1.5q.3.2.3.95 0 .65-.5 1.4-.35.75-.95 1.1-.55.35-.9.05-.45-.2-.3-.8-.1-.65.35-1.35.4-.8 1.1-1.15.5-.4.9-.2m-5.3-35.7q.85-1.4 1.4-2.35-3.1 1.5-5.75 1.5-3.05.15-4.25.65-.15.05-.25.05-.1.1-.2.15.05-.55.05-1.1 0-1.3-1.75-4.4-.25-.5-.5-1.05L.8 30.7q.15.5.15 1.1 0 .9-.35 1.5-.05.15-.15.3L0 38l8.3-.05q2.3-1.7 4.15-4.35M3.9 36.35q.4-.55 1.15-1 .75-.45 1.35-.45.75-.05.95.35.2.35-.15.95-.35.55-1.1 1-.85.45-1.45.4-.65.1-.9-.35-.2-.3.15-.9m24-33.55q-.35-.2-.7-.45-2.25 1.1-4.3 1.3-3.05.4-4.2 1-.15.05-.25.1-.05.1-.15.2-.05-.55-.05-1.15-.1-1.1-1.75-3.55l-1.2 1.8q.35.55.4 1.35.05.85-.2 1.5t-.65.7q-.4 0-.8-.55-.15-.25-.25-.6-.25.35-.45.75-.8 1.35-1.55 2.8l.05.05q.4.6.2.95t-.85.45q-.1 0-.25.05-1.1 2-2.1 4.15-.5.95-.95 1.95-.85 1.85-1.65 3.8 3.4-.8 6-2.6.45-.35.9-.8.25 1.35 2.05 4.1 1.6 2.25 2.1 5.6.55-1.05 1.15-2.6 1.5-3.85 1.1-7.3.05 0 .2.1.35.1.7.25 3.25 1.5 7.3 1.35 1.8-.2 2.8-.1-3.05-1.75-4.6-3.9-2.05-2.85-3.15-3.4-.4-.15-.6-.2.05-.1.2-.15 2.85-2.05 4.85-5.7.35-.65.65-1.25m-5.55 3.4q.25.35-.05 1-.25.55-1 1.05-.7.55-1.4.55-.6.15-.95-.2-.2-.3.1-.95.3-.6 1.05-1.1.7-.5 1.3-.6.7-.1.95.25m.25 8.55q-.75 0-1.55-.3-.8-.45-1.2-.95-.4-.5-.2-.9.15-.4.85-.4.6-.05 1.5.35.75.35 1.15.85.35.55.2 1-.2.3-.75.35m-13.05 1.2q-.65.1-.95-.25-.25-.3.05-.9.35-.65 1.05-1.1.7-.5 1.35-.6.7-.15.9.2.25.35-.1.95-.25.65-.95 1.1-.75.55-1.35.6m6.95-1.8q.35-.05.7.55.45.55.45 1.45.15.8-.1 1.4-.3.7-.75.65-.45.05-.65-.5-.5-.45-.55-1.3-.15-.85.25-1.55.15-.65.65-.7M42.9 35.5h-.25q-.1.05-.25.1.2-.5.35-1.05.35-1.25-.55-4.65-.65-2.75-.05-5.95-.65.75-1.95 1.95-2.6 3.05-3.55 6.55-.15.6-.25 1.25-1-.95-4.15-1.85-2.6-.7-5.2-2.9.3.95.8 2.6 1.35 3.9 3.85 6.35.15.1.2.25-.25.05-.6.1-1.2.4-3.75 2.75-1.9 1.9-5.1 3.1 1 .25 2.7.65 4 .75 7.45-.15.55-.15 1.15-.4-.25 1.3.5 4.5.7 2.7 0 6 .85-.8 2-2.05 2.7-3.05 3.55-6.45l.15.15q.3.25.55.5 2.55 2.55 6.4 3.85 1.7.45 2.65.85-2.25-2.65-2.95-5.25-.9-3.4-1.8-4.3-.3-.25-.45-.4.1-.05.25-.05 3.4-.9 6.55-3.6 1.2-1.15 1.95-1.9-3.35.65-5.95-.05-2.95-.65-4.25-.5m-2.3-3.75q.15.7-.05 1.5-.25.85-.75 1.35-.4.5-.85.4-.35-.1-.55-.8-.1-.6.1-1.5.25-.8.7-1.35.45-.45.85-.3.45.1.55.7m4.8 7.35q-.45.45-1.3.65-.9.25-1.5.05-.65-.1-.8-.55-.1-.35.4-.85.5-.45 1.35-.65.85-.25 1.45-.1.7.15.8.55.1.45-.4.9M41 43.3q.3-.35.95-.15.6.2 1.25.85.6.6.8 1.25.15.65-.15 1-.3.2-.85.05-.7-.25-1.3-.85-.6-.65-.8-1.25-.2-.65.1-.9m-6.55-8.2q.6.55.85 1.2.15.7-.15.95t-.95.1q-.6-.1-1.2-.75-.65-.65-.8-1.3-.2-.65.1-.95.25-.3.9-.15.7.25 1.25.9m-4.1 7.75q-.65-.1-.8-.55-.1-.35.4-.85.5-.45 1.35-.65.85-.2 1.45-.1.7.15.8.5.1.45-.4.9-.5.5-1.3.7-.9.2-1.5.05m6.3 1.15q.4-.5.85-.4.35.1.5.8.2.65-.1 1.5-.15.8-.6 1.3-.5.5-.9.3-.45-.1-.45-.7-.3-.6-.05-1.4.2-.85.75-1.4M56 19.6q-.05-.35.55-.7l.2-.1v-2.1q-1 .4-2.4 1.15-2.3 1.35-5.7 1.65.9.55 2.45 1.3 2.85 1.4 5.65 1.7v-2.05q-.1-.05-.15-.1-.6-.25-.6-.75m52.9 43.1q-.85.45-2.5 1.15-2.7 1.45-4.65 3.55v3.2q.2-.5.55-1.1.55-.65 1.15-1 .6-.2.9.05.4.25.25.9-.1.7-.6 1.35-.5.65-1.2 1-.5.3-.9 0-.1-.05-.15-.15v8.9q.45.45.8 1.25.35.75.3 1.4-.15.65-.5.85-.3.1-.6-.1v.4l-.15.1h.15q1.6-.15 3.25-.25.2-2.7-.2-3.75-.2-.3-.3-.5.1 0 .25.05 3.5.4 7.45-.95 1.5-.6 2.5-1.05-3.35-.65-5.55-2.25-2.5-1.65-3.75-2.05-.15-.05-.2-.05h-.3q.4-.4.7-.85.8-1.05 1.2-4.55.4-2.8 2.1-5.55m-2.35 13.8q.6.4.55.85-.05.4-.7.65-.6.25-1.45.15-.9-.1-1.4-.55-.6-.3-.55-.8.05-.3.65-.65.65-.2 1.5-.1.9.1 1.4.45m14.55-19.75q-1.25-.25-4.65.5-2.6.7-6 .15.8.7 2.05 1.9 3.05 2.65 6.5 3.6.6.15 1.2.25-.85.95-1.8 4.15-.75 2.65-3 5.2 1.15-.3 2.75-.8 3.85-1.3 6.3-3.85.05.1.1.25l.2.7q.9 3.5 3.6 6.5 1.25 1.25 1.9 2.1-.65-3.45.05-6.05.9-3.4.6-4.6-.15-.4-.2-.55.1 0 .25.05 3.4.9 7.45.15 1.6-.4 2.65-.65-3.25-1.1-5.15-3-2.2-2.1-3.4-2.6-.15-.05-.25-.1-.05 0-.25-.05.4-.35.85-.7.9-.95 1.8-4.35.85-2.7 3-5.15-1 .3-2.7.7-3.75 1.35-6.35 3.9-.4.45-.85.95-.35-1.35-2.65-3.65-1.9-1.9-3.05-5.1-.25.95-.6 2.65-.8 4 .15 7.4.05.15.05.3-.25-.05-.55-.2m-2.8 2.1q.65-.15 1.5.1.8.25 1.3.65.55.5.45.85-.15.45-.8.55-.7.2-1.5-.05-.85-.25-1.3-.7-.5-.4-.45-.85.15-.35.8-.55m2.5 7.65q.05-.7.65-1.3.65-.6 1.35-.8.6-.2.95.05.25.3.05.95-.15.65-.85 1.25-.55.65-1.15.85-.7.15-.95-.2-.35-.3-.05-.8m11.45-11.6q.35.3.15.85-.25.7-.8 1.3-.65.6-1.35.75-.6.25-.95-.05-.25-.25-.05-1 .2-.55.8-1.25.65-.5 1.35-.8.55-.15.85.2m-7.5-.75q.5.6.6 1.45.3.8.15 1.45-.2.7-.6.75-.4.1-.85-.4-.45-.4-.7-1.25-.2-.85-.05-1.5.2-.7.6-.8.35-.1.85.3m3.1 12.15q.45.5.65 1.35.2.85.1 1.5-.25.65-.65.8-.35.05-.8-.4-.45-.55-.65-1.4-.25-.85-.1-1.45.15-.7.55-.75.45-.15.9.35m3.55-1.85q-.9-.25-1.35-.75-.5-.35-.35-.85.05-.35.7-.55.7-.15 1.55.15.85.2 1.3.6.5.5.4.9-.1.45-.8.55-.6.2-1.45-.05M120.55 11.8q.05-1.7-.2-3.25-1.8.85-3.6 1.65 2.1 1.6 3.55 4.45.15-1.15.25-2.85m32.55 23.25l-.4 1.2q-.85-1.05-3.85-2.4-2.45-1.1-4.75-3.6.2 1 .45 2.65.55 2.85 1.75 5.05h2.2q-.15-.4-.2-.75-.1-.6.25-.85.3-.3.9-.05.7.35 1.15 1.05.25.3.4.6h7.55v-.1l-1-8.75q-3 2.7-4.45 5.95m1.85.5q.35-.75.85-1.25.55-.35.9-.15.45.15.45.75.05.75-.25 1.5-.35.8-.95 1.25-.45.4-.9.25-.35-.15-.45-.85 0-.6.35-1.5m-33.2 4.95q1.6-.4 2.65-.65-3.25-1.1-5.15-3-2.2-2.1-3.4-2.6-.15-.05-.25-.1-.05 0-.25-.05.4-.35.85-.7.9-.95 1.8-4.35.85-2.7 3-5.15-1 .3-2.7.7-3.75 1.35-6.35 3.9-.4.45-.85.95-.35-1.35-2.65-3.65-1.9-1.9-3.05-5.1-.25.95-.6 2.65-.8 4 .15 7.4.05.15.05.3-.25-.05-.55-.2-.85-.15-2.7.15v1.95q.6-.15 1.4.1.8.25 1.3.65.55.5.45.85-.15.45-.8.55-.7.2-1.5-.05-.5-.15-.85-.35v2.15q.3.05.6.15.6.15 1.2.25-.85.95-1.8 4.15v4.35q3.7-1.35 6.05-3.8.05.1.1.25l.2.7q.9 3.5 3.6 6.5 1.25 1.25 1.9 2.1-.65-3.45.05-6.05.9-3.4.6-4.6-.15-.4-.2-.55.1 0 .25.05 3.4.9 7.45.15m-8.35-10.9q.65-.5 1.35-.8.55-.15.85.2.35.3.15.85-.25.7-.8 1.3-.65.6-1.35.75-.6.25-.95-.05-.25-.25-.05-1 .2-.55.8-1.25m-.35 7.35q.05-.35.7-.55.7-.15 1.55.15.85.2 1.3.6.5.5.4.9-.1.45-.8.55-.6.2-1.45-.05-.9-.25-1.35-.75-.5-.35-.35-.85m-4.95-8.7q.5.6.6 1.45.3.8.15 1.45-.2.7-.6.75-.4.1-.85-.4-.45-.4-.7-1.25-.2-.85-.05-1.5.2-.7.6-.8.35-.1.85.3m1.65 12.55q.15-.7.55-.75.45-.15.9.35t.65 1.35q.2.85.1 1.5-.25.65-.65.8-.35.05-.8-.4-.45-.55-.65-1.4-.25-.85-.1-1.45m-2.65-2.25q.25.3.05.95-.15.65-.85 1.25-.55.65-1.15.85-.7.15-.95-.2-.35-.3-.05-.8.05-.7.65-1.3.65-.6 1.35-.8.6-.2.95.05m30.4 6.1v-.05h-.1q.052.002.1.05M141.85 0q.15 2.5 1.05 4.6.1.15.1.35-.25-.1-.6-.2-1.25-.05-4.5 1.1-2.5 1-5.9.85.8.65 2.2 1.65 3.4 2.25 6.95 2.75.55.1 1.2.1-.75 1.1-1.3 4.35-.4 2.8-2.35 5.5 1.1-.35 2.65-1.05 3.7-1.8 5.75-4.6.05.1.1.25.2.3.3.65 1.35 3.35 4.4 6.05 1.4 1.05 2.1 1.75-.2-.65-.35-1.3-.25-.7-1.1-2.8l-1.4-3.2q-.15.15-.3.25-.4.05-.85-.3-.55-.5-.85-1.3-.3-.8-.2-1.45.05-.7.4-.8h.1q-.55-1.15-1.1-2.25l-.25-.5q-.15-.3-.3-.55-.9-1.6-1.05-1.9-1-1.85-2.1-3.6-.6-.95-1.15-1.9-.85-1.25-1.65-2.5m3.2 12.15q.6-.3.95-.05.3.25.15.95-.05.7-.65 1.35-.45.65-1.1.95-.65.25-.9-.05-.4-.3-.2-.85 0-.65.55-1.3.5-.7 1.2-1M143.3 8.4q-.05.4-.7.6-.65.3-1.45.15-.95-.15-1.45-.5-.55-.35-.45-.85 0-.3.65-.6.65-.25 1.5-.1.85.2 1.4.5.55.4.5.8z" id="ShiSho054__Symbol_151_0_Layer0_0_FILL"/><path d="M164.45 302.3q-.45 0-.85.25-.3.1-.55.35-.65.75-.65 1.65 0 .95.65 1.6.25.25.6.45.15.1.35.15.3.1.7.1.9 0 1.55-.7.3-.26.45-.6.3-.429.3-1 0-.9-.75-1.65l-.05-.05q-.63-.6-1.5-.6-.15 0-.25.05m1.8-14.8l-.1-.1q-.598-.55-1.45-.55-.6 0-1.1.3-.3.1-.55.35-.65.75-.65 1.65 0 .95.65 1.6.4.4.95.6.3.1.7.1.866 0 1.5-.65.025-.023.05-.05.75-.65.75-1.6 0-.9-.75-1.65m-1.3-15.45q-.1-.05-.25-.05-.95 0-1.65.65-.65.75-.65 1.65 0 .95.65 1.6.1.1.2.15.6.55 1.45.55.552 0 1-.3.298-.129.55-.4.75-.65.75-1.6 0-.9-.75-1.65-.545-.545-1.3-.6m1.3-15.9q-.65-.65-1.55-.65-.95 0-1.65.65-.6.7-.65 1.55v.1q0 .95.65 1.6.7.7 1.65.7.9 0 1.55-.7.75-.65.75-1.6 0-.9-.75-1.65z" id="ShiSho054__Layer3_0_FILL"/><g id="ShiSho054__Symbol_147_0_Layer0_0_FILL" fill="#86DE00"><path d="M56.8 18.45l-.5-.1q-.15-.05-.3-.05-16.45-3.9-30.55-13.65L23.9 3.5q-1.45-1.05-2.8-2.1L19.25 0q-.1.05-.15.15-3.05 4.1-5.7 8.55-.85 1.45-1.65 2.9-1.5 2.7-2.85 5.55-.5.95-.95 1.95-1.65 3.55-3.1 7.35l-.7 1.9q-.05.05-.05.1-.15.35-.3.75l-2.3-.85L0 41.45h22.05L19 57.1l-3.15 12.1q-.55 2.1-1.05 4.2l-.9 3.6-.95 3.6v.25l-.05.05h.2q.25.1.5.15H13.75q2.05.5 4.15.95 18.8 4.25 37.55 5.95.4 0 1.35.05V18.45M15.15 34.3h-.1l-.05-.05.15.05m1.25.45l-.7-.25.75.25h-.05M146.8 11.5q-1-1.85-2.1-3.6-.6-.95-1.15-1.9-2-3.1-4.2-6l-1.85 1.4q-1.35 1.05-2.8 2.1l-1.55 1.15q-14.4 9.95-31.35 13.85v69.35l-.15.1h.15q20.1-1.65 38.8-5.95 2.1-.45 4.15-.95H144.9q.25-.05.5-.15h.2l-.05-.2v-.05l.05.05v-.1h-.05l-9.65-39.15h22.7v-.1l-1.5-13-2.3.85q-.15-.4-.3-.75 0-.05-.05-.1l-.7-1.9v.05q-.05-.1-.05-.2-.25-.7-1.1-2.8-.9-2.2-1.95-4.4-1.8-3.95-3.85-7.6m-16.1-2.9v-.05l.1-.1-.1.15m11 25.65l-.05.05h-.1l.15-.05m-1.45.5l.75-.25-.7.25h-.05z"/><path d="M130.7 8.55v.05l.1-.15-.1.1z"/></g></defs><use xmlns:xlink="http://www.w3.org/1999/xlink" xlink:href="#ShiSho054__Symbol_147_0_Layer0_0_FILL" transform="translate(113.2 228.6)" id="ShiSho054__col1n"/><use xmlns:xlink="http://www.w3.org/1999/xlink" xlink:href="#ShiSho054__Symbol_148_0_Layer0_0_FILL" transform="translate(118 229.35)" id="ShiSho054__col1d"/><use xmlns:xlink="http://www.w3.org/1999/xlink" xlink:href="#ShiSho054__Symbol_149_0_Layer0_0_FILL" transform="translate(117.25 231.1)" id="ShiSho054__col1l"/><use xmlns:xlink="http://www.w3.org/1999/xlink" xlink:href="#ShiSho054__Symbol_150_0_Layer0_0_FILL" transform="translate(117.05 228.6)" id="ShiSho054__col1s"/><use xmlns:xlink="http://www.w3.org/1999/xlink" xlink:href="#ShiSho054__Symbol_151_0_Layer0_0_FILL" transform="translate(113.25 232.1)" id="ShiSho054__col2n"/><use xmlns:xlink="http://www.w3.org/1999/xlink" xlink:href="#ShiSho054__Layer3_0_FILL"/></g></g><g transform=""><g transform=""><defs><path d="M205.3 217.2q-.333-.093-.75-.15-1.07-.287-2.35-.65-.754-.189-1.45-.35-4.037-.851-8.2-.85-4.089.014-8.3.85-.646.161-1.45.35-1.23.363-2.3.65-.417.057-.8.15h.1q-2.438.595-3.6.65h-.2q-4.299-.003-6.95-.4h.2q-.265-.025-.65-.1-.18.172-.25.4-.028.234.05.45.922 1.86 2.2 4.15.69 1.26 1.5 2.65.02.05.05.1.671 1.162 2.5 3l.9.9q1.198 1.09 2.25 1.85h.05q1.086.85 2.4 1.5 2.38 1.203 5.5 2.1.225.075.4.1.376.117.7.2 2.887.83 5.7.8 2.837.037 5.6-.8.376-.083.7-.2.225-.025.4-.1h.05q3.12-.897 5.45-2.1 1.364-.65 2.45-1.5 1.102-.76 2.25-1.85h.05l.9-.9q1.829-1.838 2.5-3 .03-.05.05-.1.81-1.39 1.5-2.65 1.277-2.29 2.15-4.15.128-.216.05-.45-.02-.228-.2-.4l-.2.05q-2.238.447-7.2.45h-.2q-1.136-.05-3.6-.65h.05z" id="FacMou023__Layer13_0_FILL"/><path fill="#FFCC00" d="M5.7 5.6V.05H4.05Q3.5-.05.5.25l-.5.1v4.9q3.35.55 5.7.35M12.15.35Q11.9.3 11.7.25q-3-.3-3.5-.2H6.5V5.6q3.05.25 5.65-.35V.35z" id="FacMou023__Symbol_113_0_Layer0_0_FILL"/><path fill="#FFFFFF" d="M4.4 13.95q2 1 4.6 1.8l.05-4q-3.05.2-4.65.65v1.55M9.8 16q.05 0 .15.05 3.15.8 5.45.9h.1l.05.05v-5.25l-5.7-.1L9.8 16M3.6 1.4h-.1q-2.25.5-3.5.65v1.1l3.6.65V1.4m5.45 3.25V0Q8 .2 6.6.6q-1.2.3-2.2.6v2.75l4.65.7m12.9 11.4Q22 16 22.1 16l-.1-4.35-5.65.1V17h.1q2.3-.15 5.5-.95m5.5-3.8q-2.5-.6-4.6-.55l.05 4.05q2.55-.8 4.55-1.8v-1.7m0-11.05q-1-.3-2.15-.6-1.45-.4-2.5-.6v4.65l4.65-.7V1.2m4.4 1.9V2.05q-1.25-.15-3.5-.65h-.1v2.4l3.6-.7z" id="FacMou023__Symbol_48_0_Layer0_0_FILL"/></defs><use xmlns:xlink="http://www.w3.org/1999/xlink" xlink:href="#FacMou023__Layer13_0_FILL"/><use xmlns:xlink="http://www.w3.org/1999/xlink" xlink:href="#FacMou023__Symbol_113_0_Layer0_0_FILL" transform="translate(186.45 216.75)" id="FacMou023__col2n"/><use xmlns:xlink="http://www.w3.org/1999/xlink" xlink:href="#FacMou023__Symbol_48_0_Layer0_0_FILL" transform="translate(176.6 217.2)" id="FacMou023__col1n"/></g></g><g transform=""><g transform=""><defs><path fill="#FFFFFF" d="M105.35 24.4q-1.2-4.7-3.8-8.85-1.7-2.75-4.05-5.3-.15-.2-.3-.35Q88.85.9 77.85.1 66.8-.75 59.55 7q-5.35 5.75-6.3 13.7-1-7.95-6.35-13.7Q39.65-.75 28.65.1 17.6.9 9.25 9.9q-.3.3-.55.65l-.3.3q-5 5.65-7 12.4Q.35 26.8.1 30.65q-.2 2.7.05 5.15.25 3.15 1.25 6 1.65 4.65 5.15 8.4 7.25 7.75 18.25 6.9 11.05-.8 19.4-9.75 7.8-8.4 9.05-19.25 1.2 10.85 9 19.25 8.35 8.95 19.4 9.75 11 .85 18.25-6.9 3.75-4 5.35-9.15.75-2.4 1-5.05.3-2.6.1-5.4-.2-3.2-1-6.2z" id="FacEye001__Symbol_1_0_Layer0_0_FILL"/><path fill="#000000" d="M3.4 6.65Q4.8 6.6 5.8 5.6q1-.95 1-2.35 0-1.35-1-2.35-1-.95-2.4-.9Q1.95-.05 1 .9q-1 1-1 2.35 0 1.4 1 2.35.95 1 2.4 1.05m32.05 0q1.4-.05 2.35-1.05 1-.95 1-2.35 0-1.35-1-2.35-.95-.95-2.35-.9Q34-.05 33 .9q-1 1-1 2.35 0 1.4 1 2.35 1 1 2.45 1.05z" id="FacEye001__Symbol_4_0_Layer0_0_FILL"/></defs><g id="FacEye001__col1n" transform="translate(139.3 136.2)"><use xmlns:xlink="http://www.w3.org/1999/xlink" xlink:href="#FacEye001__Symbol_1_0_Layer0_0_FILL" id="FacEye001__col1n_FL"/></g><g id="FacEye001__col2n" transform="translate(173 163.45)"><use xmlns:xlink="http://www.w3.org/1999/xlink" xlink:href="#FacEye001__Symbol_4_0_Layer0_0_FILL" id="FacEye001__col2n_FL"/></g></g></g><g transform=""><g transform=""><defs><path fill="#8FAFCD" d="M2.15 2.1q.35-.35.35-.85t-.35-.9Q1.75 0 1.25 0T.4.35q-.4.4-.4.9t.4.85q.35.4.85.4t.9-.4z" id="AccGla004__Symbol_95_0_Layer0_0_FILL"/><path fill="#C1D2E2" fill-opacity="0.502" d="M129.15 24.75q.1-1.95.1-4.3.05-2.8-.1-6.15-.2-6.95-.3-5.15-.05-9.5-19.9-9.15-17.65.3-32.5 4.7-1.85.55-2.6.85-.65.2-2.65 1.25-1.25.65-2.2 2.35h-8.8q-.95-1.55-2.15-2.2-2-1.05-2.65-1.25-.75-.3-2.6-.85Q37.95.45 20.3.15.45-.2.4 9.3.3 7.5.1 14.45-.05 17.8 0 20.6q0 2.35.1 4.3 1 10.05 9.7 13.15 2.15.5 4.15 1 25.9 6.05 37.4.2Q61.55 34 62.15 17.2v-1.1-.15h4.95v1.1q.6 16.8 10.8 22.05 11.5 5.85 37.4-.2 2.05-.5 4.15-1 8.7-3.1 9.7-13.15z" id="AccGla004__Symbol_74_0_Layer0_0_FILL"/><path fill="#411F00" d="M192.2 7.7l-.05-5.55L161.85.9Q152.7-.25 136.6.05q-16.1.3-26.6 3.5-3.7 1.1-6.55 1.8-3.6 1.35-7.35 1.35-3.75 0-7.35-1.35-2.85-.7-6.55-1.8Q71.7.35 55.6.05 39.5-.25 30.35.9L.05 2.15 0 7.7q16.15 1.25 23.45 2.65 5.15 1.3 5.85 6.5.05 1 .1 2.05.2 3.15.7 6.35 1.25 11.45 9.5 14.55.85.3 1.65.55Q62.8 45.6 75.8 43.5q1.15-.2 2.15-.5 9.35-2.85 12.85-9.3l.25-.45q.1-.3.25-.6 1.75-3.85 3.05-9.3.25-1.1.5-2.25l-.1.3q.25-1.9 1.35-2.1 1.1.2 1.35 2.1l-.1-.3q.25 1.15.5 2.25 1.3 5.45 3.05 9.3.15.3.25.6l.25.45q3.5 6.45 12.85 9.3 1 .3 2.15.5 13 2.1 34.55-3.15.8-.25 1.65-.55 8.25-3.1 9.5-14.55.5-3.2.7-6.35.05-1.05.1-2.05.7-5.2 5.85-6.5 7.3-1.4 23.45-2.65m-42.3 30.55q-2 .5-3.9.95-24.55 5.8-35.45.2-9.65-5-10.2-21.05V17.3q0-1.6 1-4.65 1.05-3.1 2.85-4.05 1.9-1 2.55-1.2.7-.3 2.45-.8 14.05-4.2 30.75-4.5 18.8-.35 18.85 8.75.1-1.75.3 4.9.15 3.2.1 5.85 0 2.25-.1 4.1-.95 9.6-9.2 12.55M83 6.6q1.75.5 2.45.8.65.2 2.55 1.2 1.8.95 2.85 4.05 1 3.05 1 4.65v1.05Q91.3 34.4 81.65 39.4q-10.9 5.6-35.45-.2-1.9-.45-3.9-.95-8.25-2.95-9.2-12.55-.1-1.85-.1-4.1-.05-2.65.1-5.85.2-6.65.3-4.9.05-9.1 18.85-8.75 16.7.3 30.75 4.5z" id="AccGla004__Symbol_26_0_Layer0_0_FILL"/></defs><use xmlns:xlink="http://www.w3.org/1999/xlink" xlink:href="#AccGla004__Symbol_95_0_Layer0_0_FILL" transform="translate(191.3 159.75)" id="AccGla004__col2n"/><use xmlns:xlink="http://www.w3.org/1999/xlink" xlink:href="#AccGla004__Symbol_74_0_Layer0_0_FILL" transform="translate(127.9 146.75)" id="AccGla004__col2l"/><use xmlns:xlink="http://www.w3.org/1999/xlink" xlink:href="#AccGla004__Symbol_26_0_Layer0_0_FILL" transform="translate(96.4 145.9)" id="AccGla004__col1n"/></g></g><g transform="translate(0 0)"><g transform=""><defs><path fill="#434343" d="M244.05 93.55q-.15-.3-.3-.55-14.2-24.1-22.3-42.45-4.7-11.45-6.3-13.2l-.4-.4q-.2-.25-.35-.5Q200.3 16.1 186.2 8.5q-.15-.1-.25-.15-27.6-16.7-58.05 0-2.85 1.6-5.7 3.55-.75.5-1.55 1l-2.45 1.6q-.3.2-.55.4l-.2.2q-4.25 3.2-7.1 6.75-7.05-8.3-12.9-9.25-.5-.1-.95-.15-.55-.1-1.1-.1Q80.25 8.5 65.35 11.3 47.6 14 42.5 32.25l-.1.1Q34.1 76.5 0 112.5q.2-.2.4-.3l-.3.3q1.85-1.45 3.65-2.65 1.8-1.15 6.1-3.8 4.3-2.7 13.95-10.3-4.75 12.8-12.05 22.8-4.6 6.2-6.2 8.15 3.6-.15 8.05-2.2 4.95-2.3 6.85-3.4 22.7-14.65 38.8-29.3.95-1 1.85-2.05.25-.3.55-.6-.35 1.5-.65 2.7l-.4.9-.05.1q-.4 1.2-.65 1.65l-.2.2q.45-.9.85-1.85-.4.9-.85 1.8-1.05 2.2-2.2 4.35l-.15-.05q-6.7 13-16.2 21.25-9.45 8.2-17.6 13-8.2 4.75-16.7 8.25 10.8-2.4 20.7-6.6 7.9-3.35 15.35-7.85 16.25-10 25.75-26.05 2.45-4.15 4.55-8.55-8.95 31.65-21 48.95l-4.95 6.15q23.15-23 35.35-50.3 3.75-8.4 6.7-15.35 5.15-12.2 5.5-26.25 16.2-.1 19.55.9 3.35 1 5.2 1.8 1.85.75 2.8 1.3.05.05.15.1.25.2.55.35 2.2 1.25 4 .3 4.15-1.5 7.3-2.9 13.2-4.5 37.25-1.5 11.75 18.3 23.55 56.1.2 1.1.45 2.2.2 1.2.45 2.4l.2 1.2.2 1.5v-.65q.05.3.1.65 0-.8.05-1.5h-.1v-.05q.5-14.45-.05-26.6l-.1-1.4q-.05-.45-.05-.8l-.1-2.2q-.05-.45-.05-.85v-.45l-.5-8.55h.05l.1-.1q-.05.053-.05.1.05-.05.1-.15h.05l-.05-.8q.2-1.25.25-2.45 4.55 12.7 8.3 33.1v-.05q.15.75.3 1.55 1.3 3.6 2.85 9.95.4 1.45.45 1.75 0 .15.05.3.25 1 .35 2.45 1.3 8.55 2.3 14 0 .1.05.2v.2q5.85 31.9 1.15-47 .1-2.2.6-4.25.1-.6.25-1.2.1-1.9.45-3.45l1.15 5.95q.1.45.2 1 1.25 6.25 2.55 10.4 4.15 13.3 13.05 43.15 0 .05.05.15l.1-.2v-.1h.1v-.05q.35-.55.8-1.2l.6-.8q7.65-22.85 4.7-40.75 9.7 17.9 7.3 41.35 11.05-27.1.25-46.45M196 84.15l-.05-.5q-.05-.4-.05-.75l.1 1.25z" id="HaiSho071__Symbol_192_0_Layer0_0_FILL"/><path fill="#252525" d="M59.3 47.05q.6-2.25.9-6.5Q31.6 80.95 0 97.5q3.6-.15 8.05-2.2Q13 93 14.9 91.9q22.7-14.65 38.8-29.3.95-1 1.85-2.05.25-.3.55-.6v-.05q1.2-5 3.2-12.85m51.85-23.95q-.15-.25-.35-.45-3.4-4.7-8.3-11.8-.1-.1-.15-.2-18.85-21.8-18.2 1-1.2 41.85-7.1 56.35 3.75-8.4 6.7-15.35 5.15-12.2 5.5-26.25 16.2-.1 19.55.9 3.35 1 5.2 1.8 1.85.75 2.8 1.3.05.05.15.1.25.2.55.35-2.7-2.75-6.35-7.75m77.45 7.95q.75 4.05 1.2 8.25.75 2.45.75 5v.05q4.55 12.7 8.3 33.1v-.05q-.05-3.95-.45-11.7-.45-7.8-3-20.4-2.6-12.6-6.8-14.25M168.4 9.3q-1-1.2-1.4-1.2-.65-.1-2.45-1.1-5.9-3.3-13.25-3.3-6.8 0-13.15 4.3 0 .05-.05.05l-.3-.3q-2.3 1.9-4.4 4.1-1.15 1.15-2.2 2.4-1.2 2.2-3.9 7.65-.45.9-.95 1.85-.1.2-.2.45-2.15 4.3-3.65 6.2l-1.3.85.3-.1q4.15-1.5 7.3-2.9 13.2-4.5 37.25-1.5 11.75 18.3 23.55 56.1-.85-3.55-2-7.05l-.7-2.1q-9.85-56.75-18.5-64.4M209.7 47q-.45.5-.8 1.2-.8 1.4-1.25 3.7l1.15 5.95q.1.45.2 1 1.25 6.25 2.55 10.4 4.15 13.3 13.05 43.15l.15-.05v-.1h.1v-.05l-.2-1.75q-.7-7.95-1.05-12.55-2.1-13.7-3.25-19.4-.8-6.75-2.5-12.2-1.75-5.45-3.4-11.15T209.7 47z" id="HaiSho071__Symbol_103_0_Layer0_0_FILL"/><path fill="#666666" d="M91.7 12.9q1.7-.6 3.6-.55Q80.15 8.5 65.25 11.3 47.5 14 42.4 32.25 34.2 76.2.35 112.15l-.05.05-.3.3q1.85-1.45 3.65-2.65 1.8-1.15 6.1-3.8 4.3-2.7 13.95-10.3 13.5-10.7 25.9-24.55l1.8-2q.95-1.05 1.85-2.15 12.25-14.5 16-30.4.5 1.6 1.1 3.05 2.75 6.45 2.45 18.1-.3 11.65-6.45 31.6-6.15 19.9 2.75.5 5.5-15.15 6.6-17.4 1.05-2.3 3.2-15.15 2.1-12.9 2.25-20.5.1-4.75.6-9.2 3.3-12.4 9.95-14.75m92.25 8.45q-7.4-4.95-16.45-7.75 25.8-3.3 46.8 22.85Q200.2 16.1 186.1 8.5q-.15-.1-.25-.15-27.6-16.7-58.05 0-2.85 1.6-5.7 3.55-.7.5-1.45 1l-2.45 1.6q-.3.2-.55.4l-.2.2q-4.3 3.2-7.1 6.85 5.65 6.7 12.15 18.25.3-.45.6-.85 46.2-37.7 83.5 19.05l1.05 3.95q-4.75-28.3-23.7-41z" id="HaiSho071__Symbol_52_0_Layer0_0_FILL"/></defs><use xmlns:xlink="http://www.w3.org/1999/xlink" xlink:href="#HaiSho071__Symbol_192_0_Layer0_0_FILL" transform="translate(54.45 37.9)" id="HaiSho071__col1n"/><use xmlns:xlink="http://www.w3.org/1999/xlink" xlink:href="#HaiSho071__Symbol_103_0_Layer0_0_FILL" transform="translate(60 67.1)" id="HaiSho071__col1d"/><use xmlns:xlink="http://www.w3.org/1999/xlink" xlink:href="#HaiSho071__Symbol_52_0_Layer0_0_FILL" transform="translate(54.55 37.9)" id="HaiSho071__col1l"/></g></g><g transform=""><g transform=""><defs><path fill="#000000" d="M41.7.75l.2-.2q-.15-.3-.5-.45-.4-.2-.75 0L0 16q.25.35.45.8.55 1.1 1.25 2.1L41.7.75M96.25 18.9q.65-1 1.2-2.1.2-.45.5-.8L57.3.1q-.4-.2-.8 0-.35.15-.5.45l.2.2L96.25 18.9z" id="FacBro005__Symbol_5_0_Layer0_0_FILL"/></defs><use xmlns:xlink="http://www.w3.org/1999/xlink" xlink:href="#FacBro005__Symbol_5_0_Layer0_0_FILL" transform="translate(143.25 123.15)" id="FacBro005__col1n"/></g></g><g transform=""><g transform=""><defs><path fill="#000000" d="M28.45 3.85l-1.8-2.25V.15q-12.25 1-24.55 0-.05 0-.05-.05L2 0v1.6L0 3.95.05 20q1.65.2 3.5.8 2.25 1 3.95 3 0 .05.05.1.15.15.3.35 2.85 4.4 2.35 9.9-.1.75-.25 1.5l-.1.55q-.9 3.4-2.6 5.1-.75.7-1.6 1.1l-.2.1H5.4q-2.9 1.1-5.35.7v11.7q.1 2 1.45 2.95.4.3.95.6.75.35 1.7.7.6.2 1.15.35.35.15.75.25.15 0 .3.05 3.45.8 7.9.8 2.6 0 4.8-.25 2.9-.4 5.25-1.2 1.4-.5 2.3-1.05.25-.1.4-.25 1.25-.9 1.45-2.7l.15-.65-.15-50.65z" id="ObjFoo050__Symbol_81_0_Layer0_0_FILL"/><path fill="#333333" d="M6.35 45.15V40.5q-.35.25-.7.4l-.2.1H5.4q-1.55.6-2.95.75v15.2q.75.35 1.7.7.6.2 1.15.35.35.15.75.25.15 0 .3.05V45.15m22.1-42.8L26.65.1q-.15.25-1.05.55-.9.25-2.45.5-3.7.45-8.8.45-5.1 0-8.75-.45Q4.05.9 3.1.65q-.85-.3-1.05-.6L2 0v.1L0 2.45q.6.6 2.45 1V19q.55.1 1.1.3 1.55.7 2.8 1.85V4q3.45.3 7.9.3 4.8 0 8.5-.4.8-.1 1.55-.2 3.75-.5 4.15-1.35z" id="ObjFoo050__Symbol_82_0_Layer0_0_FILL"/><path fill="#00FF00" d="M17.25 37.6q-.3.05-.7.15.75 2.1 1.6 4.55v2.95q.25-.1.65-.15v-2.95q.8-2.9 1.6-5.2-.35 0-.65.05-.65 2-1.25 4.1-.6-1.8-1.25-3.5m-1.8 2.55q.3-.05.65-.15-.05-1.1-.45-1.65-.5-.6-1.2-.45-1 .1-1.5 1.1-.45 1.05-.4 3.35-.1 2.35.4 3.2.4 1 1.35.9.45-.15.8-.55.3-.45.5-1.1 0 .5.05 1.15.25-.1.5-.15-.05-2.05 0-4.25-1 .25-1.9.4v.9q.65-.1 1.3-.25-.05 0 0 .15V43q0 1.1-.35 1.7-.2.65-.8.8-.6.15-.95-.6-.25-.65-.25-2.35-.05-2.1.25-3 .25-.8 1-.9.5-.1.7.3.25.3.3 1.2M0 37.55v.5l.05 2.25q.05 3 .1 5.75.3.1.6.15Q.7 42.85.6 38.75q1 4.25 2.1 7.8.35 0 .85.1-.1-4.05-.15-8.4-.35-.05-.65-.1.05 3.8.15 7.15-1.05-3.5-2.1-7.55l-.8-.2m7.35 1.85v-.8q-1.45-.05-2.9-.2l.1 8.4q1.4.1 2.85.15v-1q-1.1 0-2.25-.1V42.9q1 .1 2.05.1-.05-.4 0-.85-1.05 0-2.05-.1-.1-1.4-.05-2.75 1.1.05 2.25.1m2.45-.8q-.8 0-1.55.05v8.3h.6V43.2h.8q.65-.1.95.25.2.3.3 1.15v.75q0 1.1.15 1.45l.8-.1q-.3-.4-.35-1.7-.05-.45-.05-.75 0-.8-.25-1.15-.25-.45-.7-.4.5-.25.8-.8.25-.55.25-1.4 0-1.15-.45-1.5-.4-.5-1.3-.4m-.95.75q.45-.05.9 0 .6-.05.85.25.3.3.3 1.1t-.3 1.2q-.35.45-1 .45-.4.1-.75.05v-3.05m.95-27.9L15.5 0 9.65.65l-3.6 13.4 5.45-.85-6.4 12.4 5.7-.9-4.65 10.85 8.8-13.6-5.85.85 6.85-12.25-6.15.9z" id="ObjFoo050__Symbol_80_0_Layer0_0_FILL"/><path fill="#A1FFA1" d="M120.7 312.35q-1.4-.4-2.55-.75v8.5q1.3.45 2.7.75V320q-1.1-.25-2.15-.55-.05-1.05 0-2.95.95.25 1.95.5 0-.45-.05-.9-.95-.15-1.9-.45-.05-1.5-.05-3 1 .25 2.05.65v-.95z" id="ObjFoo050__Symbol_5_0_Layer0_0_FILL"/><path fill="#B6B6B6" d="M117.3 265.2q0 .05-.05.05-.047.047-.05.15v.7l.05.1q.2.3 1.05.55.95.25 2.5.45 3.65.55 8.75.55t8.8-.55q1.55-.2 2.45-.45.9-.25 1.05-.5.035-.035.05-.1v-.3l.05-.05v-.1q0-.05-.05-.05v-.35q-.002-.05-.1-.05-.2-.25-.95-.5-.9-.3-2.5-.5-3.7-.55-8.8-.55-5.1 0-8.75.55-1.65.2-2.5.5-.7.2-1 .45z" id="ObjFoo050__Layer7_0_FILL"/><g id="ObjFoo050__Layer7_1_FILL"><path d="M137.95 265.65q-.1 0-.15-.05-.8-.2-1.8-.2-1.2 0-2 .25-.45.15-.65.25.05.05.15.1.15.05.5.15.8.25 2 .25 1.1 0 1.95-.25.4-.1.6-.25-.2-.1-.6-.25z"/><path fill="#7E7E7E" d="M138.65 265.5q-.1-.2-.7-.35-.85-.2-1.95-.2-1.2 0-2 .2-.85.2-.85.5 0 .15.2.25.2-.1.65-.25.8-.25 2-.25 1 0 1.8.2.05.05.15.05.4.15.6.25.15-.1.15-.25 0-.1-.05-.15m-21.45-.35q.002.053.05.15.05.05.15.1.1.1.25.15.25-.15.65-.25.85-.3 2.5-.5 3.65-.5 8.75-.5t8.8.5q1.6.2 2.5.5.4.1.65.25.15-.05.2-.15.15-.1.2-.2.05 0 .05-.05V265h-.05q0-.05-.1-.05-.2-.25-.95-.5-.9-.3-2.5-.5-3.7-.55-8.8-.55-5.1 0-8.75.55-1.65.2-2.5.5-.7.2-1 .45 0 .05-.05.05-.05.05-.05.15v.05z"/><path fill="#E9E9E9" d="M117.25 265.3q-.048-.097-.05-.15v1.25l.05.1q.2.3 1.05.55.95.25 2.5.45 3.65.55 8.75.55t8.8-.55q1.55-.2 2.45-.45.9-.25 1.05-.5.05-.05.05-.15h.05v-.1l-.05-.05v-.4l.05-.05v-.1q0-.05-.05-.05v-.45q-.05.1-.2.2-.05.1-.2.15-.25.15-.7.3-.9.25-2.45.5-3.7.5-8.8.5-5.1 0-8.75-.5-1.55-.25-2.5-.5-.35-.15-.65-.3-.15-.05-.25-.15-.1-.05-.15-.1z"/></g></defs><use xmlns:xlink="http://www.w3.org/1999/xlink" xlink:href="#ObjFoo050__Symbol_81_0_Layer0_0_FILL" transform="translate(115.2 266.4)" id="ObjFoo050__col1n"/><use xmlns:xlink="http://www.w3.org/1999/xlink" xlink:href="#ObjFoo050__Symbol_82_0_Layer0_0_FILL" transform="translate(115.2 267.9)" id="ObjFoo050__col1l"/><use xmlns:xlink="http://www.w3.org/1999/xlink" xlink:href="#ObjFoo050__Symbol_80_0_Layer0_0_FILL" transform="translate(121.55 275)" id="ObjFoo050__col2n"/><use xmlns:xlink="http://www.w3.org/1999/xlink" xlink:href="#ObjFoo050__Symbol_5_0_Layer0_0_FILL" id="ObjFoo050__col2l"/><use xmlns:xlink="http://www.w3.org/1999/xlink" xlink:href="#ObjFoo050__Layer7_0_FILL"/><use xmlns:xlink="http://www.w3.org/1999/xlink" xlink:href="#ObjFoo050__Layer7_1_FILL"/></g></g></svg>