<svg width="343" height="79" fill="none" xmlns="http://www.w3.org/2000/svg"><mask id="a" style="mask-type:alpha" maskUnits="userSpaceOnUse" x="7" y="2" width="328" height="66"><path d="M17.895 2.5h306.577c7.558 0 12.089 8.396 7.942 14.714l-7.604 11.581a10.503 10.503 0 0 0 0 11.525l7.604 11.582c4.147 6.317-.384 14.714-7.942 14.714H17.895c-6.996 0-11.592-7.306-8.564-13.612l6.675-13.901a10.5 10.5 0 0 0 0-9.09l-6.675-13.9C6.303 9.805 10.9 2.5 17.895 2.5z" fill="#C4A" fill-opacity=".808" stroke="#000"/></mask><g mask="url(#a)"><path fill="#F12CDD" d="M-31.081.07h426.499v84.073H-31.081z"/><path d="M327.704 15.319c-112.341-38.328-240.59 49.455-341 5.357-100.411-44.097 0-43.685 0-43.685h341s112.341 76.655 0 38.328z" fill="#FE72E1" fill-opacity=".82"/><path d="M363.605 37.161c-140.177 26.756-222.445 28.38-377.785 0l-10.936 58.522h388.721V37.16z" fill="#D51AF3"/></g><g filter="url(#b)"><path d="M327.769 2.955H15.777c-5.853 0-9.724 6.077-7.25 11.381l7.598 16.292a8 8 0 0 1 .108 6.52L7.97 56.52c-2.251 5.278 1.62 11.14 7.358 11.14h313.09c6.148 0 9.999-6.648 6.939-11.981l-10.124-17.65a7.997 7.997 0 0 1 .162-8.231l9.151-14.591c3.342-5.328-.488-12.251-6.777-12.251z" stroke="#DB25C1" stroke-width="5" shape-rendering="crispEdges"/></g><path d="M64.416 22.5 64.2 37.332c0 1.848.036 3.216.108 4.104.384.096.996.144 1.836.144.864 0 1.596-.072 2.196-.216.624-.144 1.14-.396 1.548-.756.432-.384.78-.732 1.044-1.044.264-.336.492-.828.684-1.476.288-.864.576-2.004.864-3.42 0-.024.168-.036.504-.036.36 0 .912.168 1.656.504.768.312 1.152.552 1.152.72 0 1.848-.096 3.936-.288 6.264-.192 2.592-.432 3.888-.72 3.888-.264 0-.792-.108-1.584-.324-.792-.192-1.392-.372-1.8-.54-2.16.36-4.956.552-8.388.576l-1.8.036-1.44-.18c-.096-.096-.144-1.152-.144-3.168l.144-13.788c0-2.808-.072-4.296-.216-4.464-.12-.192-.336-.648-.648-1.368-.312-.744-.468-1.224-.468-1.44 0-.096.264-.228.792-.396 1.32-.48 2.484-.72 3.492-.72s1.536.036 1.584.108c.072.072.108.792.108 2.16zm15.62 8.424.035-3.888c0-1.032-.023-1.596-.072-1.692-.263-.264-.611-.9-1.043-1.908-.409-1.008-.612-1.656-.612-1.944.264-.264 4.476-.396 12.636-.396 2.016 0 3.023.048 3.023.144 0 .504-.12 1.056-.36 1.656-.216.6-.456 1.08-.72 1.44-.24.36-.42.528-.54.504-.096-.048-.587-.072-1.475-.072-.865 0-2.076.06-3.636.18-1.56.096-2.413.216-2.556.36-.144.144-.216 1.464-.216 3.96l.035 1.512c.96-.024 2.377-.036 4.249-.036 1.871 0 2.807.036 2.807.108 0 .864-.287 1.848-.863 2.952-.216.384-.349.564-.396.54-.624 0-1.692.06-3.204.18-1.513.096-2.388.216-2.629.36-.023.024-.035 1.032-.035 3.024s.06 3.048.18 3.168c.383.384 2.447.576 6.191.576 1.513 0 2.533-.036 3.06-.108.529-.096.793-.132.793-.108 0 .576-.192 1.26-.576 2.052-.384.792-.792 1.392-1.224 1.8-.24.24-2.4.36-6.48.36-4.056 0-6.157-.096-6.3-.288-.145-.12-.217-1.272-.217-3.456 0-2.208.024-4.536.072-6.984-.431-.384-.851-.984-1.26-1.8-.383-.816-.576-1.512-.576-2.088 0-.024.636-.06 1.909-.108zm28.793 6.012c-.336-.024-1.368-.036-3.096-.036s-2.736.048-3.024.144c-1.272 4.176-1.992 7.188-2.16 9.036 0 .024-.3.036-.9.036-.576 0-1.176-.036-1.8-.108-1.32-.192-1.98-.36-1.98-.504 0-.96.852-3.756 2.556-8.388-.312-.264-.672-.804-1.08-1.62-.408-.84-.612-1.536-.612-2.088 0-.024.996-.072 2.988-.144 1.968-5.712 3.084-8.724 3.348-9.036.096-.072.528-.18 1.296-.324.768-.168 1.26-.252 1.476-.252l-.072-.468a25.291 25.291 0 0 0-.18-1.08 8.975 8.975 0 0 1-.072-.792c0-.072.204-.216.612-.432 1.176-.576 2.388-.864 3.636-.864.24 1.416.552 3.228.936 5.436.408 2.184 1.188 5.532 2.34 10.044 1.152 4.512 2.256 7.656 3.312 9.432l.252.432c0 .12-.228.324-.684.612-.456.288-1.056.564-1.8.828s-1.428.396-2.052.396c-.216 0-.744-1.356-1.584-4.068-.816-2.736-1.368-4.8-1.656-6.192zm-.864-3.708c-.816-3.456-1.26-5.388-1.332-5.796-.072-.408-.132-.612-.18-.612-.048 0-.108.048-.18.144-.216.408-.624 1.392-1.224 2.952-.576 1.56-.948 2.64-1.116 3.24 2.664 0 4.008.024 4.032.072zm23.335 5.616c.696-.696 1.284-1.632 1.764-2.808.48-1.2.72-2.472.72-3.816 0-1.344-.24-2.484-.72-3.42-.48-.96-1.044-1.68-1.692-2.16a8.331 8.331 0 0 0-2.232-1.224c-1.296-.48-2.532-.72-3.708-.72-.312 0-.468.012-.468.036-.168.168-.252 3-.252 8.496s.084 8.328.252 8.496c.048.048.216.072.504.072.312 0 .768-.084 1.368-.252.624-.168 1.344-.48 2.16-.936.84-.48 1.608-1.068 2.304-1.764zm-11.16.684.108-14.22c-.264-.408-.6-1.128-1.008-2.16-.408-1.056-.612-1.68-.612-1.872 0-.216.012-.336.036-.36.24-.24 1.656-.36 4.248-.36 4.992 0 8.844 1.044 11.556 3.132 2.736 2.088 4.104 4.884 4.104 8.388 0 1.728-.276 3.324-.828 4.788-.552 1.44-1.296 2.664-2.232 3.672a17.238 17.238 0 0 1-3.096 2.628 15.659 15.659 0 0 1-3.6 1.764c-2.496.816-4.764 1.224-6.804 1.224-.96 0-1.512-.072-1.656-.216-.144-.144-.216-2.28-.216-6.408zM143 30.924l.036-3.888c0-1.032-.024-1.596-.072-1.692-.264-.264-.612-.9-1.044-1.908-.408-1.008-.612-1.656-.612-1.944.264-.264 4.476-.396 12.636-.396 2.016 0 3.024.048 3.024.144 0 .504-.12 1.056-.36 1.656-.216.6-.456 1.08-.72 1.44-.24.36-.42.528-.54.504-.096-.048-.588-.072-1.476-.072-.864 0-2.076.06-3.636.18-1.56.096-2.412.216-2.556.36-.144.144-.216 1.464-.216 3.96l.036 1.512c.96-.024 2.376-.036 4.248-.036 1.872 0 2.808.036 2.808.108 0 .864-.288 1.848-.864 2.952-.216.384-.348.564-.396.54-.624 0-1.692.06-3.204.18-1.512.096-2.388.216-2.628.36-.024.024-.036 1.032-.036 3.024s.06 3.048.18 3.168c.384.384 2.448.576 6.192.576 1.512 0 2.532-.036 3.06-.108.528-.096.792-.132.792-.108 0 .576-.192 1.26-.576 2.052-.384.792-.792 1.392-1.224 1.8-.24.24-2.4.36-6.48.36-4.056 0-6.156-.096-6.3-.288-.144-.12-.216-1.272-.216-3.456 0-2.208.024-4.536.072-6.984-.432-.384-.852-.984-1.26-1.8-.384-.816-.576-1.512-.576-2.088 0-.024.636-.06 1.908-.108zm22.87 1.872c2.832-.264 4.908-.924 6.228-1.98 1.344-1.08 2.016-2.136 2.016-3.168 0-1.056-.516-1.824-1.548-2.304-1.032-.504-2.34-.756-3.924-.756-.84 0-1.692.072-2.556.216-.144 1.032-.216 3.696-.216 7.992zm.396 12.42c-.264.264-.792.468-1.584.612-.792.168-1.452.252-1.98.252s-.984-.072-1.368-.216l.216-20.772c-.312-.384-.624-1.02-.936-1.908-.288-.888-.432-1.428-.432-1.62 0-.216.024-.348.072-.396.048-.072.804-.144 2.268-.216a69.879 69.879 0 0 1 4.5-.144c1.512 0 2.856.084 4.032.252 1.176.168 2.4.468 3.672.9 1.272.408 2.28 1.068 3.024 1.98.744.912 1.116 2.088 1.116 3.528 0 1.416-.504 2.736-1.512 3.96-1.008 1.224-2.376 2.256-4.104 3.096 0 .384.756 2.112 2.268 5.184 1.512 3.048 2.712 5.016 3.6 5.904.024.024.036.06.036.108 0 .072-.192.192-.576.36a7.837 7.837 0 0 1-3.42.756l-.9-.072c-.528-.528-1.452-2.28-2.772-5.256-1.296-2.976-2.016-4.8-2.16-5.472-.288.168-1.428.42-3.42.756.048 4.824.168 7.632.36 8.424zm20.473-2.664c1.608 0 3.132-.468 4.572-1.404 1.44-.936 2.16-2.04 2.16-3.312 0-.912-.36-1.668-1.08-2.268-1.248-1.008-2.988-1.512-5.22-1.512-.552 0-.852.012-.9.036-.024.024-.036 1.14-.036 3.348s.108 3.9.324 5.076a.4.4 0 0 0 .18.036zm2.808-12.852a4.222 4.222 0 0 0 1.584-1.152c.456-.528.684-1.068.684-1.62 0-.576-.168-1.032-.504-1.368a3.163 3.163 0 0 0-1.26-.756 8.797 8.797 0 0 0-1.476-.36 8.536 8.536 0 0 0-1.332-.108c-.432 0-.672.024-.72.072-.024.024-.072 1.008-.144 2.952a445.49 445.49 0 0 0-.072 3.06c.024.024.144.036.36.036.24 0 .624-.06 1.152-.18a18.18 18.18 0 0 0 1.728-.576zm-7.812 10.26.18-13.752c0-.96-.024-1.464-.072-1.512-.264-.264-.612-.84-1.044-1.728-.432-.912-.648-1.5-.648-1.764l.036-.108c.144-.12.9-.228 2.268-.324a59.649 59.649 0 0 1 4.104-.144c1.368 0 2.616.084 3.744.252a18.64 18.64 0 0 1 3.276.792c1.08.36 1.944.9 2.592 1.62.648.696.972 1.488.972 2.376a4.97 4.97 0 0 1-.576 2.376 5.898 5.898 0 0 1-1.368 1.764c-.84.72-1.656 1.272-2.448 1.656-.048.048-.072.084-.072.108.024.024.192.084.504.18.336.096.648.216.936.36.312.12.684.288 1.116.504.432.216.828.48 1.188.792.36.288.696.624 1.008 1.008.696.816 1.044 1.932 1.044 3.348 0 1.392-.432 2.7-1.296 3.924-.864 1.224-2.016 2.184-3.456 2.88-2.88 1.392-6.156 2.088-9.828 2.088l-1.836-.108c-.072-.096-.144-.96-.216-2.592a96.352 96.352 0 0 1-.108-3.996zm28.712 6.12c-3.576 0-6.228-1.032-7.956-3.096-1.704-2.064-2.556-4.656-2.556-7.776 0-1.512.18-2.928.54-4.248.36-1.32.696-2.256 1.008-2.808.312-.552.564-.876.756-.972.192-.12.948-.18 2.268-.18h.684c0-1.2.228-2.244.684-3.132.48-.888 1.092-1.548 1.836-1.98 1.392-.792 2.712-1.188 3.96-1.188 6.672 0 10.008 4.2 10.008 12.6 0 2.616-.444 4.944-1.332 6.984a9.982 9.982 0 0 1-1.98 2.988c-.816.816-1.908 1.488-3.276 2.016-1.344.528-2.892.792-4.644.792zm6.588-13.068c0-5.64-1.68-8.46-5.04-8.46-.96 0-1.704.276-2.232.828-.504.552-.756 1.26-.756 2.124 0 .84.264 1.836.792 2.988.552 1.152 1.104 2.064 1.656 2.736l.792 1.008c0 .288-.444.564-1.332.828-.888.24-1.596.36-2.124.36-.12 0-.372-.228-.756-.684-.36-.456-.792-1.152-1.296-2.088-.48-.96-.828-1.968-1.044-3.024-.36.36-.648 1.092-.864 2.196a16.678 16.678 0 0 0-.324 3.204c0 2.016.564 3.744 1.692 5.184 1.128 1.416 2.556 2.124 4.284 2.124 4.368 0 6.552-3.108 6.552-9.324zm18.497 3.924c-.336-.024-1.368-.036-3.096-.036s-2.736.048-3.024.144c-1.272 4.176-1.992 7.188-2.16 9.036 0 .024-.3.036-.9.036-.576 0-1.176-.036-1.8-.108-1.32-.192-1.98-.36-1.98-.504 0-.96.852-3.756 2.556-8.388-.312-.264-.672-.804-1.08-1.62-.408-.84-.612-1.536-.612-2.088 0-.024.996-.072 2.988-.144 1.968-5.712 3.084-8.724 3.348-9.036.096-.072.528-.18 1.296-.324.768-.168 1.26-.252 1.476-.252l-.072-.468a25.291 25.291 0 0 0-.18-1.08 8.975 8.975 0 0 1-.072-.792c0-.072.204-.216.612-.432 1.176-.576 2.388-.864 3.636-.864.24 1.416.552 3.228.936 5.436.408 2.184 1.188 5.532 2.34 10.044 1.152 4.512 2.256 7.656 3.312 9.432l.252.432c0 .12-.228.324-.684.612-.456.288-1.056.564-1.8.828s-1.428.396-2.052.396c-.216 0-.744-1.356-1.584-4.068-.816-2.736-1.368-4.8-1.656-6.192zm-.864-3.708c-.816-3.456-1.26-5.388-1.332-5.796-.072-.408-.132-.612-.18-.612-.048 0-.108.048-.18.144-.216.408-.624 1.392-1.224 2.952-.576 1.56-.948 2.64-1.116 3.24 2.664 0 4.008.024 4.032.072zm16.315-.432c2.832-.264 4.908-.924 6.228-1.98 1.344-1.08 2.016-2.136 2.016-3.168 0-1.056-.516-1.824-1.548-2.304-1.032-.504-2.34-.756-3.924-.756-.84 0-1.692.072-2.556.216-.144 1.032-.216 3.696-.216 7.992zm.396 12.42c-.264.264-.792.468-1.584.612-.792.168-1.452.252-1.98.252s-.984-.072-1.368-.216l.216-20.772c-.312-.384-.624-1.02-.936-1.908-.288-.888-.432-1.428-.432-1.62 0-.216.024-.348.072-.396.048-.072.804-.144 2.268-.216a69.879 69.879 0 0 1 4.5-.144c1.512 0 2.856.084 4.032.252 1.176.168 2.4.468 3.672.9 1.272.408 2.28 1.068 3.024 1.98.744.912 1.116 2.088 1.116 3.528 0 1.416-.504 2.736-1.512 3.96-1.008 1.224-2.376 2.256-4.104 3.096 0 .384.756 2.112 2.268 5.184 1.512 3.048 2.712 5.016 3.6 5.904.024.024.036.06.036.108 0 .072-.192.192-.576.36a7.837 7.837 0 0 1-3.42.756l-.9-.072c-.528-.528-1.452-2.28-2.772-5.256-1.296-2.976-2.016-4.8-2.16-5.472-.288.168-1.428.42-3.42.756.048 4.824.168 7.632.36 8.424zm27.753-6.372c.696-.696 1.284-1.632 1.764-2.808.48-1.2.72-2.472.72-3.816 0-1.344-.24-2.484-.72-3.42-.48-.96-1.044-1.68-1.692-2.16a8.331 8.331 0 0 0-2.232-1.224c-1.296-.48-2.532-.72-3.708-.72-.312 0-.468.012-.468.036-.168.168-.252 3-.252 8.496s.084 8.328.252 8.496c.048.048.216.072.504.072.312 0 .768-.084 1.368-.252.624-.168 1.344-.48 2.16-.936.84-.48 1.608-1.068 2.304-1.764zm-11.16.684.108-14.22c-.264-.408-.6-1.128-1.008-2.16-.408-1.056-.612-1.68-.612-1.872 0-.216.012-.336.036-.36.24-.24 1.656-.36 4.248-.36 4.992 0 8.844 1.044 11.556 3.132 2.736 2.088 4.104 4.884 4.104 8.388 0 1.728-.276 3.324-.828 4.788-.552 1.44-1.296 2.664-2.232 3.672a17.238 17.238 0 0 1-3.096 2.628 15.659 15.659 0 0 1-3.6 1.764c-2.496.816-4.764 1.224-6.804 1.224-.96 0-1.512-.072-1.656-.216-.144-.144-.216-2.28-.216-6.408z" fill="#FBFBFB"/><defs><filter id="b" x=".817" y=".455" width="342.116" height="77.704" filterUnits="userSpaceOnUse" color-interpolation-filters="sRGB"><feFlood flood-opacity="0" result="BackgroundImageFix"/><feColorMatrix in="SourceAlpha" values="0 0 0 0 0 0 0 0 0 0 0 0 0 0 0 0 0 0 127 0" result="hardAlpha"/><feOffset dy="4"/><feGaussianBlur stdDeviation="2"/><feComposite in2="hardAlpha" operator="out"/><feColorMatrix values="0 0 0 0 0 0 0 0 0 0 0 0 0 0 0 0 0 0 0.25 0"/><feBlend in2="BackgroundImageFix" result="effect1_dropShadow_5_50"/><feBlend in="SourceGraphic" in2="effect1_dropShadow_5_50" result="shape"/></filter></defs></svg>