<svg width="343" height="79" viewBox="0 0 343 79" fill="none" xmlns="http://www.w3.org/2000/svg">
<mask id="mask0_5_50" style="mask-type:alpha" maskUnits="userSpaceOnUse" x="7" y="2" width="328" height="66">
<path d="M17.895 2.5H324.472C332.03 2.5 336.561 10.8962 332.414 17.2137L324.81 28.7954C322.514 32.2937 322.514 36.822 324.81 40.3204L332.414 51.902C336.561 58.2195 332.03 66.6157 324.472 66.6157H17.895C10.899 66.6157 6.30282 59.31 9.33113 53.0035L16.0059 39.103C17.3855 36.2299 17.3855 32.8858 16.0059 30.0128L9.33113 16.1122C6.30282 9.80567 10.899 2.5 17.895 2.5Z" fill="#CC44AA" fill-opacity="0.807843" stroke="black"/>
</mask>
<g mask="url(#mask0_5_50)">
<rect x="-31.0805" y="0.0699463" width="426.499" height="84.0735" fill="#F12CDD"/>
<path d="M327.704 15.3187C215.363 -23.0089 87.1147 64.7736 -13.2961 20.6763C-113.707 -23.4211 -13.2961 -23.0089 -13.2961 -23.0089H327.704C327.704 -23.0089 440.045 53.6463 327.704 15.3187Z" fill="#FE72E1" fill-opacity="0.82"/>
<path d="M363.605 37.1612C223.428 63.9174 141.16 65.5408 -14.1796 37.1612L-25.1155 95.6829H363.605V37.1612Z" fill="#D51AF3"/>
</g>
<g filter="url(#filter0_d_5_50)">
<path d="M327.769 2.9548H15.7766C9.92447 2.9548 6.05281 9.03247 8.52634 14.3362L16.1246 30.6282C17.085 32.6876 17.1244 35.0583 16.2328 37.1484L7.96978 56.5195C5.71862 61.7969 9.59079 67.6584 15.3283 67.6584H328.418C334.566 67.6584 338.417 61.0109 335.357 55.6776L325.233 38.0285C323.762 35.4653 323.824 32.3004 325.395 29.797L334.546 15.2055C337.888 9.87758 334.058 2.9548 327.769 2.9548Z" stroke="#DB25C1" stroke-width="5" shape-rendering="crispEdges"/>
</g>
<path d="M64.416 22.5L64.2 37.332C64.2 39.18 64.236 40.548 64.308 41.436C64.692 41.532 65.304 41.58 66.144 41.58C67.008 41.58 67.74 41.508 68.34 41.364C68.964 41.22 69.48 40.968 69.888 40.608C70.32 40.224 70.668 39.876 70.932 39.564C71.196 39.228 71.424 38.736 71.616 38.088C71.904 37.224 72.192 36.084 72.48 34.668C72.48 34.644 72.648 34.632 72.984 34.632C73.344 34.632 73.896 34.8 74.64 35.136C75.408 35.448 75.792 35.688 75.792 35.856C75.792 37.704 75.696 39.792 75.504 42.12C75.312 44.712 75.072 46.008 74.784 46.008C74.52 46.008 73.992 45.9 73.2 45.684C72.408 45.492 71.808 45.312 71.4 45.144C69.24 45.504 66.444 45.696 63.012 45.72L61.212 45.756L59.772 45.576C59.676 45.48 59.628 44.424 59.628 42.408L59.772 28.62C59.772 25.812 59.7 24.324 59.556 24.156C59.436 23.964 59.22 23.508 58.908 22.788C58.596 22.044 58.44 21.564 58.44 21.348C58.44 21.252 58.704 21.12 59.232 20.952C60.552 20.472 61.716 20.232 62.724 20.232C63.732 20.232 64.26 20.268 64.308 20.34C64.38 20.412 64.416 21.132 64.416 22.5ZM80.0355 30.924L80.0715 27.036C80.0715 26.004 80.0475 25.44 79.9995 25.344C79.7355 25.08 79.3875 24.444 78.9555 23.436C78.5475 22.428 78.3435 21.78 78.3435 21.492C78.6075 21.228 82.8195 21.096 90.9795 21.096C92.9955 21.096 94.0035 21.144 94.0035 21.24C94.0035 21.744 93.8835 22.296 93.6435 22.896C93.4275 23.496 93.1875 23.976 92.9235 24.336C92.6835 24.696 92.5035 24.864 92.3835 24.84C92.2875 24.792 91.7955 24.768 90.9075 24.768C90.0435 24.768 88.8315 24.828 87.2715 24.948C85.7115 25.044 84.8595 25.164 84.7155 25.308C84.5715 25.452 84.4995 26.772 84.4995 29.268L84.5355 30.78C85.4955 30.756 86.9115 30.744 88.7835 30.744C90.6555 30.744 91.5915 30.78 91.5915 30.852C91.5915 31.716 91.3035 32.7 90.7275 33.804C90.5115 34.188 90.3795 34.368 90.3315 34.344C89.7075 34.344 88.6395 34.404 87.1275 34.524C85.6155 34.62 84.7395 34.74 84.4995 34.884C84.4755 34.908 84.4635 35.916 84.4635 37.908C84.4635 39.9 84.5235 40.956 84.6435 41.076C85.0275 41.46 87.0915 41.652 90.8355 41.652C92.3475 41.652 93.3675 41.616 93.8955 41.544C94.4235 41.448 94.6875 41.412 94.6875 41.436C94.6875 42.012 94.4955 42.696 94.1115 43.488C93.7275 44.28 93.3195 44.88 92.8875 45.288C92.6475 45.528 90.4875 45.648 86.4075 45.648C82.3515 45.648 80.2515 45.552 80.1075 45.36C79.9635 45.24 79.8915 44.088 79.8915 41.904C79.8915 39.696 79.9155 37.368 79.9635 34.92C79.5315 34.536 79.1115 33.936 78.7035 33.12C78.3195 32.304 78.1275 31.608 78.1275 31.032C78.1275 31.008 78.7635 30.972 80.0355 30.924ZM108.829 36.936C108.493 36.912 107.461 36.9 105.733 36.9C104.005 36.9 102.997 36.948 102.709 37.044C101.437 41.22 100.717 44.232 100.549 46.08C100.549 46.104 100.249 46.116 99.6488 46.116C99.0728 46.116 98.4728 46.08 97.8488 46.008C96.5288 45.816 95.8688 45.648 95.8688 45.504C95.8688 44.544 96.7208 41.748 98.4248 37.116C98.1128 36.852 97.7528 36.312 97.3447 35.496C96.9368 34.656 96.7328 33.96 96.7328 33.408C96.7328 33.384 97.7288 33.336 99.7207 33.264C101.689 27.552 102.805 24.54 103.069 24.228C103.165 24.156 103.597 24.048 104.365 23.904C105.133 23.736 105.625 23.652 105.841 23.652L105.769 23.184C105.721 22.848 105.661 22.488 105.589 22.104C105.541 21.696 105.517 21.432 105.517 21.312C105.517 21.24 105.721 21.096 106.129 20.88C107.305 20.304 108.517 20.016 109.765 20.016C110.005 21.432 110.317 23.244 110.701 25.452C111.109 27.636 111.889 30.984 113.041 35.496C114.193 40.008 115.297 43.152 116.353 44.928L116.605 45.36C116.605 45.48 116.377 45.684 115.921 45.972C115.465 46.26 114.865 46.536 114.121 46.8C113.377 47.064 112.693 47.196 112.069 47.196C111.853 47.196 111.325 45.84 110.485 43.128C109.669 40.392 109.117 38.328 108.829 36.936ZM107.965 33.228C107.149 29.772 106.705 27.84 106.633 27.432C106.561 27.024 106.501 26.82 106.453 26.82C106.405 26.82 106.345 26.868 106.273 26.964C106.057 27.372 105.649 28.356 105.049 29.916C104.473 31.476 104.101 32.556 103.933 33.156C106.597 33.156 107.941 33.18 107.965 33.228ZM131.3 38.844C131.996 38.148 132.584 37.212 133.064 36.036C133.544 34.836 133.784 33.564 133.784 32.22C133.784 30.876 133.544 29.736 133.064 28.8C132.584 27.84 132.02 27.12 131.372 26.64C130.724 26.136 129.98 25.728 129.14 25.416C127.844 24.936 126.608 24.696 125.432 24.696C125.12 24.696 124.964 24.708 124.964 24.732C124.796 24.9 124.712 27.732 124.712 33.228C124.712 38.724 124.796 41.556 124.964 41.724C125.012 41.772 125.18 41.796 125.468 41.796C125.78 41.796 126.236 41.712 126.836 41.544C127.46 41.376 128.18 41.064 128.996 40.608C129.836 40.128 130.604 39.54 131.3 38.844ZM120.14 39.528L120.248 25.308C119.984 24.9 119.648 24.18 119.24 23.148C118.832 22.092 118.628 21.468 118.628 21.276C118.628 21.06 118.64 20.94 118.664 20.916C118.904 20.676 120.32 20.556 122.912 20.556C127.904 20.556 131.756 21.6 134.468 23.688C137.204 25.776 138.572 28.572 138.572 32.076C138.572 33.804 138.296 35.4 137.744 36.864C137.192 38.304 136.448 39.528 135.512 40.536C134.6 41.52 133.568 42.396 132.416 43.164C131.288 43.908 130.088 44.496 128.816 44.928C126.32 45.744 124.052 46.152 122.012 46.152C121.052 46.152 120.5 46.08 120.356 45.936C120.212 45.792 120.14 43.656 120.14 39.528ZM143 30.924L143.036 27.036C143.036 26.004 143.012 25.44 142.964 25.344C142.7 25.08 142.352 24.444 141.92 23.436C141.512 22.428 141.308 21.78 141.308 21.492C141.572 21.228 145.784 21.096 153.944 21.096C155.96 21.096 156.968 21.144 156.968 21.24C156.968 21.744 156.848 22.296 156.608 22.896C156.392 23.496 156.152 23.976 155.888 24.336C155.648 24.696 155.468 24.864 155.348 24.84C155.252 24.792 154.76 24.768 153.872 24.768C153.008 24.768 151.796 24.828 150.236 24.948C148.676 25.044 147.824 25.164 147.68 25.308C147.536 25.452 147.464 26.772 147.464 29.268L147.5 30.78C148.46 30.756 149.876 30.744 151.748 30.744C153.62 30.744 154.556 30.78 154.556 30.852C154.556 31.716 154.268 32.7 153.692 33.804C153.476 34.188 153.344 34.368 153.296 34.344C152.672 34.344 151.604 34.404 150.092 34.524C148.58 34.62 147.704 34.74 147.464 34.884C147.44 34.908 147.428 35.916 147.428 37.908C147.428 39.9 147.488 40.956 147.608 41.076C147.992 41.46 150.056 41.652 153.8 41.652C155.312 41.652 156.332 41.616 156.86 41.544C157.388 41.448 157.652 41.412 157.652 41.436C157.652 42.012 157.46 42.696 157.076 43.488C156.692 44.28 156.284 44.88 155.852 45.288C155.612 45.528 153.452 45.648 149.372 45.648C145.316 45.648 143.216 45.552 143.072 45.36C142.928 45.24 142.856 44.088 142.856 41.904C142.856 39.696 142.88 37.368 142.928 34.92C142.496 34.536 142.076 33.936 141.668 33.12C141.284 32.304 141.092 31.608 141.092 31.032C141.092 31.008 141.728 30.972 143 30.924ZM165.87 32.796C168.702 32.532 170.778 31.872 172.098 30.816C173.442 29.736 174.114 28.68 174.114 27.648C174.114 26.592 173.598 25.824 172.566 25.344C171.534 24.84 170.226 24.588 168.642 24.588C167.802 24.588 166.95 24.66 166.086 24.804C165.942 25.836 165.87 28.5 165.87 32.796ZM166.266 45.216C166.002 45.48 165.474 45.684 164.682 45.828C163.89 45.996 163.23 46.08 162.702 46.08C162.174 46.08 161.718 46.008 161.334 45.864L161.55 25.092C161.238 24.708 160.926 24.072 160.614 23.184C160.326 22.296 160.182 21.756 160.182 21.564C160.182 21.348 160.206 21.216 160.254 21.168C160.302 21.096 161.058 21.024 162.522 20.952C164.01 20.856 165.51 20.808 167.022 20.808C168.534 20.808 169.878 20.892 171.054 21.06C172.23 21.228 173.454 21.528 174.726 21.96C175.998 22.368 177.006 23.028 177.75 23.94C178.494 24.852 178.866 26.028 178.866 27.468C178.866 28.884 178.362 30.204 177.354 31.428C176.346 32.652 174.978 33.684 173.25 34.524C173.25 34.908 174.006 36.636 175.518 39.708C177.03 42.756 178.23 44.724 179.118 45.612C179.142 45.636 179.154 45.672 179.154 45.72C179.154 45.792 178.962 45.912 178.578 46.08C177.522 46.584 176.382 46.836 175.158 46.836L174.258 46.764C173.73 46.236 172.806 44.484 171.486 41.508C170.19 38.532 169.47 36.708 169.326 36.036C169.038 36.204 167.898 36.456 165.906 36.792C165.954 41.616 166.074 44.424 166.266 45.216ZM186.739 42.552C188.347 42.552 189.871 42.084 191.311 41.148C192.751 40.212 193.471 39.108 193.471 37.836C193.471 36.924 193.111 36.168 192.391 35.568C191.143 34.56 189.403 34.056 187.171 34.056C186.619 34.056 186.319 34.068 186.271 34.092C186.247 34.116 186.235 35.232 186.235 37.44C186.235 39.648 186.343 41.34 186.559 42.516C186.607 42.54 186.667 42.552 186.739 42.552ZM189.547 29.7C190.171 29.436 190.699 29.052 191.131 28.548C191.587 28.02 191.815 27.48 191.815 26.928C191.815 26.352 191.647 25.896 191.311 25.56C190.975 25.224 190.555 24.972 190.051 24.804C189.547 24.636 189.055 24.516 188.575 24.444C188.119 24.372 187.675 24.336 187.243 24.336C186.811 24.336 186.571 24.36 186.523 24.408C186.499 24.432 186.451 25.416 186.379 27.36C186.331 29.28 186.307 30.3 186.307 30.42C186.331 30.444 186.451 30.456 186.667 30.456C186.907 30.456 187.291 30.396 187.819 30.276C188.347 30.132 188.923 29.94 189.547 29.7ZM181.735 39.96L181.915 26.208C181.915 25.248 181.891 24.744 181.843 24.696C181.579 24.432 181.231 23.856 180.799 22.968C180.367 22.056 180.151 21.468 180.151 21.204L180.187 21.096C180.331 20.976 181.087 20.868 182.455 20.772C183.847 20.676 185.215 20.628 186.559 20.628C187.927 20.628 189.175 20.712 190.303 20.88C191.431 21.048 192.523 21.312 193.579 21.672C194.659 22.032 195.523 22.572 196.171 23.292C196.819 23.988 197.143 24.78 197.143 25.668C197.143 26.532 196.951 27.324 196.567 28.044C196.207 28.74 195.751 29.328 195.199 29.808C194.359 30.528 193.543 31.08 192.751 31.464C192.703 31.512 192.679 31.548 192.679 31.572C192.703 31.596 192.871 31.656 193.183 31.752C193.519 31.848 193.831 31.968 194.119 32.112C194.431 32.232 194.803 32.4 195.235 32.616C195.667 32.832 196.063 33.096 196.423 33.408C196.783 33.696 197.119 34.032 197.431 34.416C198.127 35.232 198.475 36.348 198.475 37.764C198.475 39.156 198.043 40.464 197.179 41.688C196.315 42.912 195.163 43.872 193.723 44.568C190.843 45.96 187.567 46.656 183.895 46.656L182.059 46.548C181.987 46.452 181.915 45.588 181.843 43.956C181.771 42.3 181.735 40.968 181.735 39.96ZM210.447 46.08C206.871 46.08 204.219 45.048 202.491 42.984C200.787 40.92 199.935 38.328 199.935 35.208C199.935 33.696 200.115 32.28 200.475 30.96C200.835 29.64 201.171 28.704 201.483 28.152C201.795 27.6 202.047 27.276 202.239 27.18C202.431 27.06 203.187 27 204.507 27H205.191C205.191 25.8 205.419 24.756 205.875 23.868C206.355 22.98 206.967 22.32 207.711 21.888C209.103 21.096 210.423 20.7 211.671 20.7C218.343 20.7 221.679 24.9 221.679 33.3C221.679 35.916 221.235 38.244 220.347 40.284C219.843 41.436 219.183 42.432 218.367 43.272C217.551 44.088 216.459 44.76 215.091 45.288C213.747 45.816 212.199 46.08 210.447 46.08ZM217.035 33.012C217.035 27.372 215.355 24.552 211.995 24.552C211.035 24.552 210.291 24.828 209.763 25.38C209.259 25.932 209.007 26.64 209.007 27.504C209.007 28.344 209.271 29.34 209.799 30.492C210.351 31.644 210.903 32.556 211.455 33.228L212.247 34.236C212.247 34.524 211.803 34.8 210.915 35.064C210.027 35.304 209.319 35.424 208.791 35.424C208.671 35.424 208.419 35.196 208.035 34.74C207.675 34.284 207.243 33.588 206.739 32.652C206.259 31.692 205.911 30.684 205.695 29.628C205.335 29.988 205.047 30.72 204.831 31.824C204.615 32.928 204.507 33.996 204.507 35.028C204.507 37.044 205.071 38.772 206.199 40.212C207.327 41.628 208.755 42.336 210.483 42.336C214.851 42.336 217.035 39.228 217.035 33.012ZM235.532 36.936C235.196 36.912 234.164 36.9 232.436 36.9C230.708 36.9 229.7 36.948 229.412 37.044C228.14 41.22 227.42 44.232 227.252 46.08C227.252 46.104 226.952 46.116 226.352 46.116C225.776 46.116 225.176 46.08 224.552 46.008C223.232 45.816 222.572 45.648 222.572 45.504C222.572 44.544 223.424 41.748 225.128 37.116C224.816 36.852 224.456 36.312 224.048 35.496C223.64 34.656 223.436 33.96 223.436 33.408C223.436 33.384 224.432 33.336 226.424 33.264C228.392 27.552 229.508 24.54 229.772 24.228C229.868 24.156 230.3 24.048 231.068 23.904C231.836 23.736 232.328 23.652 232.544 23.652L232.472 23.184C232.424 22.848 232.364 22.488 232.292 22.104C232.244 21.696 232.22 21.432 232.22 21.312C232.22 21.24 232.424 21.096 232.832 20.88C234.008 20.304 235.22 20.016 236.468 20.016C236.708 21.432 237.02 23.244 237.404 25.452C237.812 27.636 238.592 30.984 239.744 35.496C240.896 40.008 242 43.152 243.056 44.928L243.308 45.36C243.308 45.48 243.08 45.684 242.624 45.972C242.168 46.26 241.568 46.536 240.824 46.8C240.08 47.064 239.396 47.196 238.772 47.196C238.556 47.196 238.028 45.84 237.188 43.128C236.372 40.392 235.82 38.328 235.532 36.936ZM234.668 33.228C233.852 29.772 233.408 27.84 233.336 27.432C233.264 27.024 233.204 26.82 233.156 26.82C233.108 26.82 233.048 26.868 232.976 26.964C232.76 27.372 232.352 28.356 231.752 29.916C231.176 31.476 230.804 32.556 230.636 33.156C233.3 33.156 234.644 33.18 234.668 33.228ZM250.983 32.796C253.815 32.532 255.891 31.872 257.211 30.816C258.555 29.736 259.227 28.68 259.227 27.648C259.227 26.592 258.711 25.824 257.679 25.344C256.647 24.84 255.339 24.588 253.755 24.588C252.915 24.588 252.063 24.66 251.199 24.804C251.055 25.836 250.983 28.5 250.983 32.796ZM251.379 45.216C251.115 45.48 250.587 45.684 249.795 45.828C249.003 45.996 248.343 46.08 247.815 46.08C247.287 46.08 246.831 46.008 246.447 45.864L246.663 25.092C246.351 24.708 246.039 24.072 245.727 23.184C245.439 22.296 245.295 21.756 245.295 21.564C245.295 21.348 245.319 21.216 245.367 21.168C245.415 21.096 246.171 21.024 247.635 20.952C249.123 20.856 250.623 20.808 252.135 20.808C253.647 20.808 254.991 20.892 256.167 21.06C257.343 21.228 258.567 21.528 259.839 21.96C261.111 22.368 262.119 23.028 262.863 23.94C263.607 24.852 263.979 26.028 263.979 27.468C263.979 28.884 263.475 30.204 262.467 31.428C261.459 32.652 260.091 33.684 258.363 34.524C258.363 34.908 259.119 36.636 260.631 39.708C262.143 42.756 263.343 44.724 264.231 45.612C264.255 45.636 264.267 45.672 264.267 45.72C264.267 45.792 264.075 45.912 263.691 46.08C262.635 46.584 261.495 46.836 260.271 46.836L259.371 46.764C258.843 46.236 257.919 44.484 256.599 41.508C255.303 38.532 254.583 36.708 254.439 36.036C254.151 36.204 253.011 36.456 251.019 36.792C251.067 41.616 251.187 44.424 251.379 45.216ZM279.132 38.844C279.828 38.148 280.416 37.212 280.896 36.036C281.376 34.836 281.616 33.564 281.616 32.22C281.616 30.876 281.376 29.736 280.896 28.8C280.416 27.84 279.852 27.12 279.204 26.64C278.556 26.136 277.812 25.728 276.972 25.416C275.676 24.936 274.44 24.696 273.264 24.696C272.952 24.696 272.796 24.708 272.796 24.732C272.628 24.9 272.544 27.732 272.544 33.228C272.544 38.724 272.628 41.556 272.796 41.724C272.844 41.772 273.012 41.796 273.3 41.796C273.612 41.796 274.068 41.712 274.668 41.544C275.292 41.376 276.012 41.064 276.828 40.608C277.668 40.128 278.436 39.54 279.132 38.844ZM267.972 39.528L268.08 25.308C267.816 24.9 267.48 24.18 267.072 23.148C266.664 22.092 266.46 21.468 266.46 21.276C266.46 21.06 266.472 20.94 266.496 20.916C266.736 20.676 268.152 20.556 270.744 20.556C275.736 20.556 279.588 21.6 282.3 23.688C285.036 25.776 286.404 28.572 286.404 32.076C286.404 33.804 286.128 35.4 285.576 36.864C285.024 38.304 284.28 39.528 283.344 40.536C282.432 41.52 281.4 42.396 280.248 43.164C279.12 43.908 277.92 44.496 276.648 44.928C274.152 45.744 271.884 46.152 269.844 46.152C268.884 46.152 268.332 46.08 268.188 45.936C268.044 45.792 267.972 43.656 267.972 39.528Z" fill="#FBFBFB"/>
<defs>
<filter id="filter0_d_5_50" x="0.817032" y="0.454803" width="342.116" height="77.7036" filterUnits="userSpaceOnUse" color-interpolation-filters="sRGB">
<feFlood flood-opacity="0" result="BackgroundImageFix"/>
<feColorMatrix in="SourceAlpha" type="matrix" values="0 0 0 0 0 0 0 0 0 0 0 0 0 0 0 0 0 0 127 0" result="hardAlpha"/>
<feOffset dy="4"/>
<feGaussianBlur stdDeviation="2"/>
<feComposite in2="hardAlpha" operator="out"/>
<feColorMatrix type="matrix" values="0 0 0 0 0 0 0 0 0 0 0 0 0 0 0 0 0 0 0.25 0"/>
<feBlend mode="normal" in2="BackgroundImageFix" result="effect1_dropShadow_5_50"/>
<feBlend mode="normal" in="SourceGraphic" in2="effect1_dropShadow_5_50" result="shape"/>
</filter>
</defs>
</svg>
