<svg width="81" height="78" viewBox="0 0 81 78" fill="none" xmlns="http://www.w3.org/2000/svg">
<g filter="url(#filter0_d_17_388)">
<ellipse cx="35.4477" cy="35.4464" rx="35.4477" ry="35.4464" transform="matrix(0.999999 -0.00151253 0.00147683 0.999999 5 5.10721)" fill="#ED95FF"/>
</g>
<ellipse cx="31.7326" cy="32.8654" rx="31.7326" ry="32.8654" transform="matrix(0.999999 -0.00151253 0.00147683 0.999999 8.71938 8.04706)" fill="#FF14D9"/>
<path d="M8.80663 38.8153C8.80663 30.6417 12.1454 22.8028 18.0885 17.0231C24.0315 11.2434 32.092 7.99646 40.4968 7.99646C48.9015 7.99646 56.962 11.2434 62.9051 17.0231C68.8481 22.8028 72.1869 30.6416 72.1869 38.8153C65.2469 36.0696 61.5896 36.1492 55.4307 38.8153C55.4307 34.9635 53.8573 31.2694 51.0566 28.5458C48.256 25.8221 44.4575 24.292 40.4968 24.292C36.5361 24.292 32.7376 25.8221 29.9369 28.5458C27.1362 31.2694 25.5629 34.9635 25.5629 38.8153C20.1491 35.1067 16.5693 34.8147 8.80663 38.8153Z" fill="#F96FE3"/>
<path d="M71.383 40.8177C71.4092 58.5277 57.5758 72.8541 40.5477 72.8798C23.5196 72.9056 9.64407 58.6211 9.61791 40.9112C9.59176 23.2012 23.4251 8.87482 40.4532 8.84906C57.4813 8.82331 71.3569 23.1078 71.383 40.8177Z" stroke="#4D0C33" stroke-width="1.7"/>
<path d="M34 26.6014L55.2912 41.967L34 57.3326V26.6014Z" fill="white" stroke="black" stroke-width="2"/>
<defs>
<filter id="filter0_d_17_388" x="0.0523071" y="0.0535583" width="80.8954" height="80.8929" filterUnits="userSpaceOnUse" color-interpolation-filters="sRGB">
<feFlood flood-opacity="0" result="BackgroundImageFix"/>
<feColorMatrix in="SourceAlpha" type="matrix" values="0 0 0 0 0 0 0 0 0 0 0 0 0 0 0 0 0 0 127 0" result="hardAlpha"/>
<feMorphology radius="1" operator="dilate" in="SourceAlpha" result="effect1_dropShadow_17_388"/>
<feOffset/>
<feGaussianBlur stdDeviation="2"/>
<feComposite in2="hardAlpha" operator="out"/>
<feColorMatrix type="matrix" values="0 0 0 0 0 0 0 0 0 0 0 0 0 0 0 0 0 0 0.8 0"/>
<feBlend mode="normal" in2="BackgroundImageFix" result="effect1_dropShadow_17_388"/>
<feBlend mode="normal" in="SourceGraphic" in2="effect1_dropShadow_17_388" result="shape"/>
</filter>
</defs>
</svg>
