<svg width="43" height="43" viewBox="0 0 43 43" fill="none" xmlns="http://www.w3.org/2000/svg">
<mask id="mask0_6_130" style="mask-type:alpha" maskUnits="userSpaceOnUse" x="4" y="4" width="35" height="35">
<circle cx="21.5" cy="21.5" r="17.5" fill="#E9ED38"/>
</mask>
<g mask="url(#mask0_6_130)">
<rect x="-17.7241" y="-9.27586" width="82.8736" height="63.9655" fill="#FA4B14"/>
<path d="M44.6204 3.99999C28.1879 39.5046 16.8689 42.2229 -7.93866 9.3595L-4.42453 43.8216L48.1346 38.4621L44.6204 3.99999Z" fill="#B76161"/>
<path d="M25.52 26.16C25.52 28.016 25.608 29.344 25.784 30.144C25.784 30.304 25.44 30.472 24.752 30.648C24.064 30.824 23.472 30.912 22.976 30.912L22.328 30.84C22.264 30.744 22.232 30.416 22.232 29.856C22.232 29.296 22.264 28.088 22.328 26.232C21.416 26.28 19.984 26.304 18.032 26.304C16.096 26.304 15.096 26.272 15.032 26.208C14.888 26.064 14.768 25.832 14.672 25.512C14.576 25.176 14.52 24.88 14.504 24.624L14.48 24.264C14.48 23.832 15.44 22.16 17.36 19.248C19.28 16.336 20.752 14.32 21.776 13.2C21.888 13.088 22.2 13 22.712 12.936C23.224 12.872 23.728 12.84 24.224 12.84C24.72 12.84 24.968 12.912 24.968 13.056C24.968 13.088 24.96 13.112 24.944 13.128C23.952 14.264 23.456 14.896 23.456 15.024C24.896 15.056 25.616 15.176 25.616 15.384C25.536 17.8 25.496 20.24 25.496 22.704V23.616C26.296 23.616 26.784 23.6 26.96 23.568C27.152 23.52 27.248 23.544 27.248 23.64C27.248 24.088 27.128 24.576 26.888 25.104C26.664 25.632 26.488 25.96 26.36 26.088C26.344 26.104 26.064 26.128 25.52 26.16ZM19.832 23.688L22.424 23.664C22.536 20.976 22.592 19.096 22.592 18.024C22.592 16.936 22.568 16.392 22.52 16.392C22.168 16.744 21.336 17.928 20.024 19.944C18.712 21.944 18.056 23.152 18.056 23.568C18.056 23.648 18.648 23.688 19.832 23.688Z" fill="white"/>
</g>
<g filter="url(#filter0_f_6_130)">
<circle cx="21.5" cy="21.5" r="16.5" stroke="#835454" stroke-width="2"/>
</g>
<defs>
<filter id="filter0_f_6_130" x="0" y="0" width="43" height="43" filterUnits="userSpaceOnUse" color-interpolation-filters="sRGB">
<feFlood flood-opacity="0" result="BackgroundImageFix"/>
<feBlend mode="normal" in="SourceGraphic" in2="BackgroundImageFix" result="shape"/>
<feGaussianBlur stdDeviation="2" result="effect1_foregroundBlur_6_130"/>
</filter>
</defs>
</svg>
