<svg width="43" height="43" viewBox="0 0 43 43" fill="none" xmlns="http://www.w3.org/2000/svg">
<mask id="mask0_45_539" style="mask-type:alpha" maskUnits="userSpaceOnUse" x="4" y="4" width="35" height="35">
<circle cx="21.5" cy="21.5" r="17.5" fill="#B26060"/>
</mask>
<g mask="url(#mask0_45_539)">
<rect x="-17.7241" y="-9.27586" width="82.8736" height="63.9655" fill="#F2B20C"/>
<path d="M44.6204 4C28.1879 39.5046 16.8689 42.2229 -7.93866 9.3595L-4.42453 43.8216L48.1346 38.4621L44.6204 4Z" fill="#E9B80E"/>
</g>
<g filter="url(#filter0_f_45_539)">
<circle cx="21.5" cy="21.5" r="16.5" stroke="#BFB688" stroke-width="2"/>
</g>
<ellipse cx="16" cy="17.5" rx="2" ry="3.5" transform="rotate(9.12885 16 17.5)" fill="url(#paint0_linear_45_539)"/>
<path d="M15.4288 21.0544C16.0249 21.1502 16.6129 20.8119 17.0815 20.2307C17.5521 19.6469 17.9178 18.8014 18.0734 17.8332C18.229 16.8649 18.1466 15.9475 17.8826 15.2456C17.6197 14.5468 17.1672 14.0414 16.5712 13.9456C15.9751 13.8498 15.3871 14.1881 14.9185 14.7693C14.4479 15.3531 14.0822 16.1986 13.9266 17.1668C13.771 18.1351 13.8534 19.0525 14.1175 19.7544C14.3803 20.4532 14.8328 20.9586 15.4288 21.0544Z" stroke="black" stroke-opacity="0.5" stroke-width="0.2"/>
<ellipse cx="25.53" cy="17.773" rx="2" ry="3.5" transform="rotate(9.12885 25.53 17.773)" fill="url(#paint1_linear_45_539)"/>
<path d="M24.9588 21.3274C25.5548 21.4232 26.1429 21.0849 26.6115 20.5036C27.0821 19.9199 27.4478 19.0744 27.6034 18.1062C27.7589 17.1379 27.6765 16.2205 27.4125 15.5186C27.1496 14.8198 26.6971 14.3144 26.1011 14.2186C25.5051 14.1228 24.917 14.4611 24.4485 15.0423C23.9778 15.6261 23.6121 16.4715 23.4566 17.4398C23.301 18.4081 23.3834 19.3255 23.6474 20.0273C23.9103 20.7261 24.3628 21.2316 24.9588 21.3274Z" stroke="black" stroke-opacity="0.5" stroke-width="0.2"/>
<path d="M18.1483 17.9971C17.9908 18.9778 17.6145 19.8231 17.1388 20.3976C16.6614 20.974 16.0981 21.2632 15.5611 21.1769C15.0241 21.0906 14.5797 20.6395 14.3069 19.9425C14.0351 19.248 13.9427 18.3273 14.1003 17.3467C14.2579 16.366 14.6341 15.5207 15.1098 14.9462C15.5872 14.3698 16.1506 14.0806 16.6875 14.1669C17.2245 14.2531 17.6689 14.7043 17.9417 15.4013C18.2135 16.0958 18.3059 17.0165 18.1483 17.9971Z" stroke="#FDFDFD" stroke-opacity="0.5" stroke-width="0.2"/>
<path d="M27.7259 18.2701C27.5683 19.2508 27.1921 20.0961 26.7164 20.6705C26.239 21.247 25.6756 21.5362 25.1386 21.4499C24.6017 21.3636 24.1572 20.9125 23.8845 20.2155C23.6127 19.5209 23.5202 18.6003 23.6778 17.6196C23.8354 16.639 24.2116 15.7936 24.6873 15.2192C25.1647 14.6427 25.7281 14.3536 26.2651 14.4398C26.8021 14.5261 27.2465 14.9773 27.5192 15.6743C27.791 16.3688 27.8835 17.2895 27.7259 18.2701Z" stroke="#FDFDFD" stroke-opacity="0.5" stroke-width="0.2"/>
<path d="M19.6574 13.0652C19.9987 12.5383 19.8641 11.8249 19.2915 11.5674C18.8247 11.3576 18.3231 11.2009 17.7981 11.102C16.8833 10.9298 15.9203 10.9376 14.9785 11.125C14.0366 11.3123 13.1393 11.6744 12.3511 12.1854C11.8063 12.5385 11.323 12.9566 10.9168 13.4243C10.6342 13.7497 10.7787 14.2384 11.173 14.4124V14.4124C11.4849 14.5501 11.8469 14.4383 12.0682 14.179C12.3854 13.8076 12.7655 13.476 13.1955 13.1973C13.8004 12.8053 14.4889 12.5274 15.2116 12.3836C15.9229 12.232 16.6759 12.1827 17.215 12.318C17.323 12.3451 17.4325 12.371 17.5344 12.4158C17.8128 12.5383 18.0392 12.8274 18.2519 13.1378C18.6253 13.6828 19.2982 13.6196 19.6574 13.0652V13.0652Z" fill="#C8670D"/>
<path d="M22.0603 13.09C21.6413 12.683 21.592 12.015 22.0295 11.6281C22.4202 11.2825 22.8608 10.984 23.3405 10.7412C24.1375 10.3379 25.0225 10.0987 25.9319 10.0407C26.8412 9.98276 27.7524 10.1075 28.5998 10.4061C29.2004 10.6177 29.7584 10.9128 30.2542 11.2797C30.5799 11.5206 30.5646 11.9953 30.2561 12.2578V12.2578C29.9886 12.4854 29.595 12.4688 29.311 12.2623C28.9381 11.9911 28.5205 11.7723 28.0718 11.6142C27.4216 11.3851 26.7225 11.2894 26.0247 11.3338C25.3357 11.3676 24.6333 11.5123 24.1718 11.783C24.0788 11.8375 23.9842 11.8914 23.902 11.9612C23.6865 12.1444 23.5516 12.4647 23.4357 12.8061C23.2192 13.4444 22.5437 13.5596 22.0603 13.09V13.09Z" fill="#C8670D"/>
<path d="M14.8281 26.6329C20.7095 25.2158 23.8786 24.6193 26.7256 27.8853" stroke="black" stroke-width="0.5"/>
<defs>
<filter id="filter0_f_45_539" x="0" y="0" width="43" height="43" filterUnits="userSpaceOnUse" color-interpolation-filters="sRGB">
<feFlood flood-opacity="0" result="BackgroundImageFix"/>
<feBlend mode="normal" in="SourceGraphic" in2="BackgroundImageFix" result="shape"/>
<feGaussianBlur stdDeviation="2" result="effect1_foregroundBlur_45_539"/>
</filter>
<linearGradient id="paint0_linear_45_539" x1="16" y1="14" x2="16" y2="21" gradientUnits="userSpaceOnUse">
<stop stop-color="#855B0A"/>
<stop offset="0.25" stop-color="#9C6A09" stop-opacity="0.711864"/>
<stop offset="0.697917" stop-color="#A67008" stop-opacity="0.584981"/>
<stop offset="0.942708" stop-color="#B37908" stop-opacity="0.421846"/>
<stop offset="1" stop-color="#D58E06" stop-opacity="0"/>
</linearGradient>
<linearGradient id="paint1_linear_45_539" x1="25.53" y1="14.273" x2="25.53" y2="21.273" gradientUnits="userSpaceOnUse">
<stop stop-color="#855B0A"/>
<stop offset="0.25" stop-color="#9C6A09" stop-opacity="0.711864"/>
<stop offset="0.697917" stop-color="#A67008" stop-opacity="0.584981"/>
<stop offset="0.942708" stop-color="#B37908" stop-opacity="0.421846"/>
<stop offset="1" stop-color="#D58E06" stop-opacity="0"/>
</linearGradient>
</defs>
</svg>
