<svg width="43" height="43" fill="none" xmlns="http://www.w3.org/2000/svg"><mask id="a" style="mask-type:alpha" maskUnits="userSpaceOnUse" x="4" y="4" width="35" height="35"><circle cx="21.5" cy="21.5" r="17.5" fill="#B26060"/></mask><g mask="url(#a)"><path fill="#FA4B14" d="M-17.724-9.276H65.15v63.965h-82.874z"/><path d="M44.62 4C28.188 39.505 16.87 42.223-7.939 9.36l3.514 34.462 52.56-5.36L44.62 4z" fill="#EB3A3A"/></g><path d="M22.144 29.648c0 .112-.288.192-.864.24l-.264.024c-1.152 0-1.912-.128-2.28-.384-.144-.08-.216-.152-.216-.216 0-1.136.184-2.376.552-3.72.368-1.344.792-2.544 1.272-3.6a35.976 35.976 0 0 1 1.608-3.12c.768-1.344 1.432-2.408 1.992-3.192 0-.16-.608-.24-1.824-.24-1.2 0-2.008.208-2.424.624-.4.368-.672.952-.816 1.752l-.072.384c-.08.08-.416.024-1.008-.168-.576-.192-.92-.392-1.032-.6-.048-.08-.064-.784-.048-2.112.032-1.328.096-2.04.192-2.136.096-.096.744-.144 1.944-.144s2.128.008 2.784.024h1.848c1.552.032 2.608-.024 3.168-.168.176-.048.408.208.696.768s.432.992.432 1.296c-.272.192-.712.72-1.32 1.584-.592.864-1.224 1.92-1.896 3.168-.672 1.232-1.256 2.664-1.752 4.296-.496 1.632-.744 3.144-.744 4.536v.216c0 .432.024.728.072.888z" fill="#fff"/><g filter="url(#b)"><circle cx="21.5" cy="21.5" r="16.5" stroke="#A22B2B" stroke-width="2"/></g><defs><filter id="b" x="0" y="0" width="43" height="43" filterUnits="userSpaceOnUse" color-interpolation-filters="sRGB"><feFlood flood-opacity="0" result="BackgroundImageFix"/><feBlend in="SourceGraphic" in2="BackgroundImageFix" result="shape"/><feGaussianBlur stdDeviation="2" result="effect1_foregroundBlur_44_471"/></filter></defs></svg>