<svg width="43" height="43" fill="none" xmlns="http://www.w3.org/2000/svg"><mask id="a" style="mask-type:alpha" maskUnits="userSpaceOnUse" x="4" y="4" width="35" height="35"><circle cx="21.5" cy="21.5" r="17.5" fill="#AB4F27"/></mask><g mask="url(#a)"><path fill="#048C11" d="M-17.724-9.276H65.15v63.965h-82.874z"/><path d="M44.62 4C28.188 39.505 16.87 42.223-7.939 9.36l3.514 34.462 52.56-5.36L44.62 4z" fill="#297530"/><path d="m20.656 26.528.312.024c.688 0 1.376-.176 2.064-.528.4-.192.72-.504.96-.936.256-.448.384-.944.384-1.488 0-.56-.12-1.016-.36-1.368a2.54 2.54 0 0 0-.888-.816 4.393 4.393 0 0 0-1.272-.48 11.678 11.678 0 0 0-2.784-.312l-1.848.096-.048-1.008c0-1.728.088-3.224.264-4.488.192-1.28.304-1.936.336-1.968.032-.032.272-.048.72-.048.464 0 1.464-.04 3-.12 1.536-.08 2.704-.12 3.504-.12.816 0 1.264.04 1.344.12.16.224.24.68.24 1.368 0 .688-.04 1.072-.12 1.152a18.37 18.37 0 0 0-1.704-.072c-.608 0-1.24.008-1.896.024-1.424.064-2.184.144-2.28.24-.096.096-.144.488-.144 1.176 0 .672.016 1.016.048 1.032 1.616 0 3.112.368 4.488 1.104.528.272.984.592 1.368.96.4.368.728.848.984 1.44s.384 1.256.384 1.992c0 1.824-.792 3.248-2.376 4.272-1.584 1.024-3.68 1.536-6.288 1.536-1.088 0-1.728-.064-1.92-.192-.112-.112-.168-.928-.168-2.448s.048-2.328.144-2.424c.112-.112.456-.256 1.032-.432.592-.176 1.056-.264 1.392-.264 0 1.728.376 2.72 1.128 2.976z" fill="#fff"/></g><g filter="url(#b)"><circle cx="21.5" cy="21.5" r="16.5" stroke="#3B533E" stroke-width="2"/></g><defs><filter id="b" x="0" y="0" width="43" height="43" filterUnits="userSpaceOnUse" color-interpolation-filters="sRGB"><feFlood flood-opacity="0" result="BackgroundImageFix"/><feBlend in="SourceGraphic" in2="BackgroundImageFix" result="shape"/><feGaussianBlur stdDeviation="2" result="effect1_foregroundBlur_44_488"/></filter></defs></svg>