<svg width="43" height="43" viewBox="0 0 43 43" fill="none" xmlns="http://www.w3.org/2000/svg">
<mask id="mask0_6_128" style="mask-type:alpha" maskUnits="userSpaceOnUse" x="4" y="4" width="35" height="35">
<circle cx="21.5" cy="21.5" r="17.5" fill="#E9ED38"/>
</mask>
<g mask="url(#mask0_6_128)">
<rect x="-17.7241" y="-9.27586" width="82.8736" height="63.9655" fill="#E4B231"/>
<path d="M44.6204 3.99999C28.1879 39.5046 16.8689 42.2229 -7.93866 9.3595L-4.42453 43.8216L48.1346 38.4621L44.6204 3.99999Z" fill="#CA9227"/>
<path d="M19.08 19.848C19.272 19.88 19.552 19.896 19.92 19.896C20.304 19.896 20.712 19.824 21.144 19.68C21.592 19.52 21.912 19.328 22.104 19.104C22.456 18.72 22.632 18.352 22.632 18C22.632 17.456 22.352 17.048 21.792 16.776C21.248 16.504 20.664 16.368 20.04 16.368C18.968 16.368 18.056 16.48 17.304 16.704L16.968 16.824C16.856 16.824 16.8 16.632 16.8 16.248C16.8 15.864 16.84 15.44 16.92 14.976C17 14.512 17.088 14.232 17.184 14.136C17.936 13.912 18.8 13.8 19.776 13.8C20.768 13.8 21.592 13.856 22.248 13.968C22.92 14.08 23.56 14.272 24.168 14.544C24.776 14.8 25.256 15.184 25.608 15.696C25.96 16.208 26.136 16.84 26.136 17.592C26.136 18.344 25.872 18.992 25.344 19.536C24.832 20.08 24.296 20.448 23.736 20.64C23.656 20.672 23.656 20.704 23.736 20.736C23.832 20.768 23.96 20.816 24.12 20.88C24.28 20.928 24.568 21.064 24.984 21.288C25.4 21.512 25.76 21.776 26.064 22.08C26.384 22.368 26.672 22.784 26.928 23.328C27.184 23.856 27.312 24.512 27.312 25.296C27.312 26.08 27.08 26.824 26.616 27.528C26.168 28.232 25.568 28.784 24.816 29.184C23.312 29.984 21.592 30.384 19.656 30.384C18.264 30.384 17.184 30.264 16.416 30.024L16.032 29.904C15.968 29.824 15.896 29.368 15.816 28.536C15.752 27.704 15.72 27.008 15.72 26.448C15.72 25.872 15.728 25.504 15.744 25.344C15.76 25.264 15.952 25.168 16.32 25.056C16.704 24.928 17.048 24.864 17.352 24.864C17.656 24.864 17.808 24.88 17.808 24.912C17.808 25.76 18.016 26.456 18.432 27C18.848 27.528 19.576 27.792 20.616 27.792C21.656 27.792 22.472 27.528 23.064 27C23.672 26.456 23.976 25.856 23.976 25.2C23.976 24.528 23.784 24 23.4 23.616C23.016 23.232 22.504 22.96 21.864 22.8C20.824 22.512 19.688 22.368 18.456 22.368C18.392 22.368 18.36 22.352 18.36 22.32C18.36 21.6 18.528 20.896 18.864 20.208C18.976 19.968 19.048 19.848 19.08 19.848Z" fill="white"/>
</g>
<g filter="url(#filter0_f_6_128)">
<circle cx="21.5" cy="21.5" r="16.5" stroke="#835454" stroke-width="2"/>
</g>
<defs>
<filter id="filter0_f_6_128" x="0" y="0" width="43" height="43" filterUnits="userSpaceOnUse" color-interpolation-filters="sRGB">
<feFlood flood-opacity="0" result="BackgroundImageFix"/>
<feBlend mode="normal" in="SourceGraphic" in2="BackgroundImageFix" result="shape"/>
<feGaussianBlur stdDeviation="2" result="effect1_foregroundBlur_6_128"/>
</filter>
</defs>
</svg>
