<svg width="43" height="43" fill="none" xmlns="http://www.w3.org/2000/svg"><mask id="a" style="mask-type:alpha" maskUnits="userSpaceOnUse" x="4" y="4" width="35" height="35"><circle cx="21.5" cy="21.5" r="17.5" fill="#E9ED38"/></mask><g mask="url(#a)"><path fill="#47473E" d="M-17.724-9.276H65.15v63.965h-82.874z"/><path d="M44.62 4C28.188 39.505 16.87 42.223-7.939 9.36l3.514 34.462 52.56-5.36L44.62 4z" fill="#000"/></g><g filter="url(#b)"><circle cx="21.5" cy="21.5" r="16.5" stroke="#433838" stroke-width="2"/></g><path d="m22.928 14.528-.096 9.264c0 1.68.04 2.56.12 2.64.272-.016.536-.024.792-.024.272 0 .424.016.456.048.08.336.12.824.12 1.464s-.04.96-.12.96h-.6c-1.504 0-2.848.088-4.032.264l-.648.096c-.08-.064-.12-.456-.12-1.176 0-.736.048-1.152.144-1.248l.984-.168c-.016-.224-.024-.64-.024-1.248L20 18.632c0-1.424-.056-2.192-.168-2.304-.016-.016-.088-.024-.216-.024s-.368.032-.72.096c-.336.048-.648.104-.936.168a4.619 4.619 0 0 1-.456.096c-.016 0-.024-.304-.024-.912 0-.608.08-.992.24-1.152.16-.16.96-.504 2.4-1.032 1.456-.544 2.344-.816 2.664-.816.048 0 .072.008.072.024.048.048.072.632.072 1.752z" fill="#fff"/><defs><filter id="b" x="0" y="0" width="43" height="43" filterUnits="userSpaceOnUse" color-interpolation-filters="sRGB"><feFlood flood-opacity="0" result="BackgroundImageFix"/><feBlend in="SourceGraphic" in2="BackgroundImageFix" result="shape"/><feGaussianBlur stdDeviation="2" result="effect1_foregroundBlur_44_448"/></filter></defs></svg>