<svg width="43" height="43" fill="none" xmlns="http://www.w3.org/2000/svg"><mask id="a" style="mask-type:alpha" maskUnits="userSpaceOnUse" x="4" y="4" width="35" height="35"><circle cx="21.5" cy="21.5" r="17.5" fill="#AB4F27"/></mask><g mask="url(#a)"><path fill="#C65F33" d="M-17.724-9.276H65.15v63.965h-82.874z"/><path d="M44.62 4C28.188 39.505 16.87 42.223-7.939 9.36l3.514 34.462 52.56-5.36L44.62 4z" fill="#BE4410"/><path d="M25.52 25.16c0 1.856.088 3.184.264 3.984 0 .16-.344.328-1.032.504-.688.176-1.28.264-1.776.264l-.648-.072c-.064-.096-.096-.424-.096-.984s.032-1.768.096-3.624c-.912.048-2.344.072-4.296.072-1.936 0-2.936-.032-3-.096-.144-.144-.264-.376-.36-.696a4.258 4.258 0 0 1-.168-.888l-.024-.36c0-.432.96-2.104 2.88-5.016s3.392-4.928 4.416-6.048c.112-.112.424-.2.936-.264a12.183 12.183 0 0 1 1.512-.096c.496 0 .744.072.744.216 0 .032-.008.056-.024.072-.992 1.136-1.488 1.768-1.488 1.896 1.44.032 2.16.152 2.16.36-.08 2.416-.12 4.856-.12 7.32v.912c.8 0 1.288-.016 1.464-.048.192-.048.288-.024.288.072 0 .448-.12.936-.36 1.464-.224.528-.4.856-.528.984-.016.016-.296.04-.84.072zm-5.688-2.472 2.592-.024c.112-2.688.168-4.568.168-5.64 0-1.088-.024-1.632-.072-1.632-.352.352-1.184 1.536-2.496 3.552-1.312 2-1.968 3.208-1.968 3.624 0 .08.592.12 1.776.12z" fill="#fff"/></g><g filter="url(#b)"><circle cx="21.5" cy="21.5" r="16.5" stroke="#7B432B" stroke-width="2"/></g><defs><filter id="b" x="0" y="0" width="43" height="43" filterUnits="userSpaceOnUse" color-interpolation-filters="sRGB"><feFlood flood-opacity="0" result="BackgroundImageFix"/><feBlend in="SourceGraphic" in2="BackgroundImageFix" result="shape"/><feGaussianBlur stdDeviation="2" result="effect1_foregroundBlur_44_479"/></filter></defs></svg>