<svg width="43" height="43" viewBox="0 0 43 43" fill="none" xmlns="http://www.w3.org/2000/svg">
<mask id="mask0_6_120" style="mask-type:alpha" maskUnits="userSpaceOnUse" x="4" y="4" width="35" height="35">
<circle cx="21.5" cy="21.5" r="17.5" fill="#E9ED38"/>
</mask>
<g mask="url(#mask0_6_120)">
<rect x="-17.7241" y="-9.27586" width="82.8736" height="63.9655" fill="#DBDCC5"/>
<path d="M44.6204 4C28.1879 39.5046 16.8689 42.2229 -7.93866 9.3595L-4.42453 43.8216L48.1346 38.4621L44.6204 4Z" fill="#BCBCB0"/>
</g>
<g filter="url(#filter0_f_6_120)">
<circle cx="21.5" cy="21.5" r="16.5" stroke="#835454" stroke-width="2"/>
</g>
<path d="M22.896 30.192C22.896 30.192 21.448 30.136 18.552 30.024C17.64 30.024 16.968 30.04 16.536 30.072C16.104 30.104 15.872 30.12 15.84 30.12C15.76 30.056 15.72 29.64 15.72 28.872C15.72 28.088 15.784 27.608 15.912 27.432C17.176 26.248 18.44 24.952 19.704 23.544C22.168 20.808 23.4 18.936 23.4 17.928C23.4 16.92 22.648 16.416 21.144 16.416C19.928 16.416 19.096 16.848 18.648 17.712C18.328 18.304 18.104 18.952 17.976 19.656C17.944 19.688 17.816 19.704 17.592 19.704C17.384 19.704 17.08 19.664 16.68 19.584C16.296 19.504 16.072 19.432 16.008 19.368C15.944 19.304 15.912 19 15.912 18.456C15.912 17.896 15.944 17.176 16.008 16.296C16.072 15.4 16.136 14.928 16.2 14.88C16.264 14.816 16.536 14.72 17.016 14.592C18.36 14.224 19.832 14.04 21.432 14.04C23.048 14.04 24.336 14.376 25.296 15.048C26.272 15.704 26.76 16.552 26.76 17.592C26.76 18.728 26.008 20.24 24.504 22.128C23.32 23.616 22.032 25.112 20.64 26.616L19.968 27.36C19.92 27.472 20.376 27.528 21.336 27.528C23.96 27.528 25.8 27.36 26.856 27.024C26.904 27.024 26.928 27.04 26.928 27.072C26.928 27.488 26.848 28.024 26.688 28.68C26.544 29.32 26.376 29.736 26.184 29.928C26.008 30.104 24.912 30.192 22.896 30.192Z" fill="#FDFDFD"/>
<defs>
<filter id="filter0_f_6_120" x="0" y="0" width="43" height="43" filterUnits="userSpaceOnUse" color-interpolation-filters="sRGB">
<feFlood flood-opacity="0" result="BackgroundImageFix"/>
<feBlend mode="normal" in="SourceGraphic" in2="BackgroundImageFix" result="shape"/>
<feGaussianBlur stdDeviation="2" result="effect1_foregroundBlur_6_120"/>
</filter>
</defs>
</svg>
