<svg width="43" height="43" fill="none" xmlns="http://www.w3.org/2000/svg"><mask id="a" style="mask-type:alpha" maskUnits="userSpaceOnUse" x="4" y="4" width="35" height="35"><circle cx="21.5" cy="21.5" r="17.5" fill="#AB4F27"/></mask><g mask="url(#a)"><path fill="#E9ED31" d="M-17.724-9.276H65.15v63.965h-82.874z"/><path d="M44.62 4C28.188 39.505 16.87 42.223-7.939 9.36l3.514 34.462 52.56-5.36L44.62 4z" fill="#DADE16"/></g><path d="M18.888 22.688c0 1.168.272 2.08.816 2.736.56.656 1.32.984 2.28.984.704 0 1.312-.232 1.824-.696.512-.464.768-1.064.768-1.8 0-1.632-1.264-2.448-3.792-2.448-.656 0-1.272.088-1.848.264-.032.384-.048.704-.048.96zm7.08-7.392a15.838 15.838 0 0 0-.888-.048c-1.296 0-2.44.36-3.432 1.08-.992.72-1.68 1.616-2.064 2.688.48-.112 1.08-.168 1.8-.168 1.968 0 3.512.432 4.632 1.296 1.12.864 1.68 1.992 1.68 3.384 0 .96-.184 1.816-.552 2.568-.352.736-.816 1.32-1.392 1.752-1.184.848-2.488 1.272-3.912 1.272-.976 0-1.848-.168-2.616-.504-.752-.336-1.344-.744-1.776-1.224a6.362 6.362 0 0 1-1.056-1.704c-.448-1.056-.672-2.072-.672-3.048 0-.992.112-1.928.336-2.808.224-.896.584-1.776 1.08-2.64a10.153 10.153 0 0 1 1.8-2.304c.704-.672 1.576-1.208 2.616-1.608 1.04-.416 2.176-.624 3.408-.624.256 0 .4.016.432.048.416.544.624 1.36.624 2.448 0 .096-.016.144-.048.144z" fill="#000"/><g filter="url(#b)"><circle cx="21.5" cy="21.5" r="16.5" stroke="#C8CA53" stroke-width="2"/></g><defs><filter id="b" x="0" y="0" width="43" height="43" filterUnits="userSpaceOnUse" color-interpolation-filters="sRGB"><feFlood flood-opacity="0" result="BackgroundImageFix"/><feBlend in="SourceGraphic" in2="BackgroundImageFix" result="shape"/><feGaussianBlur stdDeviation="2" result="effect1_foregroundBlur_44_496"/></filter></defs></svg>