<svg width="43" height="43" fill="none" xmlns="http://www.w3.org/2000/svg"><mask id="a" style="mask-type:alpha" maskUnits="userSpaceOnUse" x="4" y="4" width="35" height="35"><circle cx="21.5" cy="21.5" r="17.5" fill="#B26060"/></mask><g mask="url(#a)"><path fill="#F3E9E6" d="M-17.724-9.276H65.15v63.965h-82.874z"/><path d="M44.62 4C28.188 39.505 16.87 42.223-7.939 9.36l3.514 34.462 52.56-5.36L44.62 4z" fill="#E7D8D8"/></g><path d="M21.96 26.72c.896 0 1.64-.264 2.232-.792.608-.528.912-1.056.912-1.584 0-.544-.248-1.048-.744-1.512-.496-.48-.992-.824-1.488-1.032-.48-.208-.792-.312-.936-.312-.144 0-.416.128-.816.384-.384.24-.792.624-1.224 1.152-.432.528-.648 1.056-.648 1.584s.232 1.016.696 1.464c.464.432 1.136.648 2.016.648zm.408-7.992c.256 0 .68-.248 1.272-.744.608-.512.912-.96.912-1.344 0-.384-.2-.712-.6-.984-.384-.288-.888-.432-1.512-.432a3.04 3.04 0 0 0-1.704.504c-.496.336-.744.736-.744 1.2 0 .464.336.88 1.008 1.248.672.368 1.128.552 1.368.552zm6.12 5.304c0 1.44-.64 2.68-1.92 3.72-1.264 1.024-2.8 1.536-4.608 1.536-1.808 0-3.304-.416-4.488-1.248-1.168-.832-1.752-1.872-1.752-3.12 0-1.008.424-2 1.272-2.976.432-.496 1.048-.992 1.848-1.488l.216-.12v-.096c-1.68-.832-2.52-1.856-2.52-3.072 0-.736.208-1.4.624-1.992a4.34 4.34 0 0 1 1.584-1.416c1.28-.688 2.56-1.032 3.84-1.032 1.92 0 3.392.56 4.416 1.68.528.576.792 1.216.792 1.92s-.304 1.4-.912 2.088c-.592.672-1.232 1.184-1.92 1.536-.064.048-.08.088-.048.12.048.016.208.096.48.24.272.128.512.256.72.384.224.128.488.32.792.576.32.24.584.48.792.72.528.64.792 1.32.792 2.04z" fill="#060606"/><g filter="url(#b)"><circle cx="21.5" cy="21.5" r="16.5" stroke="#C4C0C0" stroke-width="2"/></g><defs><filter id="b" x="0" y="0" width="43" height="43" filterUnits="userSpaceOnUse" color-interpolation-filters="sRGB"><feFlood flood-opacity="0" result="BackgroundImageFix"/><feBlend in="SourceGraphic" in2="BackgroundImageFix" result="shape"/><feGaussianBlur stdDeviation="2" result="effect1_foregroundBlur_53_2"/></filter></defs></svg>