<svg width="43" height="43" viewBox="0 0 43 43" fill="none" xmlns="http://www.w3.org/2000/svg">
<mask id="mask0_6_112" style="mask-type:alpha" maskUnits="userSpaceOnUse" x="4" y="4" width="35" height="35">
<circle cx="21.5" cy="21.5" r="17.5" fill="#E9ED38"/>
</mask>
<g mask="url(#mask0_6_112)">
<rect x="-17.7241" y="-9.27585" width="82.8736" height="63.9655" fill="#4FE836"/>
<path d="M44.6204 3.99999C28.1879 39.5046 16.8689 42.2229 -7.93866 9.3595L-4.42453 43.8216L48.1346 38.4621L44.6204 3.99999Z" fill="#1CC957"/>
<path d="M20.656 28.528L20.968 28.552C21.656 28.552 22.344 28.376 23.032 28.024C23.432 27.832 23.752 27.52 23.992 27.088C24.248 26.64 24.376 26.144 24.376 25.6C24.376 25.04 24.256 24.584 24.016 24.232C23.776 23.88 23.48 23.608 23.128 23.416C22.776 23.208 22.352 23.048 21.856 22.936C21.008 22.728 20.08 22.624 19.072 22.624L17.224 22.72L17.176 21.712C17.176 19.984 17.264 18.488 17.44 17.224C17.632 15.944 17.744 15.288 17.776 15.256C17.808 15.224 18.048 15.208 18.496 15.208C18.96 15.208 19.96 15.168 21.496 15.088C23.032 15.008 24.2 14.968 25 14.968C25.816 14.968 26.264 15.008 26.344 15.088C26.504 15.312 26.584 15.768 26.584 16.456C26.584 17.144 26.544 17.528 26.464 17.608C25.952 17.56 25.384 17.536 24.76 17.536C24.152 17.536 23.52 17.544 22.864 17.56C21.44 17.624 20.68 17.704 20.584 17.8C20.488 17.896 20.44 18.288 20.44 18.976C20.44 19.648 20.456 19.992 20.488 20.008C22.104 20.008 23.6 20.376 24.976 21.112C25.504 21.384 25.96 21.704 26.344 22.072C26.744 22.44 27.072 22.92 27.328 23.512C27.584 24.104 27.712 24.768 27.712 25.504C27.712 27.328 26.92 28.752 25.336 29.776C23.752 30.8 21.656 31.312 19.048 31.312C17.96 31.312 17.32 31.248 17.128 31.12C17.016 31.008 16.96 30.192 16.96 28.672C16.96 27.152 17.008 26.344 17.104 26.248C17.216 26.136 17.56 25.992 18.136 25.816C18.728 25.64 19.192 25.552 19.528 25.552C19.528 27.28 19.904 28.272 20.656 28.528Z" fill="white"/>
</g>
<g filter="url(#filter0_f_6_112)">
<circle cx="21.5" cy="21.5" r="16.5" stroke="#835454" stroke-width="2"/>
</g>
<defs>
<filter id="filter0_f_6_112" x="0" y="0" width="43" height="43" filterUnits="userSpaceOnUse" color-interpolation-filters="sRGB">
<feFlood flood-opacity="0" result="BackgroundImageFix"/>
<feBlend mode="normal" in="SourceGraphic" in2="BackgroundImageFix" result="shape"/>
<feGaussianBlur stdDeviation="2" result="effect1_foregroundBlur_6_112"/>
</filter>
</defs>
</svg>
