<svg width="43" height="43" fill="none" xmlns="http://www.w3.org/2000/svg"><mask id="a" style="mask-type:alpha" maskUnits="userSpaceOnUse" x="4" y="4" width="35" height="35"><circle cx="21.5" cy="21.5" r="17.5" fill="#B098F3"/></mask><g mask="url(#a)"><path fill="#5C45EC" d="M-17.724-9.276H65.15v63.965h-82.874z"/><path d="M44.62 4C28.188 39.505 16.87 42.223-7.939 9.36l3.514 34.462 52.56-5.36L44.62 4z" fill="#3B0BF8"/></g><g filter="url(#b)"><circle cx="21.5" cy="21.5" r="16.5" stroke="#776FDA" stroke-width="2"/></g><path d="M20.08 18.848c.192.032.472.048.84.048.384 0 .792-.072 1.224-.216.448-.16.768-.352.96-.576.352-.384.528-.752.528-1.104 0-.544-.28-.952-.84-1.224a3.864 3.864 0 0 0-1.752-.408c-1.072 0-1.984.112-2.736.336l-.336.12c-.112 0-.168-.192-.168-.576 0-.384.04-.808.12-1.272.08-.464.168-.744.264-.84.752-.224 1.616-.336 2.592-.336.992 0 1.816.056 2.472.168a7.835 7.835 0 0 1 1.92.576c.608.256 1.088.64 1.44 1.152.352.512.528 1.144.528 1.896s-.264 1.4-.792 1.944c-.512.544-1.048.912-1.608 1.104-.08.032-.08.064 0 .096.096.032.224.08.384.144.16.048.448.184.864.408.416.224.776.488 1.08.792.32.288.608.704.864 1.248.256.528.384 1.184.384 1.968s-.232 1.528-.696 2.232a4.723 4.723 0 0 1-1.8 1.656c-1.504.8-3.224 1.2-5.16 1.2-1.392 0-2.472-.12-3.24-.36l-.384-.12c-.064-.08-.136-.536-.216-1.368a28.046 28.046 0 0 1-.096-2.088c0-.576.008-.944.024-1.104.016-.08.208-.176.576-.288a3.306 3.306 0 0 1 1.032-.192c.304 0 .456.016.456.048 0 .848.208 1.544.624 2.088.416.528 1.144.792 2.184.792 1.04 0 1.856-.264 2.448-.792.608-.544.912-1.144.912-1.8 0-.672-.192-1.2-.576-1.584-.384-.384-.896-.656-1.536-.816-1.04-.288-2.176-.432-3.408-.432-.064 0-.096-.016-.096-.048 0-.72.168-1.424.504-2.112.112-.24.184-.36.216-.36z" fill="#F8F8F8"/><defs><filter id="b" x="0" y="0" width="43" height="43" filterUnits="userSpaceOnUse" color-interpolation-filters="sRGB"><feFlood flood-opacity="0" result="BackgroundImageFix"/><feBlend in="SourceGraphic" in2="BackgroundImageFix" result="shape"/><feGaussianBlur stdDeviation="2" result="effect1_foregroundBlur_44_449"/></filter></defs></svg>