<svg width="43" height="43" fill="none" xmlns="http://www.w3.org/2000/svg"><mask id="a" style="mask-type:alpha" maskUnits="userSpaceOnUse" x="4" y="4" width="35" height="35"><circle cx="21.5" cy="21.5" r="17.5" fill="#C9CC42"/></mask><g mask="url(#a)"><path fill="#E333DC" d="M-17.724-9.276H65.15v63.965h-82.874z"/><path d="M44.62 4C28.188 39.505 16.87 42.223-7.939 9.36l3.514 34.462 52.56-5.36L44.62 4z" fill="#D51DCD"/><path d="m23.896 29.192-4.344-.168c-.912 0-1.584.016-2.016.048a29.99 29.99 0 0 1-.696.048c-.08-.064-.12-.48-.12-1.248 0-.784.064-1.264.192-1.44a62.863 62.863 0 0 0 3.792-3.888c2.464-2.736 3.696-4.608 3.696-5.616s-.752-1.512-2.256-1.512c-1.216 0-2.048.432-2.496 1.296a6.507 6.507 0 0 0-.672 1.944c-.032.032-.16.048-.384.048-.208 0-.512-.04-.912-.12-.384-.08-.608-.152-.672-.216-.064-.064-.096-.368-.096-.912 0-.56.032-1.28.096-2.16.064-.896.128-1.368.192-1.416.064-.064.336-.16.816-.288 1.344-.368 2.816-.552 4.416-.552 1.616 0 2.904.336 3.864 1.008.976.656 1.464 1.504 1.464 2.544 0 1.136-.752 2.648-2.256 4.536a79.428 79.428 0 0 1-3.864 4.488l-.672.744c-.048.112.408.168 1.368.168 2.624 0 4.464-.168 5.52-.504.048 0 .072.016.072.048 0 .416-.08.952-.24 1.608-.144.64-.312 1.056-.504 1.248-.176.176-1.272.264-3.288.264z" fill="#fff"/></g><g filter="url(#b)"><circle cx="21.5" cy="21.5" r="16.5" stroke="#DD65F0" stroke-width="2"/></g><defs><filter id="b" x="0" y="0" width="43" height="43" filterUnits="userSpaceOnUse" color-interpolation-filters="sRGB"><feFlood flood-opacity="0" result="BackgroundImageFix"/><feBlend in="SourceGraphic" in2="BackgroundImageFix" result="shape"/><feGaussianBlur stdDeviation="2" result="effect1_foregroundBlur_44_453"/></filter></defs></svg>