<svg width="69" height="64" viewBox="0 0 69 64" fill="none" xmlns="http://www.w3.org/2000/svg">
<path d="M35.7939 3.17114L44.7403 18.4253C45.3943 19.5404 46.4963 20.3204 47.7654 20.5665L65.4334 23.9925C66.5987 24.2184 67.0523 25.6442 66.2318 26.5019L54.1685 39.1129C53.2379 40.0857 52.7917 41.4241 52.9525 42.7608L55.0125 59.8908C55.1512 61.0442 53.9827 61.9107 52.9193 61.443L36.3118 54.1382C35.1573 53.6304 33.8427 53.6304 32.6882 54.1382L16.0807 61.443C15.0173 61.9107 13.8488 61.0442 13.9875 59.8908L16.0475 42.7608C16.2083 41.4241 15.7621 40.0857 14.8315 39.1129L2.76817 26.5019C1.94768 25.6442 2.40129 24.2184 3.56656 23.9925L21.2346 20.5665C22.5037 20.3204 23.6057 19.5404 24.2597 18.4253L33.2061 3.17114C33.7857 2.18295 35.2143 2.18294 35.7939 3.17114Z" stroke="black" stroke-width="3"/>
</svg>
