<svg width="318" height="456" viewBox="0 0 318 456" fill="none" xmlns="http://www.w3.org/2000/svg">
<g filter="url(#filter0_f_49_577)">
<path d="M154.653 238.814L137.181 4.60908L168.202 4L154.653 238.814Z" fill="url(#paint0_linear_49_577)"/>
<path d="M154.695 238.854L205.641 8.57061L234.291 25.4101L154.695 238.854Z" fill="url(#paint1_linear_49_577)"/>
<path d="M154.653 238.814L256.879 55.5763L279.275 85.8946L154.653 238.814Z" fill="url(#paint2_linear_49_577)"/>
<path d="M154.695 238.854L300.363 112.811L314 152.136L154.695 238.854Z" fill="url(#paint3_linear_49_577)"/>
<path d="M154.653 238.814L73.6092 35.2571L101.902 17.3533L154.653 238.814Z" fill="url(#paint4_linear_49_577)"/>
<path d="M154.653 238.814L31.864 78.6255L55.1376 49.7348L154.653 238.814Z" fill="url(#paint5_linear_49_577)"/>
<path d="M154.695 238.854L4.04858 146.539L18.8561 108.117L154.695 238.854Z" fill="url(#paint6_linear_49_577)"/>
<path d="M154.653 238.891L137.181 451.447L168.202 452L154.653 238.891Z" fill="url(#paint7_linear_49_577)"/>
<path d="M154.695 238.854L205.641 447.852L234.291 432.569L154.695 238.854Z" fill="url(#paint8_linear_49_577)"/>
<path d="M154.653 238.891L256.879 405.191L279.275 377.675L154.653 238.891Z" fill="url(#paint9_linear_49_577)"/>
<path d="M154.695 238.854L300.363 353.246L314 317.556L154.695 238.854Z" fill="url(#paint10_linear_49_577)"/>
<path d="M154.653 238.891L73.6092 423.632L101.902 439.881L154.653 238.891Z" fill="url(#paint11_linear_49_577)"/>
<path d="M154.653 238.891L31.864 384.272L55.1376 410.493L154.653 238.891Z" fill="url(#paint12_linear_49_577)"/>
<path d="M154.695 238.854L4.04858 322.636L18.8561 357.507L154.695 238.854Z" fill="url(#paint13_linear_49_577)"/>
</g>
<defs>
<filter id="filter0_f_49_577" x="0.048584" y="0" width="317.951" height="456" filterUnits="userSpaceOnUse" color-interpolation-filters="sRGB">
<feFlood flood-opacity="0" result="BackgroundImageFix"/>
<feBlend mode="normal" in="SourceGraphic" in2="BackgroundImageFix" result="shape"/>
<feGaussianBlur stdDeviation="2" result="effect1_foregroundBlur_49_577"/>
</filter>
<linearGradient id="paint0_linear_49_577" x1="171.327" y1="568.892" x2="39.1391" y2="-37.4764" gradientUnits="userSpaceOnUse">
<stop stop-color="white"/>
<stop offset="0.482525" stop-color="#FAFAFA" stop-opacity="0.484375"/>
<stop offset="0.848153" stop-color="#CECFD9" stop-opacity="0"/>
</linearGradient>
<linearGradient id="paint1_linear_49_577" x1="171.327" y1="568.892" x2="39.1391" y2="-37.4764" gradientUnits="userSpaceOnUse">
<stop stop-color="white"/>
<stop offset="0.482525" stop-color="#FAFAFA" stop-opacity="0.484375"/>
<stop offset="0.848153" stop-color="#CECFD9" stop-opacity="0"/>
</linearGradient>
<linearGradient id="paint2_linear_49_577" x1="171.327" y1="568.892" x2="39.1391" y2="-37.4764" gradientUnits="userSpaceOnUse">
<stop stop-color="white"/>
<stop offset="0.482525" stop-color="#FAFAFA" stop-opacity="0.484375"/>
<stop offset="0.848153" stop-color="#CECFD9" stop-opacity="0"/>
</linearGradient>
<linearGradient id="paint3_linear_49_577" x1="171.327" y1="568.892" x2="39.1391" y2="-37.4764" gradientUnits="userSpaceOnUse">
<stop stop-color="white"/>
<stop offset="0.482525" stop-color="#FAFAFA" stop-opacity="0.484375"/>
<stop offset="0.848153" stop-color="#CECFD9" stop-opacity="0"/>
</linearGradient>
<linearGradient id="paint4_linear_49_577" x1="171.327" y1="568.892" x2="39.1391" y2="-37.4764" gradientUnits="userSpaceOnUse">
<stop stop-color="white"/>
<stop offset="0.482525" stop-color="#FAFAFA" stop-opacity="0.484375"/>
<stop offset="0.848153" stop-color="#CECFD9" stop-opacity="0"/>
</linearGradient>
<linearGradient id="paint5_linear_49_577" x1="171.327" y1="568.892" x2="39.1391" y2="-37.4764" gradientUnits="userSpaceOnUse">
<stop stop-color="white"/>
<stop offset="0.482525" stop-color="#FAFAFA" stop-opacity="0.484375"/>
<stop offset="0.848153" stop-color="#CECFD9" stop-opacity="0"/>
</linearGradient>
<linearGradient id="paint6_linear_49_577" x1="171.327" y1="568.892" x2="39.1391" y2="-37.4764" gradientUnits="userSpaceOnUse">
<stop stop-color="white"/>
<stop offset="0.482525" stop-color="#FAFAFA" stop-opacity="0.484375"/>
<stop offset="0.848153" stop-color="#CECFD9" stop-opacity="0"/>
</linearGradient>
<linearGradient id="paint7_linear_49_577" x1="171.327" y1="-60.6776" x2="61.5686" y2="494.08" gradientUnits="userSpaceOnUse">
<stop stop-color="white"/>
<stop offset="0.482525" stop-color="#FAFAFA" stop-opacity="0.484375"/>
<stop offset="0.848153" stop-color="#CECFD9" stop-opacity="0"/>
</linearGradient>
<linearGradient id="paint8_linear_49_577" x1="171.327" y1="-60.6776" x2="61.5686" y2="494.08" gradientUnits="userSpaceOnUse">
<stop stop-color="white"/>
<stop offset="0.482525" stop-color="#FAFAFA" stop-opacity="0.484375"/>
<stop offset="0.848153" stop-color="#CECFD9" stop-opacity="0"/>
</linearGradient>
<linearGradient id="paint9_linear_49_577" x1="171.327" y1="-60.6776" x2="61.5686" y2="494.08" gradientUnits="userSpaceOnUse">
<stop stop-color="white"/>
<stop offset="0.482525" stop-color="#FAFAFA" stop-opacity="0.484375"/>
<stop offset="0.848153" stop-color="#CECFD9" stop-opacity="0"/>
</linearGradient>
<linearGradient id="paint10_linear_49_577" x1="171.327" y1="-60.6776" x2="61.5686" y2="494.08" gradientUnits="userSpaceOnUse">
<stop stop-color="white"/>
<stop offset="0.482525" stop-color="#FAFAFA" stop-opacity="0.484375"/>
<stop offset="0.848153" stop-color="#CECFD9" stop-opacity="0"/>
</linearGradient>
<linearGradient id="paint11_linear_49_577" x1="171.327" y1="-60.6776" x2="61.5686" y2="494.08" gradientUnits="userSpaceOnUse">
<stop stop-color="white"/>
<stop offset="0.482525" stop-color="#FAFAFA" stop-opacity="0.484375"/>
<stop offset="0.848153" stop-color="#CECFD9" stop-opacity="0"/>
</linearGradient>
<linearGradient id="paint12_linear_49_577" x1="171.327" y1="-60.6776" x2="61.5686" y2="494.08" gradientUnits="userSpaceOnUse">
<stop stop-color="white"/>
<stop offset="0.482525" stop-color="#FAFAFA" stop-opacity="0.484375"/>
<stop offset="0.848153" stop-color="#CECFD9" stop-opacity="0"/>
</linearGradient>
<linearGradient id="paint13_linear_49_577" x1="171.327" y1="-60.6776" x2="61.5686" y2="494.08" gradientUnits="userSpaceOnUse">
<stop stop-color="white"/>
<stop offset="0.482525" stop-color="#FAFAFA" stop-opacity="0.484375"/>
<stop offset="0.848153" stop-color="#CECFD9" stop-opacity="0"/>
</linearGradient>
</defs>
</svg>
