<svg width="97" height="94" viewBox="0 0 97 94" fill="none" xmlns="http://www.w3.org/2000/svg">
<path d="M49.813 2.47844L63.3728 27.0227C64.0087 28.1738 65.1163 28.9891 66.4044 29.2542L93.568 34.8459C94.7034 35.0797 95.1559 36.458 94.3799 37.3192L75.56 58.2052C74.6974 59.1625 74.2866 60.4436 74.4316 61.7241L77.6174 89.8468C77.7493 91.0115 76.5543 91.8707 75.4923 91.3748L50.4039 79.6601C49.1972 79.0966 47.8028 79.0966 46.5961 79.6601L21.5077 91.3748C20.4457 91.8707 19.2507 91.0115 19.3826 89.8468L22.5684 61.7241C22.7135 60.4436 22.3026 59.1625 21.44 58.2052L2.62014 37.3192C1.84414 36.458 2.29662 35.0797 3.43205 34.8459L30.5956 29.2542C31.8837 28.9891 32.9913 28.1738 33.6272 27.0227L47.187 2.47844C47.7577 1.44559 49.2423 1.44559 49.813 2.47844Z" stroke="black" stroke-width="3"/>
</svg>
