<svg width="318" height="456" fill="none" xmlns="http://www.w3.org/2000/svg"><g filter="url(#a)"><path d="M154.653 238.814 137.181 4.609 168.202 4l-13.549 234.814z" fill="url(#b)"/><path d="M154.695 238.854 205.641 8.571l28.65 16.84-79.596 213.443z" fill="url(#c)"/><path d="M154.653 238.814 256.879 55.576l22.396 30.319-124.622 152.919z" fill="url(#d)"/><path d="m154.695 238.854 145.668-126.043L314 152.136l-159.305 86.718z" fill="url(#e)"/><path d="M154.653 238.814 73.609 35.257l28.293-17.904 52.751 221.461z" fill="url(#f)"/><path d="M154.653 238.814 31.864 78.626l23.274-28.891 99.515 189.079z" fill="url(#g)"/><path d="M154.695 238.854 4.049 146.539l14.807-38.422 135.839 130.737z" fill="url(#h)"/><path d="m154.653 238.891-17.472 212.556 31.021.553-13.549-213.109z" fill="url(#i)"/><path d="m154.695 238.854 50.946 208.998 28.65-15.283-79.596-193.715z" fill="url(#j)"/><path d="m154.653 238.891 102.226 166.3 22.396-27.516-124.622-138.784z" fill="url(#k)"/><path d="m154.695 238.854 145.668 114.392L314 317.556l-159.305-78.702z" fill="url(#l)"/><path d="M154.653 238.891 73.609 423.632l28.293 16.249 52.751-200.99z" fill="url(#m)"/><path d="M154.653 238.891 31.864 384.272l23.274 26.221 99.515-171.602z" fill="url(#n)"/><path d="M154.695 238.854 4.049 322.636l14.807 34.871 135.839-118.653z" fill="url(#o)"/></g><defs><linearGradient id="h" x1="171.327" y1="568.892" x2="39.139" y2="-37.476" gradientUnits="userSpaceOnUse"><stop stop-color="#fff"/><stop offset=".483" stop-color="#FAFAFA" stop-opacity=".484"/><stop offset=".848" stop-color="#CECFD9" stop-opacity="0"/></linearGradient><linearGradient id="o" x1="171.327" y1="-60.678" x2="61.569" y2="494.08" gradientUnits="userSpaceOnUse"><stop stop-color="#fff"/><stop offset=".483" stop-color="#FAFAFA" stop-opacity=".484"/><stop offset=".848" stop-color="#CECFD9" stop-opacity="0"/></linearGradient><linearGradient id="c" x1="171.327" y1="568.892" x2="39.139" y2="-37.476" gradientUnits="userSpaceOnUse"><stop stop-color="#fff"/><stop offset=".483" stop-color="#FAFAFA" stop-opacity=".484"/><stop offset=".848" stop-color="#CECFD9" stop-opacity="0"/></linearGradient><linearGradient id="d" x1="171.327" y1="568.892" x2="39.139" y2="-37.476" gradientUnits="userSpaceOnUse"><stop stop-color="#fff"/><stop offset=".483" stop-color="#FAFAFA" stop-opacity=".484"/><stop offset=".848" stop-color="#CECFD9" stop-opacity="0"/></linearGradient><linearGradient id="e" x1="171.327" y1="568.892" x2="39.139" y2="-37.476" gradientUnits="userSpaceOnUse"><stop stop-color="#fff"/><stop offset=".483" stop-color="#FAFAFA" stop-opacity=".484"/><stop offset=".848" stop-color="#CECFD9" stop-opacity="0"/></linearGradient><linearGradient id="f" x1="171.327" y1="568.892" x2="39.139" y2="-37.476" gradientUnits="userSpaceOnUse"><stop stop-color="#fff"/><stop offset=".483" stop-color="#FAFAFA" stop-opacity=".484"/><stop offset=".848" stop-color="#CECFD9" stop-opacity="0"/></linearGradient><linearGradient id="g" x1="171.327" y1="568.892" x2="39.139" y2="-37.476" gradientUnits="userSpaceOnUse"><stop stop-color="#fff"/><stop offset=".483" stop-color="#FAFAFA" stop-opacity=".484"/><stop offset=".848" stop-color="#CECFD9" stop-opacity="0"/></linearGradient><linearGradient id="b" x1="171.327" y1="568.892" x2="39.139" y2="-37.476" gradientUnits="userSpaceOnUse"><stop stop-color="#fff"/><stop offset=".483" stop-color="#FAFAFA" stop-opacity=".484"/><stop offset=".848" stop-color="#CECFD9" stop-opacity="0"/></linearGradient><linearGradient id="i" x1="171.327" y1="-60.678" x2="61.569" y2="494.08" gradientUnits="userSpaceOnUse"><stop stop-color="#fff"/><stop offset=".483" stop-color="#FAFAFA" stop-opacity=".484"/><stop offset=".848" stop-color="#CECFD9" stop-opacity="0"/></linearGradient><linearGradient id="j" x1="171.327" y1="-60.678" x2="61.569" y2="494.08" gradientUnits="userSpaceOnUse"><stop stop-color="#fff"/><stop offset=".483" stop-color="#FAFAFA" stop-opacity=".484"/><stop offset=".848" stop-color="#CECFD9" stop-opacity="0"/></linearGradient><linearGradient id="k" x1="171.327" y1="-60.678" x2="61.569" y2="494.08" gradientUnits="userSpaceOnUse"><stop stop-color="#fff"/><stop offset=".483" stop-color="#FAFAFA" stop-opacity=".484"/><stop offset=".848" stop-color="#CECFD9" stop-opacity="0"/></linearGradient><linearGradient id="l" x1="171.327" y1="-60.678" x2="61.569" y2="494.08" gradientUnits="userSpaceOnUse"><stop stop-color="#fff"/><stop offset=".483" stop-color="#FAFAFA" stop-opacity=".484"/><stop offset=".848" stop-color="#CECFD9" stop-opacity="0"/></linearGradient><linearGradient id="m" x1="171.327" y1="-60.678" x2="61.569" y2="494.08" gradientUnits="userSpaceOnUse"><stop stop-color="#fff"/><stop offset=".483" stop-color="#FAFAFA" stop-opacity=".484"/><stop offset=".848" stop-color="#CECFD9" stop-opacity="0"/></linearGradient><linearGradient id="n" x1="171.327" y1="-60.678" x2="61.569" y2="494.08" gradientUnits="userSpaceOnUse"><stop stop-color="#fff"/><stop offset=".483" stop-color="#FAFAFA" stop-opacity=".484"/><stop offset=".848" stop-color="#CECFD9" stop-opacity="0"/></linearGradient><filter id="a" x=".049" y="0" width="317.951" height="456" filterUnits="userSpaceOnUse" color-interpolation-filters="sRGB"><feFlood flood-opacity="0" result="BackgroundImageFix"/><feBlend in="SourceGraphic" in2="BackgroundImageFix" result="shape"/><feGaussianBlur stdDeviation="2" result="effect1_foregroundBlur_49_577"/></filter></defs></svg>