<svg width="339" height="128" viewBox="0 0 339 128" fill="none" xmlns="http://www.w3.org/2000/svg">
<mask id="mask0_88_20" style="mask-type:alpha" maskUnits="userSpaceOnUse" x="124" y="7" width="91" height="85">
<path d="M166.899 8.52272C168.053 6.51667 170.947 6.51667 172.101 8.52271L184.849 30.6922C185.281 31.4437 186.017 31.9715 186.867 32.1397L212.222 37.1541C214.532 37.6111 215.439 40.4312 213.828 42.1494L196.39 60.7422C195.785 61.3876 195.495 62.2671 195.599 63.1458L198.564 88.2925C198.837 90.6066 196.482 92.3347 194.356 91.381L170.728 80.7809C169.947 80.4304 169.053 80.4304 168.272 80.7809L144.644 91.381C142.518 92.3347 140.163 90.6065 140.436 88.2925L143.401 63.1458C143.505 62.2671 143.215 61.3876 142.61 60.7422L125.172 42.1494C123.561 40.4312 124.468 37.6111 126.778 37.1541L152.133 32.1397C152.983 31.9715 153.719 31.4437 154.151 30.6922L166.899 8.52272Z" fill="#F0ED35"/>
</mask>
<g mask="url(#mask0_88_20)">
<rect x="114" y="4" width="121" height="99" fill="#F7FC1E"/>
<path d="M246.5 8C208.536 50.7429 147.5 103 143.5 65L140 95L244 91.549L246.5 8Z" fill="#F2E03F"/>
</g>
<mask id="mask1_88_20" style="mask-type:alpha" maskUnits="userSpaceOnUse" x="56" y="40" width="69" height="64">
<path d="M87.9122 42.4123C89.0714 40.4359 91.9286 40.4359 93.0878 42.4123L102.034 57.6665C102.47 58.4099 103.205 58.9298 104.051 59.0939L121.719 62.5199C124.05 62.9718 124.957 65.8233 123.316 67.5388L111.252 80.1497C110.632 80.7983 110.335 81.6906 110.442 82.5817L112.502 99.7117C112.779 102.018 110.442 103.751 108.315 102.816L91.7079 95.5113C90.9382 95.1727 90.0618 95.1727 89.2921 95.5113L72.6846 102.816C70.5579 103.751 68.2208 102.018 68.4982 99.7117L70.5583 82.5817C70.6654 81.6906 70.368 80.7983 69.7476 80.1497L57.6842 67.5388C56.0433 65.8233 56.9505 62.9718 59.281 62.5199L76.9491 59.0939C77.7951 58.9298 78.5298 58.4099 78.9658 57.6665L87.9122 42.4123Z" fill="#F0ED35"/>
</mask>
<g mask="url(#mask1_88_20)">
<rect x="48.1881" y="38" width="92.2475" height="74" fill="#F7FC1E"/>
<path d="M149.203 40.9899C120.26 72.9391 73.7277 112 70.6782 83.5959L68.0099 106.02L147.297 103.441L149.203 40.9899Z" fill="#F2E03F"/>
</g>
<mask id="mask2_88_20" style="mask-type:alpha" maskUnits="userSpaceOnUse" x="4" y="67" width="55" height="53">
<path d="M28.8767 68.728C30.0193 66.6687 32.9807 66.6687 34.1233 68.728L40.8289 80.8138C41.2537 81.5795 41.9919 82.1214 42.8498 82.2972L56.3101 85.0562C58.5852 85.5226 59.4904 88.2861 57.9321 90.0081L48.5871 100.335C48.0088 100.974 47.7333 101.83 47.8307 102.687L49.4106 116.574C49.6754 118.902 47.2894 120.621 45.165 119.633L32.7648 113.868C31.9628 113.495 31.0372 113.495 30.2352 113.868L17.835 119.633C15.7106 120.621 13.3246 118.902 13.5894 116.574L15.1693 102.687C15.2667 101.83 14.9912 100.974 14.4129 100.335L5.06794 90.0081C3.50961 88.2861 4.41481 85.5226 6.68995 85.0562L20.1502 82.2972C21.0081 82.1214 21.7463 81.5795 22.1711 80.8138L28.8767 68.728Z" fill="#F0ED35"/>
</mask>
<g mask="url(#mask2_88_20)">
<rect x="-3.11881" y="64" width="75.4753" height="64" fill="#F7FC1E"/>
<path d="M79.5297 66.5859C55.8494 94.2176 17.7772 128 15.2822 103.434L13.099 122.828L77.9703 120.597L79.5297 66.5859Z" fill="#F2E03F"/>
</g>
<mask id="mask3_88_20" style="mask-type:alpha" maskUnits="userSpaceOnUse" x="280" y="67" width="55" height="53">
<path d="M304.877 68.728C306.019 66.6687 308.981 66.6687 310.123 68.728L316.829 80.8138C317.254 81.5795 317.992 82.1214 318.85 82.2972L332.31 85.0562C334.585 85.5226 335.49 88.2861 333.932 90.0081L324.587 100.335C324.009 100.974 323.733 101.83 323.831 102.687L325.411 116.574C325.675 118.902 323.289 120.621 321.165 119.633L308.765 113.868C307.963 113.495 307.037 113.495 306.235 113.868L293.835 119.633C291.711 120.621 289.325 118.902 289.589 116.574L291.169 102.687C291.267 101.83 290.991 100.974 290.413 100.335L281.068 90.0081C279.51 88.2861 280.415 85.5226 282.69 85.0562L296.15 82.2972C297.008 82.1214 297.746 81.5795 298.171 80.8138L304.877 68.728Z" fill="#F0ED35"/>
</mask>
<g mask="url(#mask3_88_20)">
<rect x="272.881" y="64" width="75.4753" height="64" fill="#F7FC1E"/>
<path d="M355.53 66.5859C331.849 94.2176 293.777 128 291.282 103.434L289.099 122.828L353.97 120.597L355.53 66.5859Z" fill="#F2E03F"/>
</g>
<mask id="mask4_88_20" style="mask-type:alpha" maskUnits="userSpaceOnUse" x="213" y="40" width="69" height="64">
<path d="M244.912 42.4123C246.071 40.4359 248.929 40.4359 250.088 42.4123L259.034 57.6665C259.47 58.4099 260.205 58.9298 261.051 59.0939L278.719 62.5199C281.05 62.9718 281.957 65.8233 280.316 67.5388L268.252 80.1497C267.632 80.7983 267.335 81.6906 267.442 82.5817L269.502 99.7117C269.779 102.018 267.442 103.751 265.315 102.816L248.708 95.5113C247.938 95.1727 247.062 95.1727 246.292 95.5113L229.685 102.816C227.558 103.751 225.221 102.018 225.498 99.7117L227.558 82.5817C227.665 81.6906 227.368 80.7983 226.748 80.1497L214.684 67.5388C213.043 65.8233 213.95 62.9718 216.281 62.5199L233.949 59.0939C234.795 58.9298 235.53 58.4099 235.966 57.6665L244.912 42.4123Z" fill="#F0ED35"/>
</mask>
<g mask="url(#mask4_88_20)">
<rect x="205.188" y="38" width="92.2475" height="74" fill="#F7FC1E"/>
<path d="M306.203 40.9899C277.26 72.9391 230.728 112 227.678 83.5959L225.01 106.02L304.297 103.441L306.203 40.9899Z" fill="#F2E03F"/>
</g>
<path d="M89.3218 43.1711C89.9014 42.1829 91.33 42.1829 91.9096 43.1711L100.856 58.4253C101.51 59.5404 102.612 60.3204 103.881 60.5665L121.549 63.9925C122.714 64.2184 123.168 65.6442 122.348 66.5019L110.284 79.1129C109.354 80.0857 108.907 81.4241 109.068 82.7608L111.128 99.8908C111.267 101.044 110.098 101.911 109.035 101.443L92.4275 94.1382C91.273 93.6304 89.9584 93.6304 88.8039 94.1382L72.1964 101.443C71.133 101.911 69.9645 101.044 70.1032 99.8908L72.1632 82.7608C72.324 81.4241 71.8778 80.0857 70.9472 79.1129L58.8838 66.5019C58.0634 65.6442 58.517 64.2184 59.6822 63.9925L77.3503 60.5665C78.6194 60.3204 79.7213 59.5404 80.3753 58.4253L89.3218 43.1711L88.0279 42.4123L89.3218 43.1711Z" stroke="black" stroke-width="3"/>
<path d="M246.206 43.1711C246.786 42.1829 248.214 42.1829 248.794 43.1711L257.74 58.4253C258.394 59.5404 259.496 60.3204 260.765 60.5665L278.433 63.9925C279.599 64.2184 280.052 65.6442 279.232 66.5019L267.168 79.1129C266.238 80.0857 265.792 81.4241 265.952 82.7608L268.012 99.8908C268.151 101.044 266.983 101.911 265.919 101.443L249.312 94.1382C248.157 93.6304 246.843 93.6304 245.688 94.1382L229.081 101.443C228.017 101.911 226.849 101.044 226.988 99.8908L229.048 82.7608C229.208 81.4241 228.762 80.0857 227.832 79.1129L215.768 66.5019C214.948 65.6442 215.401 64.2184 216.567 63.9925L234.235 60.5665C235.504 60.3204 236.606 59.5404 237.26 58.4253L246.206 43.1711L244.912 42.4123L246.206 43.1711Z" stroke="black" stroke-width="3"/>
<path d="M167.187 5.47844C167.758 4.44559 169.242 4.44559 169.813 5.47844L183.373 30.0227L184.686 29.2974L183.373 30.0228C184.009 31.1738 185.116 31.9891 186.404 32.2542L213.568 37.8459C214.703 38.0797 215.156 39.458 214.38 40.3192L195.56 61.2052C194.697 62.1625 194.287 63.4437 194.432 64.724L197.617 92.8468C197.749 94.0115 196.554 94.8707 195.492 94.3748L170.404 82.6601C169.197 82.0966 167.803 82.0966 166.596 82.6601L141.508 94.3748C140.446 94.8707 139.251 94.0115 139.383 92.8468L142.568 64.724C142.713 63.4436 142.303 62.1625 141.44 61.2052L122.62 40.3192C121.844 39.458 122.297 38.0797 123.432 37.8459L150.596 32.2542C151.884 31.9891 152.991 31.1738 153.627 30.0227L167.187 5.47844Z" stroke="black" stroke-width="3"/>
<path d="M306.173 67.7282C306.736 66.6616 308.264 66.6616 308.827 67.7282L316.033 81.3849C316.654 82.5618 317.764 83.4035 319.065 83.6838L333.749 86.8486C334.862 87.0884 335.312 88.4309 334.57 89.2934L324.222 101.317C323.41 102.261 323.025 103.499 323.159 104.737L324.892 120.755C325.019 121.929 323.803 122.783 322.742 122.264L309.476 115.779C308.229 115.17 306.771 115.17 305.524 115.779L292.258 122.264C291.197 122.783 289.981 121.929 290.108 120.755L291.841 104.737C291.975 103.499 291.59 102.261 290.778 101.317L280.43 89.2934C279.688 88.4309 280.138 87.0884 281.251 86.8486L295.935 83.6838C297.236 83.4035 298.346 82.5618 298.967 81.3849L306.173 67.7282Z" stroke="black" stroke-width="3"/>
<path d="M30.1734 67.7282C30.7362 66.6616 32.2638 66.6616 32.8266 67.7282L40.033 81.3849C40.654 82.5618 41.764 83.4035 43.0648 83.6838L57.7493 86.8486C58.8617 87.0884 59.3125 88.4309 58.5701 89.2934L48.2218 101.317C47.4096 102.261 47.0247 103.499 47.1587 104.737L48.8918 120.755C49.0189 121.929 47.8025 122.783 46.7418 122.264L33.4764 115.779C32.2293 115.17 30.7707 115.17 29.5236 115.779L16.2582 122.264C15.1975 122.783 13.9811 121.929 14.1082 120.755L15.8413 104.737C15.9753 103.499 15.5904 102.261 14.7782 101.317L4.42985 89.2934C3.68755 88.4309 4.13834 87.0884 5.25074 86.8486L19.9352 83.6838C21.236 83.4035 22.346 82.5618 22.967 81.3849L30.1734 67.7282Z" stroke="black" stroke-width="3"/>
</svg>
