<svg width="366" height="459" viewBox="0 0 366 459" fill="none" xmlns="http://www.w3.org/2000/svg">
<path d="M184.087 228.392L163.554 1.15703L198.872 0.565622L184.087 228.392Z" fill="url(#paint0_linear_3_50)"/>
<path d="M185.213 223.204L241.497 5.0036L274.116 21.3544L185.213 223.204Z" fill="url(#paint1_linear_3_50)"/>
<path d="M181.657 229.432L299.833 50.6453L325.331 80.0838L181.657 229.432Z" fill="url(#paint2_linear_3_50)"/>
<path d="M187.165 225.071L349.341 106.22L364.867 144.403L187.165 225.071Z" fill="url(#paint3_linear_3_50)"/>
<path d="M184.917 229.854L91.1751 30.9157L123.387 13.5314L184.917 229.854Z" fill="url(#paint4_linear_3_50)"/>
<path d="M182.001 229.892L43.6469 73.0257L70.1447 44.9733L126.073 137.433L182.001 229.892Z" fill="url(#paint5_linear_3_50)"/>
<path d="M186.663 229.175L11.9783 138.968L28.8371 101.661L107.75 165.418L186.663 229.175Z" fill="url(#paint6_linear_3_50)"/>
<path d="M185.65 227.358L200.791 455.016L165.468 454.77L185.65 227.358Z" fill="url(#paint7_linear_3_50)"/>
<path d="M184.401 232.518L122.961 449.323L90.7385 432.203L184.401 232.518Z" fill="url(#paint8_linear_3_50)"/>
<path d="M188.104 226.376L65.7233 402.311L40.9294 372.276L188.104 226.376Z" fill="url(#paint9_linear_3_50)"/>
<path d="M182.494 230.605L17.5461 345.579L2.92975 307.037L182.494 230.605Z" fill="url(#paint10_linear_3_50)"/>
<path d="M184.854 225.877L273.854 426.981L241.24 443.597L184.854 225.877Z" fill="url(#paint11_linear_3_50)"/>
<path d="M187.771 225.908L322.368 386.01L295.212 413.426L241.491 319.667L187.771 225.908Z" fill="url(#paint12_linear_3_50)"/>
<path d="M183.094 226.514L355.59 320.837L337.852 357.734L260.473 292.124L183.094 226.514Z" fill="url(#paint13_linear_3_50)"/>
<defs>
<linearGradient id="paint0_linear_3_50" x1="184.087" y1="228.392" x2="180.277" y2="0.876995" gradientUnits="userSpaceOnUse">
<stop offset="0.776042" stop-color="white"/>
<stop offset="1" stop-color="#F4F4F4" stop-opacity="0"/>
</linearGradient>
<linearGradient id="paint1_linear_3_50" x1="185.213" y1="223.204" x2="283.928" y2="26.2728" gradientUnits="userSpaceOnUse">
<stop offset="0.776042" stop-color="white"/>
<stop offset="1" stop-color="#F4F4F4" stop-opacity="0"/>
</linearGradient>
<linearGradient id="paint2_linear_3_50" x1="181.657" y1="229.432" x2="337.654" y2="94.3107" gradientUnits="userSpaceOnUse">
<stop offset="0.776042" stop-color="white"/>
<stop offset="1" stop-color="#F4F4F4" stop-opacity="0"/>
</linearGradient>
<linearGradient id="paint3_linear_3_50" x1="187.165" y1="225.071" x2="367.803" y2="151.623" gradientUnits="userSpaceOnUse">
<stop offset="0.776042" stop-color="white"/>
<stop offset="1" stop-color="#F4F4F4" stop-opacity="0"/>
</linearGradient>
<linearGradient id="paint4_linear_3_50" x1="184.917" y1="229.854" x2="80.6254" y2="36.6093" gradientUnits="userSpaceOnUse">
<stop offset="0.776042" stop-color="white"/>
<stop offset="1" stop-color="#F4F4F4" stop-opacity="0"/>
</linearGradient>
<linearGradient id="paint5_linear_3_50" x1="182.001" y1="229.892" x2="30.5785" y2="86.8608" gradientUnits="userSpaceOnUse">
<stop offset="0.776042" stop-color="white"/>
<stop offset="1" stop-color="#F4F4F4" stop-opacity="0"/>
</linearGradient>
<linearGradient id="paint6_linear_3_50" x1="186.663" y1="229.175" x2="7.74965" y2="148.326" gradientUnits="userSpaceOnUse">
<stop offset="0.776042" stop-color="white"/>
<stop offset="1" stop-color="#F4F4F4" stop-opacity="0"/>
</linearGradient>
<linearGradient id="paint7_linear_3_50" x1="185.65" y1="227.358" x2="184.066" y2="454.899" gradientUnits="userSpaceOnUse">
<stop offset="0.776042" stop-color="white"/>
<stop offset="1" stop-color="#F4F4F4" stop-opacity="0"/>
</linearGradient>
<linearGradient id="paint8_linear_3_50" x1="184.401" y1="232.518" x2="81.0458" y2="427.054" gradientUnits="userSpaceOnUse">
<stop offset="0.776042" stop-color="white"/>
<stop offset="1" stop-color="#F4F4F4" stop-opacity="0"/>
</linearGradient>
<linearGradient id="paint9_linear_3_50" x1="188.104" y1="226.376" x2="28.9472" y2="357.761" gradientUnits="userSpaceOnUse">
<stop offset="0.776042" stop-color="white"/>
<stop offset="1" stop-color="#F4F4F4" stop-opacity="0"/>
</linearGradient>
<linearGradient id="paint10_linear_3_50" x1="182.494" y1="230.605" x2="0.166162" y2="299.75" gradientUnits="userSpaceOnUse">
<stop offset="0.776042" stop-color="white"/>
<stop offset="1" stop-color="#F4F4F4" stop-opacity="0"/>
</linearGradient>
<linearGradient id="paint11_linear_3_50" x1="184.854" y1="225.877" x2="284.536" y2="421.539" gradientUnits="userSpaceOnUse">
<stop offset="0.776042" stop-color="white"/>
<stop offset="1" stop-color="#F4F4F4" stop-opacity="0"/>
</linearGradient>
<linearGradient id="paint12_linear_3_50" x1="187.771" y1="225.908" x2="335.76" y2="372.488" gradientUnits="userSpaceOnUse">
<stop offset="0.776042" stop-color="white"/>
<stop offset="1" stop-color="#F4F4F4" stop-opacity="0"/>
</linearGradient>
<linearGradient id="paint13_linear_3_50" x1="183.094" y1="226.514" x2="360.04" y2="311.582" gradientUnits="userSpaceOnUse">
<stop offset="0.776042" stop-color="white"/>
<stop offset="1" stop-color="#F4F4F4" stop-opacity="0"/>
</linearGradient>
</defs>
</svg>
