<svg viewBox="0 0 339 124" fill="none" xmlns="http://www.w3.org/2000/svg"><mask id="a" style="mask-type:alpha" maskUnits="userSpaceOnUse" x="124" y="3" width="91" height="85"><path d="M166.899 4.523c1.154-2.006 4.048-2.006 5.202 0l12.748 22.17a3 3 0 0 0 2.018 1.447l25.355 5.014c2.31.457 3.217 3.277 1.606 4.995L196.39 56.742a3 3 0 0 0-.791 2.404l2.965 25.147c.273 2.314-2.082 4.042-4.208 3.088l-23.628-10.6a3 3 0 0 0-2.456 0l-23.628 10.6c-2.126.954-4.481-.775-4.208-3.088l2.965-25.147a3 3 0 0 0-.791-2.404L125.172 38.15c-1.611-1.718-.704-4.538 1.606-4.995l25.355-5.014a3 3 0 0 0 2.018-1.448l12.748-22.17z" fill="#F0ED35"/></mask><g mask="url(#a)"><path fill="#F7FC1E" d="M114 0h121v99H114z"/><path d="M246.5 4c-37.964 42.743-99 95-103 57L140 91l104-3.451L246.5 4z" fill="#F2E03F"/></g><mask id="b" style="mask-type:alpha" maskUnits="userSpaceOnUse" x="56" y="36" width="69" height="64"><path d="M87.912 38.412c1.16-1.976 4.017-1.976 5.176 0l8.946 15.255a3 3 0 0 0 2.017 1.427l17.668 3.426c2.331.452 3.238 3.303 1.597 5.019l-12.064 12.61a3.002 3.002 0 0 0-.81 2.433l2.06 17.13c.277 2.306-2.06 4.04-4.187 3.104l-16.607-7.305a3 3 0 0 0-2.416 0l-16.607 7.305c-2.127.935-4.464-.797-4.187-3.104l2.06-17.13a3 3 0 0 0-.81-2.432L57.684 63.539c-1.64-1.716-.733-4.567 1.597-5.02l17.668-3.425a3 3 0 0 0 2.017-1.428l8.946-15.254z" fill="#F0ED35"/></mask><g mask="url(#b)"><path fill="#F7FC1E" d="M48.188 34h92.248v74H48.188z"/><path d="M149.203 36.99C120.26 68.94 73.728 108 70.678 79.596L68.01 102.02l79.287-2.58 1.906-62.45z" fill="#F2E03F"/></g><mask id="c" style="mask-type:alpha" maskUnits="userSpaceOnUse" x="4" y="63" width="55" height="53"><path d="M28.877 64.728c1.142-2.06 4.104-2.06 5.246 0l6.706 12.086a3 3 0 0 0 2.02 1.483l13.461 2.76c2.275.466 3.18 3.23 1.622 4.951l-9.345 10.327a3 3 0 0 0-.756 2.352l1.58 13.887c.264 2.328-2.122 4.047-4.246 3.059l-12.4-5.765a3 3 0 0 0-2.53 0l-12.4 5.765c-2.124.988-4.51-.731-4.246-3.059l1.58-13.887a3 3 0 0 0-.756-2.352L5.068 86.008c-1.558-1.722-.653-4.485 1.622-4.952l13.46-2.759a3 3 0 0 0 2.021-1.483l6.706-12.086z" fill="#F0ED35"/></mask><g mask="url(#c)"><path fill="#F7FC1E" d="M-3.119 60h75.475v64H-3.119z"/><path d="M79.53 62.586C55.85 90.218 17.777 124 15.282 99.434L13.1 118.828l64.871-2.231 1.56-54.011z" fill="#F2E03F"/></g><mask id="d" style="mask-type:alpha" maskUnits="userSpaceOnUse" x="280" y="63" width="55" height="53"><path d="M304.877 64.728c1.142-2.06 4.104-2.06 5.246 0l6.706 12.086a3 3 0 0 0 2.021 1.483l13.46 2.76c2.275.466 3.18 3.23 1.622 4.951l-9.345 10.327a2.998 2.998 0 0 0-.756 2.352l1.58 13.887c.264 2.328-2.122 4.047-4.246 3.059l-12.4-5.765a3 3 0 0 0-2.53 0l-12.4 5.765c-2.124.988-4.51-.731-4.246-3.059l1.58-13.887a2.998 2.998 0 0 0-.756-2.352l-9.345-10.327c-1.558-1.722-.653-4.485 1.622-4.952l13.46-2.759a3 3 0 0 0 2.021-1.483l6.706-12.086z" fill="#F0ED35"/></mask><g mask="url(#d)"><path fill="#F7FC1E" d="M272.881 60h75.475v64h-75.475z"/><path d="M355.53 62.586C331.849 90.218 293.777 124 291.282 99.434l-2.183 19.394 64.871-2.231 1.56-54.011z" fill="#F2E03F"/></g><mask id="e" style="mask-type:alpha" maskUnits="userSpaceOnUse" x="213" y="36" width="69" height="64"><path d="M244.912 38.412c1.159-1.976 4.017-1.976 5.176 0l8.946 15.255a3 3 0 0 0 2.017 1.427l17.668 3.426c2.331.452 3.238 3.303 1.597 5.019l-12.064 12.61a3.002 3.002 0 0 0-.81 2.433l2.06 17.13c.277 2.306-2.06 4.04-4.187 3.104l-16.607-7.305a3 3 0 0 0-2.416 0l-16.607 7.305c-2.127.935-4.464-.797-4.187-3.104l2.06-17.13a3.002 3.002 0 0 0-.81-2.432l-12.064-12.611c-1.641-1.716-.734-4.567 1.597-5.02l17.668-3.425a3 3 0 0 0 2.017-1.428l8.946-15.254z" fill="#F0ED35"/></mask><g mask="url(#e)"><path fill="#F7FC1E" d="M205.188 34h92.248v74h-92.248z"/><path d="M306.203 36.99C277.26 68.94 230.728 108 227.678 79.596l-2.668 22.424 79.287-2.58 1.906-62.45z" fill="#F2E03F"/></g></svg>