<svg width="59" height="59" viewBox="0 0 59 59" fill="none" xmlns="http://www.w3.org/2000/svg">
<path d="M30.8266 2.72821L38.033 16.3849C38.654 17.5618 39.764 18.4035 41.0648 18.6838L55.7493 21.8486C56.8617 22.0884 57.3125 23.4309 56.5701 24.2934L46.2218 36.3173C45.4096 37.2609 45.0247 38.4989 45.1587 39.7368L46.8918 55.7553C47.0189 56.9292 45.8025 57.7828 44.7418 57.2642L31.4764 50.7792C30.2293 50.1695 28.7707 50.1695 27.5236 50.7792L14.2582 57.2642C13.1975 57.7828 11.9811 56.9292 12.1082 55.7553L13.8413 39.7368C13.9753 38.4989 13.5904 37.2609 12.7782 36.3173L2.42985 24.2934C1.68755 23.4309 2.13834 22.0884 3.25074 21.8486L17.9352 18.6838C19.236 18.4035 20.346 17.5618 20.967 16.3849L28.1734 2.72821C28.7362 1.66159 30.2638 1.66159 30.8266 2.72821Z" stroke="black" stroke-width="3"/>
</svg>
