<svg width="366" height="460" viewBox="0 0 366 460" fill="none" xmlns="http://www.w3.org/2000/svg">
<g filter="url(#filter0_b_3_50)">
<path d="M184.087 229.12L163.554 1.88511L198.872 1.2937L184.087 229.12Z" fill="url(#paint0_linear_3_50)"/>
<path d="M185.213 223.932L241.497 5.73168L274.116 22.0825L185.213 223.932Z" fill="url(#paint1_linear_3_50)"/>
<path d="M181.657 230.16L299.833 51.3734L325.331 80.8119L181.657 230.16Z" fill="url(#paint2_linear_3_50)"/>
<path d="M187.165 225.799L349.341 106.948L364.867 145.132L187.165 225.799Z" fill="url(#paint3_linear_3_50)"/>
<path d="M184.917 230.582L91.1751 31.6438L123.387 14.2595L184.917 230.582Z" fill="url(#paint4_linear_3_50)"/>
<path d="M182.001 230.62L43.6469 73.7537L70.1446 45.7014L126.073 138.161L182.001 230.62Z" fill="url(#paint5_linear_3_50)"/>
<path d="M186.663 229.903L11.9783 139.696L28.8371 102.389L107.75 166.146L186.663 229.903Z" fill="url(#paint6_linear_3_50)"/>
<path d="M185.65 228.086L200.791 455.744L165.468 455.498L185.65 228.086Z" fill="url(#paint7_linear_3_50)"/>
<path d="M184.401 233.246L122.961 450.051L90.7385 432.931L184.401 233.246Z" fill="url(#paint8_linear_3_50)"/>
<path d="M188.104 227.104L65.7233 403.039L40.9294 373.004L188.104 227.104Z" fill="url(#paint9_linear_3_50)"/>
<path d="M182.494 231.333L17.546 346.307L2.92973 307.766L182.494 231.333Z" fill="url(#paint10_linear_3_50)"/>
<path d="M184.854 226.605L273.854 427.709L241.24 444.325L184.854 226.605Z" fill="url(#paint11_linear_3_50)"/>
<path d="M187.771 226.636L322.368 386.738L295.212 414.154L241.491 320.395L187.771 226.636Z" fill="url(#paint12_linear_3_50)"/>
<path d="M183.094 227.242L355.59 321.565L337.852 358.462L260.473 292.852L183.094 227.242Z" fill="url(#paint13_linear_3_50)"/>
</g>
<defs>
<filter id="filter0_b_3_50" x="-197.07" y="-198.706" width="761.937" height="854.45" filterUnits="userSpaceOnUse" color-interpolation-filters="sRGB">
<feFlood flood-opacity="0" result="BackgroundImageFix"/>
<feGaussianBlur in="BackgroundImageFix" stdDeviation="100"/>
<feComposite in2="SourceAlpha" operator="in" result="effect1_backgroundBlur_3_50"/>
<feBlend mode="normal" in="SourceGraphic" in2="effect1_backgroundBlur_3_50" result="shape"/>
</filter>
<linearGradient id="paint0_linear_3_50" x1="184.087" y1="229.12" x2="180.277" y2="1.60507" gradientUnits="userSpaceOnUse">
<stop stop-color="white"/>
<stop offset="1" stop-color="#F4F4F4" stop-opacity="0"/>
</linearGradient>
<linearGradient id="paint1_linear_3_50" x1="185.213" y1="223.932" x2="283.928" y2="27.0009" gradientUnits="userSpaceOnUse">
<stop stop-color="white"/>
<stop offset="1" stop-color="#F4F4F4" stop-opacity="0"/>
</linearGradient>
<linearGradient id="paint2_linear_3_50" x1="181.657" y1="230.16" x2="337.654" y2="95.0387" gradientUnits="userSpaceOnUse">
<stop stop-color="white"/>
<stop offset="1" stop-color="#F4F4F4" stop-opacity="0"/>
</linearGradient>
<linearGradient id="paint3_linear_3_50" x1="187.165" y1="225.799" x2="367.803" y2="152.351" gradientUnits="userSpaceOnUse">
<stop stop-color="white"/>
<stop offset="1" stop-color="#F4F4F4" stop-opacity="0"/>
</linearGradient>
<linearGradient id="paint4_linear_3_50" x1="184.917" y1="230.582" x2="80.6254" y2="37.3374" gradientUnits="userSpaceOnUse">
<stop stop-color="white"/>
<stop offset="1" stop-color="#F4F4F4" stop-opacity="0"/>
</linearGradient>
<linearGradient id="paint5_linear_3_50" x1="182.001" y1="230.62" x2="30.5784" y2="87.5889" gradientUnits="userSpaceOnUse">
<stop stop-color="white"/>
<stop offset="1" stop-color="#F4F4F4" stop-opacity="0"/>
</linearGradient>
<linearGradient id="paint6_linear_3_50" x1="186.663" y1="229.903" x2="7.74965" y2="149.054" gradientUnits="userSpaceOnUse">
<stop stop-color="white"/>
<stop offset="1" stop-color="#F4F4F4" stop-opacity="0"/>
</linearGradient>
<linearGradient id="paint7_linear_3_50" x1="185.65" y1="228.086" x2="184.066" y2="455.627" gradientUnits="userSpaceOnUse">
<stop stop-color="white"/>
<stop offset="1" stop-color="#F4F4F4" stop-opacity="0"/>
</linearGradient>
<linearGradient id="paint8_linear_3_50" x1="184.401" y1="233.246" x2="81.0458" y2="427.782" gradientUnits="userSpaceOnUse">
<stop stop-color="white"/>
<stop offset="1" stop-color="#F4F4F4" stop-opacity="0"/>
</linearGradient>
<linearGradient id="paint9_linear_3_50" x1="188.104" y1="227.104" x2="28.9472" y2="358.489" gradientUnits="userSpaceOnUse">
<stop stop-color="white"/>
<stop offset="1" stop-color="#F4F4F4" stop-opacity="0"/>
</linearGradient>
<linearGradient id="paint10_linear_3_50" x1="182.494" y1="231.333" x2="0.166147" y2="300.478" gradientUnits="userSpaceOnUse">
<stop stop-color="white"/>
<stop offset="1" stop-color="#F4F4F4" stop-opacity="0"/>
</linearGradient>
<linearGradient id="paint11_linear_3_50" x1="184.854" y1="226.605" x2="284.536" y2="422.267" gradientUnits="userSpaceOnUse">
<stop stop-color="white"/>
<stop offset="1" stop-color="#F4F4F4" stop-opacity="0"/>
</linearGradient>
<linearGradient id="paint12_linear_3_50" x1="187.771" y1="226.636" x2="335.76" y2="373.216" gradientUnits="userSpaceOnUse">
<stop stop-color="white"/>
<stop offset="1" stop-color="#F4F4F4" stop-opacity="0"/>
</linearGradient>
<linearGradient id="paint13_linear_3_50" x1="183.094" y1="227.242" x2="360.04" y2="312.31" gradientUnits="userSpaceOnUse">
<stop stop-color="white"/>
<stop offset="1" stop-color="#F4F4F4" stop-opacity="0"/>
</linearGradient>
</defs>
</svg>
