<svg width="69" height="64" viewBox="0 0 69 64" fill="none" xmlns="http://www.w3.org/2000/svg">
<path d="M35.9096 3.17114L44.856 18.4253C45.51 19.5404 46.612 20.3204 47.881 20.5665L65.5491 23.9925C66.7144 24.2184 67.168 25.6442 66.3475 26.5019L54.2842 39.1129C53.3535 40.0857 52.9074 41.4241 53.0681 42.7608L55.1282 59.8908C55.2669 61.0442 54.0983 61.9107 53.035 61.443L36.4275 54.1382C35.273 53.6304 33.9584 53.6304 32.8039 54.1382L16.1964 61.443C15.133 61.9107 13.9645 61.0442 14.1032 59.8908L16.1632 42.7608C16.324 41.4241 15.8778 40.0857 14.9472 39.1129L2.88385 26.5019C2.06335 25.6442 2.51696 24.2184 3.68223 23.9925L21.3503 20.5665C22.6194 20.3204 23.7213 19.5404 24.3753 18.4253L33.3218 3.17114C33.9014 2.18295 35.33 2.18294 35.9096 3.17114Z" stroke="black" stroke-width="3"/>
</svg>
